STARTFONT 2.1
COMMENT
COMMENT Converted from OpenType font "arialbd.ttf" by "otf2bdf 3.0".
COMMENT
FONT -FreeType-Arial-Bold-R-Normal--21-150-100-100-P-109-ISO10646-1
SIZE 15 100 100
FONTBOUNDINGBOX 37 30 -10 -8
STARTPROPERTIES 19
FOUNDRY "FreeType"
FAMILY_NAME "Arial"
WEIGHT_NAME "Bold"
SLANT "R"
SETWIDTH_NAME "Normal"
ADD_STYLE_NAME ""
PIXEL_SIZE 21
POINT_SIZE 150
RESOLUTION_X 100
RESOLUTION_Y 100
SPACING "P"
AVERAGE_WIDTH 109
CHARSET_REGISTRY "ISO10646"
CHARSET_ENCODING "1"
FONT_ASCENT 19
FONT_DESCENT 4
COPYRIGHT "© 2010 The Monotype Corporation. All Rights Reserved."
_OTF_FONTFILE "arialbd.ttf"
_OTF_PSNAME "Arial-BoldMT"
ENDPROPERTIES
CHARS 2815
STARTCHAR 0020
ENCODING 32
SWIDTH 288 0
DWIDTH 6 0
BBX 0 0 0 0
BITMAP
ENDCHAR
STARTCHAR 0021
ENCODING 33
SWIDTH 336 0
DWIDTH 7 0
BBX 3 15 2 0
BITMAP
E0
E0
E0
E0
E0
E0
E0
E0
E0
C0
40
00
E0
E0
E0
ENDCHAR
STARTCHAR 0022
ENCODING 34
SWIDTH 480 0
DWIDTH 10 0
BBX 8 5 1 10
BITMAP
E7
E7
E7
E7
67
ENDCHAR
STARTCHAR 0023
ENCODING 35
SWIDTH 576 0
DWIDTH 12 0
BBX 11 15 0 0
BITMAP
0CE0
0CE0
1CC0
18C0
FFE0
FFE0
1980
3980
3180
FFE0
FFE0
3300
7300
6300
6700
ENDCHAR
STARTCHAR 0024
ENCODING 36
SWIDTH 576 0
DWIDTH 12 0
BBX 10 18 1 -2
BITMAP
0C00
3E00
7F00
EF80
ED80
EC00
FC00
7E00
3F80
0F80
0FC0
0DC0
EDC0
ED80
7F80
3E00
0C00
0C00
ENDCHAR
STARTCHAR 0025
ENCODING 37
SWIDTH 912 0
DWIDTH 19 0
BBX 17 16 1 -1
BITMAP
781800
FC1800
CC3000
CE3000
CE6000
CC6000
FCC000
78C000
018E00
019F00
033B80
033380
063380
063B80
0C1F00
0C0E00
ENDCHAR
STARTCHAR 0026
ENCODING 38
SWIDTH 720 0
DWIDTH 15 0
BBX 14 15 1 0
BITMAP
0F00
3FC0
39C0
38C0
39C0
1F80
1F00
3F00
77B8
E3B0
E1F0
E1F0
F1F8
7FFC
3F18
ENDCHAR
STARTCHAR 0027
ENCODING 39
SWIDTH 240 0
DWIDTH 5 0
BBX 3 5 1 10
BITMAP
E0
E0
E0
E0
E0
ENDCHAR
STARTCHAR 0028
ENCODING 40
SWIDTH 336 0
DWIDTH 7 0
BBX 5 19 1 -4
BITMAP
18
38
30
70
70
60
E0
E0
E0
E0
E0
E0
E0
60
70
70
30
38
18
ENDCHAR
STARTCHAR 0029
ENCODING 41
SWIDTH 336 0
DWIDTH 7 0
BBX 5 19 1 -4
BITMAP
C0
E0
60
70
70
30
38
38
38
38
38
38
38
30
70
70
60
E0
C0
ENDCHAR
STARTCHAR 002A
ENCODING 42
SWIDTH 384 0
DWIDTH 8 0
BBX 8 8 0 7
BITMAP
18
18
5A
FF
18
3C
66
24
ENDCHAR
STARTCHAR 002B
ENCODING 43
SWIDTH 576 0
DWIDTH 12 0
BBX 10 11 1 2
BITMAP
0C00
0C00
0C00
0C00
FFC0
FFC0
FFC0
0C00
0C00
0C00
0C00
ENDCHAR
STARTCHAR 002C
ENCODING 44
SWIDTH 288 0
DWIDTH 6 0
BBX 3 6 1 -3
BITMAP
E0
E0
E0
20
60
C0
ENDCHAR
STARTCHAR 002D
ENCODING 45
SWIDTH 336 0
DWIDTH 7 0
BBX 6 3 1 4
BITMAP
FC
FC
FC
ENDCHAR
STARTCHAR 002E
ENCODING 46
SWIDTH 288 0
DWIDTH 6 0
BBX 2 3 2 0
BITMAP
C0
C0
C0
ENDCHAR
STARTCHAR 002F
ENCODING 47
SWIDTH 288 0
DWIDTH 6 0
BBX 6 15 0 0
BITMAP
0C
18
18
18
18
30
30
30
30
60
60
60
60
C0
C0
ENDCHAR
STARTCHAR 0030
ENCODING 48
SWIDTH 576 0
DWIDTH 12 0
BBX 10 15 1 0
BITMAP
1E00
7F00
7380
E380
E380
E1C0
E1C0
E1C0
E1C0
E1C0
E380
E380
7380
7F00
1E00
ENDCHAR
STARTCHAR 0031
ENCODING 49
SWIDTH 576 0
DWIDTH 12 0
BBX 6 15 2 0
BITMAP
0C
1C
3C
7C
FC
DC
9C
1C
1C
1C
1C
1C
1C
1C
1C
ENDCHAR
STARTCHAR 0032
ENCODING 50
SWIDTH 576 0
DWIDTH 12 0
BBX 10 15 1 0
BITMAP
3E00
7F80
E380
E1C0
01C0
03C0
0380
0780
0F00
1E00
3C00
7800
F000
FFC0
FFC0
ENDCHAR
STARTCHAR 0033
ENCODING 51
SWIDTH 576 0
DWIDTH 12 0
BBX 10 15 1 0
BITMAP
3E00
7F00
E380
E380
0380
0380
0F00
0F00
0380
01C0
01C0
E1C0
E380
7F00
3E00
ENDCHAR
STARTCHAR 0034
ENCODING 52
SWIDTH 576 0
DWIDTH 12 0
BBX 11 15 0 0
BITMAP
0180
0380
0780
0780
0F80
1D80
1980
3980
7180
6180
FFE0
FFE0
0180
0180
0180
ENDCHAR
STARTCHAR 0035
ENCODING 53
SWIDTH 576 0
DWIDTH 12 0
BBX 10 15 1 0
BITMAP
3F80
7F80
7000
7000
7000
7F00
7F80
E3C0
01C0
01C0
01C0
E1C0
F380
7F80
3E00
ENDCHAR
STARTCHAR 0036
ENCODING 54
SWIDTH 576 0
DWIDTH 12 0
BBX 10 15 1 0
BITMAP
1F00
3F80
73C0
E100
E000
EF00
FF80
F380
E1C0
E1C0
E1C0
E1C0
7380
3F80
1E00
ENDCHAR
STARTCHAR 0037
ENCODING 55
SWIDTH 576 0
DWIDTH 12 0
BBX 10 15 1 0
BITMAP
FFC0
FFC0
0380
0780
0700
0E00
0E00
1C00
1C00
1C00
1800
3800
3800
3800
3800
ENDCHAR
STARTCHAR 0038
ENCODING 56
SWIDTH 576 0
DWIDTH 12 0
BBX 10 15 1 0
BITMAP
3E00
7F00
E380
E180
E180
6380
3F00
7F00
E380
E1C0
E1C0
E1C0
E380
7F80
3E00
ENDCHAR
STARTCHAR 0039
ENCODING 57
SWIDTH 576 0
DWIDTH 12 0
BBX 10 15 1 0
BITMAP
3E00
7F00
E380
E380
E380
E3C0
E3C0
E3C0
7FC0
3DC0
0180
E380
E380
7F00
3E00
ENDCHAR
STARTCHAR 003A
ENCODING 58
SWIDTH 336 0
DWIDTH 7 0
BBX 3 11 2 0
BITMAP
E0
E0
E0
00
00
00
00
00
E0
E0
E0
ENDCHAR
STARTCHAR 003B
ENCODING 59
SWIDTH 336 0
DWIDTH 7 0
BBX 3 14 2 -3
BITMAP
E0
E0
E0
00
00
00
00
00
E0
E0
E0
60
40
80
ENDCHAR
STARTCHAR 003C
ENCODING 60
SWIDTH 576 0
DWIDTH 12 0
BBX 10 11 1 2
BITMAP
0040
01C0
0FC0
3F80
FC00
E000
FC00
3F80
0FC0
01C0
0040
ENDCHAR
STARTCHAR 003D
ENCODING 61
SWIDTH 576 0
DWIDTH 12 0
BBX 10 8 1 3
BITMAP
FFC0
FFC0
FFC0
0000
0000
FFC0
FFC0
FFC0
ENDCHAR
STARTCHAR 003E
ENCODING 62
SWIDTH 576 0
DWIDTH 12 0
BBX 10 11 1 2
BITMAP
8000
F000
FC00
7F00
0FC0
01C0
0FC0
7F00
FC00
F000
8000
ENDCHAR
STARTCHAR 003F
ENCODING 63
SWIDTH 624 0
DWIDTH 13 0
BBX 11 15 1 0
BITMAP
1F00
7FC0
71C0
E0E0
00E0
01E0
03C0
0780
0F00
0E00
0E00
0000
0E00
0E00
0E00
ENDCHAR
STARTCHAR 0040
ENCODING 64
SWIDTH 960 0
DWIDTH 20 0
BBX 19 20 1 -5
BITMAP
01FC00
0FFF00
1E0780
3801C0
71EEC0
63EC60
C7FC60
CF1C60
CE1C60
CC1C60
9C18C0
CE38C0
CFF980
CFFF00
E79E00
600060
3000E0
3E03C0
0FFF00
03FC00
ENDCHAR
STARTCHAR 0041
ENCODING 65
SWIDTH 720 0
DWIDTH 15 0
BBX 15 15 0 0
BITMAP
0380
07C0
07C0
0EC0
0EE0
0EE0
1C70
1C70
1C70
3FF8
3FF8
7FFC
701C
701C
E00E
ENDCHAR
STARTCHAR 0042
ENCODING 66
SWIDTH 720 0
DWIDTH 15 0
BBX 12 15 2 0
BITMAP
FF80
FFE0
FFE0
E0E0
E0E0
E0E0
FFC0
FFC0
FFE0
E0F0
E070
E070
FFF0
FFE0
FFC0
ENDCHAR
STARTCHAR 0043
ENCODING 67
SWIDTH 720 0
DWIDTH 15 0
BBX 13 15 1 0
BITMAP
0FC0
3FF0
3FF0
7878
F030
E000
E000
E000
E000
E000
F030
7878
7FF0
3FF0
0FC0
ENDCHAR
STARTCHAR 0044
ENCODING 68
SWIDTH 720 0
DWIDTH 15 0
BBX 12 15 2 0
BITMAP
FF80
FFC0
FFE0
E1E0
E0F0
E070
E070
E070
E070
E070
E0F0
E0E0
FFE0
FFC0
FF00
ENDCHAR
STARTCHAR 0045
ENCODING 69
SWIDTH 672 0
DWIDTH 14 0
BBX 11 15 2 0
BITMAP
FFE0
FFE0
FFE0
E000
E000
E000
FFC0
FFC0
FFC0
E000
E000
E000
FFE0
FFE0
FFE0
ENDCHAR
STARTCHAR 0046
ENCODING 70
SWIDTH 624 0
DWIDTH 13 0
BBX 10 15 2 0
BITMAP
FFC0
FFC0
FFC0
E000
E000
E000
FF80
FF80
FF80
E000
E000
E000
E000
E000
E000
ENDCHAR
STARTCHAR 0047
ENCODING 71
SWIDTH 768 0
DWIDTH 16 0
BBX 14 15 1 0
BITMAP
0FE0
1FF0
3FF8
783C
F010
E000
E000
E0FC
E0FC
E0FC
701C
783C
3FFC
1FF8
07E0
ENDCHAR
STARTCHAR 0048
ENCODING 72
SWIDTH 720 0
DWIDTH 15 0
BBX 12 15 2 0
BITMAP
E070
E070
E070
E070
E070
E070
FFF0
FFF0
FFF0
E070
E070
E070
E070
E070
E070
ENDCHAR
STARTCHAR 0049
ENCODING 73
SWIDTH 288 0
DWIDTH 6 0
BBX 3 15 1 0
BITMAP
E0
E0
E0
E0
E0
E0
E0
E0
E0
E0
E0
E0
E0
E0
E0
ENDCHAR
STARTCHAR 004A
ENCODING 74
SWIDTH 576 0
DWIDTH 12 0
BBX 10 15 0 0
BITMAP
01C0
01C0
01C0
01C0
01C0
01C0
01C0
01C0
01C0
E1C0
E1C0
73C0
7FC0
3F80
1F00
ENDCHAR
STARTCHAR 004B
ENCODING 75
SWIDTH 720 0
DWIDTH 15 0
BBX 13 15 2 0
BITMAP
E0F0
E1E0
E3C0
E780
EF00
FE00
FF00
FF00
F780
E3C0
E1C0
E1E0
E0F0
E0F0
E078
ENDCHAR
STARTCHAR 004C
ENCODING 76
SWIDTH 624 0
DWIDTH 13 0
BBX 10 15 2 0
BITMAP
E000
E000
E000
E000
E000
E000
E000
E000
E000
E000
E000
E000
FFC0
FFC0
FFC0
ENDCHAR
STARTCHAR 004D
ENCODING 77
SWIDTH 864 0
DWIDTH 18 0
BBX 15 15 1 0
BITMAP
F83E
F83E
FC3E
FC3E
EC7E
EC7E
EE6E
EEEE
E6EE
E7EE
E7CE
E7CE
E3CE
E3CE
E38E
ENDCHAR
STARTCHAR 004E
ENCODING 78
SWIDTH 720 0
DWIDTH 15 0
BBX 11 15 2 0
BITMAP
E060
E060
F060
F860
F860
DC60
DC60
CE60
C760
C760
C3E0
C3E0
C1E0
C0E0
C0E0
ENDCHAR
STARTCHAR 004F
ENCODING 79
SWIDTH 768 0
DWIDTH 16 0
BBX 14 15 1 0
BITMAP
0FC0
3FF0
7FF8
787C
F01C
E01C
E01C
E01C
E01C
E01C
F01C
787C
7FF8
3FF0
0FC0
ENDCHAR
STARTCHAR 0050
ENCODING 80
SWIDTH 672 0
DWIDTH 14 0
BBX 11 15 2 0
BITMAP
FF80
FFC0
FFE0
E1E0
E0E0
E1E0
FFE0
FFC0
FF80
E000
E000
E000
E000
E000
E000
ENDCHAR
STARTCHAR 0051
ENCODING 81
SWIDTH 768 0
DWIDTH 16 0
BBX 15 16 1 -1
BITMAP
0FC0
3FF0
7FF8
787C
F01C
E01C
E01C
E01C
E01C
E11C
F1FC
78FC
7FF8
3FFC
0FDE
0004
ENDCHAR
STARTCHAR 0052
ENCODING 82
SWIDTH 720 0
DWIDTH 15 0
BBX 13 15 2 0
BITMAP
FFC0
FFE0
FFE0
E0F0
E070
E0F0
FFE0
FFC0
FF00
E780
E3C0
E1E0
E0E0
E0F0
E078
ENDCHAR
STARTCHAR 0053
ENCODING 83
SWIDTH 672 0
DWIDTH 14 0
BBX 12 15 1 0
BITMAP
1F80
7FC0
7FE0
F0E0
E0F0
F000
7F00
3FC0
0FE0
00F0
E070
F0F0
7FF0
7FE0
1F80
ENDCHAR
STARTCHAR 0054
ENCODING 84
SWIDTH 624 0
DWIDTH 13 0
BBX 12 15 0 0
BITMAP
FFF0
FFF0
FFF0
0700
0700
0700
0700
0700
0700
0700
0700
0700
0700
0700
0700
ENDCHAR
STARTCHAR 0055
ENCODING 85
SWIDTH 720 0
DWIDTH 15 0
BBX 12 15 2 0
BITMAP
E0F0
E0F0
E0F0
E0F0
E0F0
E0F0
E0F0
E0F0
E0E0
E0E0
E0E0
F0E0
FFE0
7FC0
3F80
ENDCHAR
STARTCHAR 0056
ENCODING 86
SWIDTH 672 0
DWIDTH 14 0
BBX 14 15 0 0
BITMAP
E01C
7038
7038
7038
3870
3870
3C70
1CE0
1CE0
1EE0
0FC0
0FC0
0FC0
0780
0780
ENDCHAR
STARTCHAR 0057
ENCODING 87
SWIDTH 960 0
DWIDTH 20 0
BBX 20 15 0 0
BITMAP
E0F070
F0F0E0
70F0E0
71F8E0
71F8E0
71B8C0
3B99C0
3B9DC0
3B9DC0
3B1D80
1F0F80
1F0F80
1F0F80
1E0780
0E0700
ENDCHAR
STARTCHAR 0058
ENCODING 88
SWIDTH 672 0
DWIDTH 14 0
BBX 14 15 0 0
BITMAP
7038
7878
3CF0
1CE0
1FE0
0FC0
0780
0780
0FC0
0FC0
1FE0
3CF0
3870
7878
F03C
ENDCHAR
STARTCHAR 0059
ENCODING 89
SWIDTH 672 0
DWIDTH 14 0
BBX 14 15 0 0
BITMAP
F03C
7038
3870
3C70
1CE0
1FE0
0FC0
0780
0780
0780
0780
0780
0780
0780
0780
ENDCHAR
STARTCHAR 005A
ENCODING 90
SWIDTH 624 0
DWIDTH 13 0
BBX 12 15 0 0
BITMAP
7FF0
7FF0
7FF0
00F0
01E0
03C0
0780
0F00
1E00
3C00
3800
7000
FFF0
FFF0
FFF0
ENDCHAR
STARTCHAR 005B
ENCODING 91
SWIDTH 336 0
DWIDTH 7 0
BBX 5 19 2 -4
BITMAP
F8
F8
F8
C0
C0
C0
C0
C0
C0
C0
C0
C0
C0
C0
C0
C0
F8
F8
F8
ENDCHAR
STARTCHAR 005C
ENCODING 92
SWIDTH 288 0
DWIDTH 6 0
BBX 6 15 0 0
BITMAP
C0
C0
60
60
60
60
30
30
30
30
18
18
18
18
0C
ENDCHAR
STARTCHAR 005D
ENCODING 93
SWIDTH 336 0
DWIDTH 7 0
BBX 6 19 0 -4
BITMAP
FC
FC
FC
1C
1C
1C
1C
1C
1C
1C
1C
1C
1C
1C
1C
1C
FC
FC
FC
ENDCHAR
STARTCHAR 005E
ENCODING 94
SWIDTH 576 0
DWIDTH 12 0
BBX 10 8 1 7
BITMAP
0E00
1E00
1F00
3F00
3B00
7380
7180
E1C0
ENDCHAR
STARTCHAR 005F
ENCODING 95
SWIDTH 576 0
DWIDTH 12 0
BBX 12 2 0 -4
BITMAP
FFF0
FFF0
ENDCHAR
STARTCHAR 0060
ENCODING 96
SWIDTH 336 0
DWIDTH 7 0
BBX 4 3 1 12
BITMAP
E0
60
30
ENDCHAR
STARTCHAR 0061
ENCODING 97
SWIDTH 576 0
DWIDTH 12 0
BBX 10 11 1 0
BITMAP
3F00
7F80
E380
0780
7F80
F980
E380
E380
E380
FF80
7DC0
ENDCHAR
STARTCHAR 0062
ENCODING 98
SWIDTH 624 0
DWIDTH 13 0
BBX 11 15 1 0
BITMAP
E000
E000
E000
E000
EF80
FFC0
F1C0
F0E0
E0E0
E0E0
E0E0
F0E0
F1C0
FFC0
EF00
ENDCHAR
STARTCHAR 0063
ENCODING 99
SWIDTH 576 0
DWIDTH 12 0
BBX 10 11 1 0
BITMAP
1F00
7F80
7180
E1C0
E000
E000
E000
E1C0
71C0
7F80
1F00
ENDCHAR
STARTCHAR 0064
ENCODING 100
SWIDTH 624 0
DWIDTH 13 0
BBX 11 15 1 0
BITMAP
00E0
00E0
00E0
00E0
3CE0
7FE0
F1E0
E1E0
E0E0
E0E0
E0E0
E1E0
F1E0
7FE0
3EE0
ENDCHAR
STARTCHAR 0065
ENCODING 101
SWIDTH 576 0
DWIDTH 12 0
BBX 10 11 1 0
BITMAP
3E00
7F80
E380
E1C0
FFC0
FFC0
E000
E1C0
F380
7F00
3E00
ENDCHAR
STARTCHAR 0066
ENCODING 102
SWIDTH 336 0
DWIDTH 7 0
BBX 8 15 0 0
BITMAP
1F
3E
38
38
FE
FE
38
38
38
38
38
38
38
38
38
ENDCHAR
STARTCHAR 0067
ENCODING 103
SWIDTH 624 0
DWIDTH 13 0
BBX 10 15 1 -4
BITMAP
3CC0
7FC0
F1C0
E1C0
E0C0
E0C0
E0C0
E1C0
F1C0
7FC0
3CC0
00C0
F1C0
7FC0
3F00
ENDCHAR
STARTCHAR 0068
ENCODING 104
SWIDTH 624 0
DWIDTH 13 0
BBX 9 15 2 0
BITMAP
C000
C000
C000
C000
CF00
FF80
E380
E380
C180
C180
C180
C180
C180
C180
C180
ENDCHAR
STARTCHAR 0069
ENCODING 105
SWIDTH 288 0
DWIDTH 6 0
BBX 2 15 2 0
BITMAP
C0
C0
00
00
C0
C0
C0
C0
C0
C0
C0
C0
C0
C0
C0
ENDCHAR
STARTCHAR 006A
ENCODING 106
SWIDTH 288 0
DWIDTH 6 0
BBX 5 19 -1 -4
BITMAP
38
38
00
00
38
38
38
38
38
38
38
38
38
38
38
38
38
F8
F0
ENDCHAR
STARTCHAR 006B
ENCODING 107
SWIDTH 576 0
DWIDTH 12 0
BBX 10 15 1 0
BITMAP
E000
E000
E000
E000
E3C0
E780
EF00
EE00
FE00
FE00
F700
E700
E380
E1C0
E1C0
ENDCHAR
STARTCHAR 006C
ENCODING 108
SWIDTH 288 0
DWIDTH 6 0
BBX 2 15 2 0
BITMAP
C0
C0
C0
C0
C0
C0
C0
C0
C0
C0
C0
C0
C0
C0
C0
ENDCHAR
STARTCHAR 006D
ENCODING 109
SWIDTH 912 0
DWIDTH 19 0
BBX 16 11 1 0
BITMAP
EF1E
FFFF
F1E7
E1C7
E1C7
E1C7
E1C7
E1C7
E1C7
E1C7
E1C7
ENDCHAR
STARTCHAR 006E
ENCODING 110
SWIDTH 624 0
DWIDTH 13 0
BBX 10 11 1 0
BITMAP
E780
FFC0
F1C0
F1C0
E0C0
E0C0
E0C0
E0C0
E0C0
E0C0
E0C0
ENDCHAR
STARTCHAR 006F
ENCODING 111
SWIDTH 624 0
DWIDTH 13 0
BBX 11 11 1 0
BITMAP
1F00
7F80
71C0
E0E0
E0E0
E0E0
E0E0
E0E0
71C0
7F80
1F00
ENDCHAR
STARTCHAR 0070
ENCODING 112
SWIDTH 624 0
DWIDTH 13 0
BBX 11 15 1 -4
BITMAP
EF80
FFC0
F1C0
F0E0
E0E0
E0E0
E0E0
F0E0
F1C0
FFC0
E780
E000
E000
E000
E000
ENDCHAR
STARTCHAR 0071
ENCODING 113
SWIDTH 624 0
DWIDTH 13 0
BBX 11 15 1 -4
BITMAP
3EE0
7FE0
71E0
E1E0
E0E0
E0E0
E0E0
E1E0
71E0
7FE0
3CE0
00E0
00E0
00E0
00E0
ENDCHAR
STARTCHAR 0072
ENCODING 114
SWIDTH 384 0
DWIDTH 8 0
BBX 7 11 1 0
BITMAP
EE
FE
F0
F0
E0
E0
E0
E0
E0
E0
E0
ENDCHAR
STARTCHAR 0073
ENCODING 115
SWIDTH 576 0
DWIDTH 12 0
BBX 10 11 1 0
BITMAP
3E00
FF80
E380
E000
FC00
7F00
0F80
01C0
E1C0
FF80
3F00
ENDCHAR
STARTCHAR 0074
ENCODING 116
SWIDTH 336 0
DWIDTH 7 0
BBX 7 14 0 0
BITMAP
08
38
38
FE
FE
38
38
38
38
38
38
38
3E
1E
ENDCHAR
STARTCHAR 0075
ENCODING 117
SWIDTH 624 0
DWIDTH 13 0
BBX 10 11 1 0
BITMAP
E1C0
E1C0
E1C0
E1C0
E1C0
E1C0
E1C0
E1C0
71C0
7FC0
3CC0
ENDCHAR
STARTCHAR 0076
ENCODING 118
SWIDTH 576 0
DWIDTH 12 0
BBX 11 11 0 0
BITMAP
E0E0
70E0
70C0
31C0
39C0
3B80
1B80
1F00
0F00
0F00
0E00
ENDCHAR
STARTCHAR 0077
ENCODING 119
SWIDTH 768 0
DWIDTH 16 0
BBX 16 11 0 0
BITMAP
E1C7
63C7
73C7
73CE
73EE
376E
3F6C
3E7C
1E7C
1E38
1C38
ENDCHAR
STARTCHAR 0078
ENCODING 120
SWIDTH 576 0
DWIDTH 12 0
BBX 11 11 0 0
BITMAP
71E0
79C0
3B80
1F80
1F00
0F00
1F00
1F80
3BC0
71C0
F0E0
ENDCHAR
STARTCHAR 0079
ENCODING 121
SWIDTH 576 0
DWIDTH 12 0
BBX 11 15 0 -4
BITMAP
E0E0
70E0
70C0
71C0
39C0
3980
1B80
1F80
1F00
0F00
0F00
0E00
1E00
7C00
7800
ENDCHAR
STARTCHAR 007A
ENCODING 122
SWIDTH 528 0
DWIDTH 11 0
BBX 10 11 0 0
BITMAP
7FC0
7FC0
0780
0780
0F00
1E00
3C00
3800
7800
FFC0
FFC0
ENDCHAR
STARTCHAR 007B
ENCODING 123
SWIDTH 384 0
DWIDTH 8 0
BBX 7 19 1 -4
BITMAP
1E
3E
3E
38
38
30
30
30
70
E0
E0
70
30
30
38
38
3E
3E
1E
ENDCHAR
STARTCHAR 007C
ENCODING 124
SWIDTH 288 0
DWIDTH 6 0
BBX 2 20 2 -5
BITMAP
C0
C0
C0
C0
C0
C0
C0
C0
C0
C0
C0
C0
C0
C0
C0
C0
C0
C0
C0
C0
ENDCHAR
STARTCHAR 007D
ENCODING 125
SWIDTH 384 0
DWIDTH 8 0
BBX 7 19 0 -4
BITMAP
F0
F8
F8
38
18
18
18
18
1C
0E
0E
1C
18
18
18
38
F8
F8
F0
ENDCHAR
STARTCHAR 007E
ENCODING 126
SWIDTH 576 0
DWIDTH 12 0
BBX 11 4 1 5
BITMAP
FC20
FFE0
FFE0
87C0
ENDCHAR
STARTCHAR 00A0
ENCODING 160
SWIDTH 288 0
DWIDTH 6 0
BBX 0 0 0 0
BITMAP
ENDCHAR
STARTCHAR 00A1
ENCODING 161
SWIDTH 336 0
DWIDTH 7 0
BBX 3 15 2 -4
BITMAP
E0
E0
E0
00
40
60
60
E0
E0
E0
E0
E0
E0
E0
E0
ENDCHAR
STARTCHAR 00A2
ENCODING 162
SWIDTH 576 0
DWIDTH 12 0
BBX 10 19 1 -4
BITMAP
0100
0100
0100
0300
1F00
7F80
77C0
E5C0
E400
EC00
E800
E9C0
79C0
7F80
3F00
1000
3000
2000
2000
ENDCHAR
STARTCHAR 00A3
ENCODING 163
SWIDTH 576 0
DWIDTH 12 0
BBX 11 15 0 0
BITMAP
0F80
3FC0
39C0
70E0
7000
7000
3000
FF00
FF00
3800
3800
3000
7E20
7FE0
43E0
ENDCHAR
STARTCHAR 00A4
ENCODING 164
SWIDTH 576 0
DWIDTH 12 0
BBX 10 11 1 1
BITMAP
4080
DD80
FFC0
F380
E180
E180
6180
F380
FFC0
DD80
4080
ENDCHAR
STARTCHAR 00A5
ENCODING 165
SWIDTH 576 0
DWIDTH 12 0
BBX 11 15 0 0
BITMAP
E0E0
70E0
71C0
39C0
3B80
1F80
1F80
7FE0
7FE0
0E00
7FE0
7FE0
0E00
0E00
0E00
ENDCHAR
STARTCHAR 00A6
ENCODING 166
SWIDTH 288 0
DWIDTH 6 0
BBX 2 20 2 -5
BITMAP
C0
C0
C0
C0
C0
C0
C0
C0
C0
00
00
00
C0
C0
C0
C0
C0
C0
C0
C0
ENDCHAR
STARTCHAR 00A7
ENCODING 167
SWIDTH 576 0
DWIDTH 12 0
BBX 10 19 1 -4
BITMAP
3E00
7F00
7380
E380
7800
7C00
FF00
EF80
C3C0
E1C0
F1C0
7DC0
3F80
0F80
0780
E380
7380
7F80
1E00
ENDCHAR
STARTCHAR 00A8
ENCODING 168
SWIDTH 336 0
DWIDTH 7 0
BBX 7 2 0 13
BITMAP
EE
EE
ENDCHAR
STARTCHAR 00A9
ENCODING 169
SWIDTH 720 0
DWIDTH 15 0
BBX 16 15 0 0
BITMAP
07E0
1FF8
383C
600C
43C6
CC62
CC03
8C03
CC03
CC62
43C6
600C
383C
1FF0
07E0
ENDCHAR
STARTCHAR 00AA
ENCODING 170
SWIDTH 384 0
DWIDTH 8 0
BBX 7 8 0 7
BITMAP
3C
7E
06
3E
76
E6
FE
7E
ENDCHAR
STARTCHAR 00AB
ENCODING 171
SWIDTH 576 0
DWIDTH 12 0
BBX 9 10 1 1
BITMAP
1980
3B80
3300
7700
EE00
EE00
7700
3300
3B80
1980
ENDCHAR
STARTCHAR 00AC
ENCODING 172
SWIDTH 576 0
DWIDTH 12 0
BBX 10 8 1 3
BITMAP
FFC0
FFC0
FFC0
00C0
00C0
00C0
00C0
00C0
ENDCHAR
STARTCHAR 00AD
ENCODING 173
SWIDTH 336 0
DWIDTH 7 0
BBX 6 3 1 4
BITMAP
FC
FC
FC
ENDCHAR
STARTCHAR 00AE
ENCODING 174
SWIDTH 720 0
DWIDTH 15 0
BBX 16 15 0 0
BITMAP
07E0
1FF8
383C
600C
4FC6
CC62
CC63
8FC3
CCC3
CCC2
4C66
600C
383C
1FF0
07E0
ENDCHAR
STARTCHAR 00AF
ENCODING 175
SWIDTH 576 0
DWIDTH 12 0
BBX 12 2 0 16
BITMAP
FFF0
FFF0
ENDCHAR
STARTCHAR 00B0
ENCODING 176
SWIDTH 384 0
DWIDTH 8 0
BBX 6 7 1 8
BITMAP
78
FC
CC
C4
CC
FC
78
ENDCHAR
STARTCHAR 00B1
ENCODING 177
SWIDTH 576 0
DWIDTH 12 0
BBX 10 15 1 0
BITMAP
1C00
1C00
1C00
1C00
FFC0
FFC0
FFC0
1C00
1C00
1C00
1C00
0000
FFC0
FFC0
FFC0
ENDCHAR
STARTCHAR 00B2
ENCODING 178
SWIDTH 336 0
DWIDTH 7 0
BBX 6 8 0 7
BITMAP
3C
7C
6C
0C
18
30
7C
FC
ENDCHAR
STARTCHAR 00B3
ENCODING 179
SWIDTH 336 0
DWIDTH 7 0
BBX 7 8 0 7
BITMAP
38
7C
4C
18
0C
CE
7C
38
ENDCHAR
STARTCHAR 00B4
ENCODING 180
SWIDTH 336 0
DWIDTH 7 0
BBX 4 3 2 12
BITMAP
70
60
C0
ENDCHAR
STARTCHAR 00B5
ENCODING 181
SWIDTH 576 0
DWIDTH 12 0
BBX 10 15 1 -4
BITMAP
E1C0
E1C0
E1C0
E1C0
E1C0
E1C0
E1C0
E1C0
F3C0
FFC0
EFC0
E000
E000
E000
E000
ENDCHAR
STARTCHAR 00B6
ENCODING 182
SWIDTH 576 0
DWIDTH 12 0
BBX 12 19 0 -4
BITMAP
3FF0
7FF0
FEC0
FEC0
FEC0
FEC0
7EC0
3EC0
0EC0
0EC0
0EC0
0EC0
0EC0
0EC0
0EC0
0EC0
0EC0
0EC0
0EC0
ENDCHAR
STARTCHAR 00B7
ENCODING 183
SWIDTH 336 0
DWIDTH 7 0
BBX 3 3 2 6
BITMAP
E0
E0
E0
ENDCHAR
STARTCHAR 00B8
ENCODING 184
SWIDTH 336 0
DWIDTH 7 0
BBX 6 4 0 -4
BITMAP
38
0C
0C
F8
ENDCHAR
STARTCHAR 00B9
ENCODING 185
SWIDTH 336 0
DWIDTH 7 0
BBX 4 8 1 7
BITMAP
30
70
F0
B0
30
30
30
30
ENDCHAR
STARTCHAR 00BA
ENCODING 186
SWIDTH 384 0
DWIDTH 8 0
BBX 7 8 0 7
BITMAP
3C
7E
E6
C6
C6
E6
7E
3C
ENDCHAR
STARTCHAR 00BB
ENCODING 187
SWIDTH 576 0
DWIDTH 12 0
BBX 9 10 1 1
BITMAP
EE00
6600
7700
3B80
3B80
1980
3B80
7700
6600
EE00
ENDCHAR
STARTCHAR 00BC
ENCODING 188
SWIDTH 864 0
DWIDTH 18 0
BBX 16 15 1 0
BITMAP
3018
7030
F030
B060
3040
30C0
3080
3186
030E
021E
0636
043F
0C3F
1806
1006
ENDCHAR
STARTCHAR 00BD
ENCODING 189
SWIDTH 864 0
DWIDTH 18 0
BBX 16 15 1 0
BITMAP
3018
7030
F030
B060
3040
30C0
3080
319E
033F
0233
0603
0406
0C18
183F
103F
ENDCHAR
STARTCHAR 00BE
ENCODING 190
SWIDTH 864 0
DWIDTH 18 0
BBX 17 15 0 0
BITMAP
380C00
7C0800
4C1800
181000
0C3000
CE6000
7C4000
38C300
008700
018F00
031B00
021F80
061F80
040300
0C0300
ENDCHAR
STARTCHAR 00BF
ENCODING 191
SWIDTH 624 0
DWIDTH 13 0
BBX 11 15 1 -4
BITMAP
0E00
0E00
0E00
0000
0E00
0E00
1C00
3C00
7800
E000
E000
E0E0
F1C0
7FC0
1F00
ENDCHAR
STARTCHAR 00C0
ENCODING 192
SWIDTH 720 0
DWIDTH 15 0
BBX 15 19 0 0
BITMAP
0700
0300
0180
0000
0380
07C0
07C0
0EC0
0EE0
0EE0
1C70
1C70
1C70
3FF8
3FF8
7FFC
701C
701C
E00E
ENDCHAR
STARTCHAR 00C1
ENCODING 193
SWIDTH 720 0
DWIDTH 15 0
BBX 15 19 0 0
BITMAP
01C0
0180
0300
0000
0380
07C0
07C0
0EC0
0EE0
0EE0
1C70
1C70
1C70
3FF8
3FF8
7FFC
701C
701C
E00E
ENDCHAR
STARTCHAR 00C2
ENCODING 194
SWIDTH 720 0
DWIDTH 15 0
BBX 15 19 0 0
BITMAP
0380
06C0
0EE0
0000
0380
07C0
07C0
0EC0
0EE0
0EE0
1C70
1C70
1C70
3FF8
3FF8
7FFC
701C
701C
E00E
ENDCHAR
STARTCHAR 00C3
ENCODING 195
SWIDTH 720 0
DWIDTH 15 0
BBX 15 19 0 0
BITMAP
0620
0FE0
09C0
0000
0380
07C0
07C0
0EC0
0EE0
0EE0
1C70
1C70
1C70
3FF8
3FF8
7FFC
701C
701C
E00E
ENDCHAR
STARTCHAR 00C4
ENCODING 196
SWIDTH 720 0
DWIDTH 15 0
BBX 15 18 0 0
BITMAP
0EE0
0EE0
0000
0380
07C0
07C0
0EC0
0EE0
0EE0
1C70
1C70
1C70
3FF8
3FF8
7FFC
701C
701C
E00E
ENDCHAR
STARTCHAR 00C5
ENCODING 197
SWIDTH 720 0
DWIDTH 15 0
BBX 15 18 0 0
BITMAP
0380
0280
0280
0380
07C0
07C0
0EC0
0EE0
0EE0
1C70
1C70
1C70
3FF8
3FF8
7FFC
701C
701C
E00E
ENDCHAR
STARTCHAR 00C6
ENCODING 198
SWIDTH 1008 0
DWIDTH 21 0
BBX 21 15 -1 0
BITMAP
01FFF8
03FFF8
03BFF8
073800
073800
063FF0
0E3FF0
0C3FF0
1FF800
1FF800
3FF800
383800
703FF8
703FF8
F03FF8
ENDCHAR
STARTCHAR 00C7
ENCODING 199
SWIDTH 720 0
DWIDTH 15 0
BBX 13 19 1 -4
BITMAP
0FC0
3FF0
3FF0
7878
F030
E000
E000
E000
E000
E000
F030
7878
7FF0
3FF0
0FC0
0700
0180
0180
1F00
ENDCHAR
STARTCHAR 00C8
ENCODING 200
SWIDTH 672 0
DWIDTH 14 0
BBX 11 19 2 0
BITMAP
1C00
0C00
0600
0000
FFE0
FFE0
FFE0
E000
E000
E000
FFC0
FFC0
FFC0
E000
E000
E000
FFE0
FFE0
FFE0
ENDCHAR
STARTCHAR 00C9
ENCODING 201
SWIDTH 672 0
DWIDTH 14 0
BBX 11 19 2 0
BITMAP
0E00
0C00
1800
0000
FFE0
FFE0
FFE0
E000
E000
E000
FFC0
FFC0
FFC0
E000
E000
E000
FFE0
FFE0
FFE0
ENDCHAR
STARTCHAR 00CA
ENCODING 202
SWIDTH 672 0
DWIDTH 14 0
BBX 11 19 2 0
BITMAP
1C00
3600
7700
0000
FFE0
FFE0
FFE0
E000
E000
E000
FFC0
FFC0
FFC0
E000
E000
E000
FFE0
FFE0
FFE0
ENDCHAR
STARTCHAR 00CB
ENCODING 203
SWIDTH 672 0
DWIDTH 14 0
BBX 11 18 2 0
BITMAP
3B80
3B80
0000
FFE0
FFE0
FFE0
E000
E000
E000
FFC0
FFC0
FFC0
E000
E000
E000
FFE0
FFE0
FFE0
ENDCHAR
STARTCHAR 00CC
ENCODING 204
SWIDTH 288 0
DWIDTH 6 0
BBX 4 19 0 0
BITMAP
E0
60
30
00
70
70
70
70
70
70
70
70
70
70
70
70
70
70
70
ENDCHAR
STARTCHAR 00CD
ENCODING 205
SWIDTH 288 0
DWIDTH 6 0
BBX 4 19 1 0
BITMAP
70
60
C0
00
E0
E0
E0
E0
E0
E0
E0
E0
E0
E0
E0
E0
E0
E0
E0
ENDCHAR
STARTCHAR 00CE
ENCODING 206
SWIDTH 288 0
DWIDTH 6 0
BBX 7 19 0 0
BITMAP
38
6C
EE
00
70
70
70
70
70
70
70
70
70
70
70
70
70
70
70
ENDCHAR
STARTCHAR 00CF
ENCODING 207
SWIDTH 288 0
DWIDTH 6 0
BBX 7 18 -1 0
BITMAP
EE
EE
00
38
38
38
38
38
38
38
38
38
38
38
38
38
38
38
ENDCHAR
STARTCHAR 00D0
ENCODING 208
SWIDTH 720 0
DWIDTH 15 0
BBX 14 15 0 0
BITMAP
3FE0
3FF0
3FF8
3878
383C
381C
FF1C
FF1C
381C
381C
381C
3838
3FF8
3FF0
3FC0
ENDCHAR
STARTCHAR 00D1
ENCODING 209
SWIDTH 720 0
DWIDTH 15 0
BBX 11 19 2 0
BITMAP
1880
3F80
2700
0000
E060
E060
F060
F860
F860
DC60
DC60
CE60
C760
C760
C3E0
C3E0
C1E0
C0E0
C0E0
ENDCHAR
STARTCHAR 00D2
ENCODING 210
SWIDTH 768 0
DWIDTH 16 0
BBX 14 19 1 0
BITMAP
0700
0300
0180
0000
0FC0
3FF0
7FF8
787C
F01C
E01C
E01C
E01C
E01C
E01C
F01C
787C
7FF8
3FF0
0FC0
ENDCHAR
STARTCHAR 00D3
ENCODING 211
SWIDTH 768 0
DWIDTH 16 0
BBX 14 19 1 0
BITMAP
0380
0300
0600
0000
0FC0
3FF0
7FF8
787C
F01C
E01C
E01C
E01C
E01C
E01C
F01C
787C
7FF8
3FF0
0FC0
ENDCHAR
STARTCHAR 00D4
ENCODING 212
SWIDTH 768 0
DWIDTH 16 0
BBX 14 19 1 0
BITMAP
0380
06C0
0EE0
0000
0FC0
3FF0
7FF8
787C
F01C
E01C
E01C
E01C
E01C
E01C
F01C
787C
7FF8
3FF0
0FC0
ENDCHAR
STARTCHAR 00D5
ENCODING 213
SWIDTH 768 0
DWIDTH 16 0
BBX 14 19 1 0
BITMAP
0620
0FE0
09C0
0000
0FC0
3FF0
7FF8
787C
F01C
E01C
E01C
E01C
E01C
E01C
F01C
787C
7FF8
3FF0
0FC0
ENDCHAR
STARTCHAR 00D6
ENCODING 214
SWIDTH 768 0
DWIDTH 16 0
BBX 14 18 1 0
BITMAP
0EE0
0EE0
0000
0FC0
3FF0
7FF8
787C
F01C
E01C
E01C
E01C
E01C
E01C
F01C
787C
7FF8
3FF0
0FC0
ENDCHAR
STARTCHAR 00D7
ENCODING 215
SWIDTH 576 0
DWIDTH 12 0
BBX 10 10 1 2
BITMAP
0080
E1C0
7380
3F00
1E00
1E00
3F00
7380
E1C0
4080
ENDCHAR
STARTCHAR 00D8
ENCODING 216
SWIDTH 768 0
DWIDTH 16 0
BBX 15 15 1 1
BITMAP
0FCE
3FFC
7FF8
783C
F07C
E0DC
E19C
E31C
E61C
EC1C
FC3C
787C
7FF8
7FF0
CFC0
ENDCHAR
STARTCHAR 00D9
ENCODING 217
SWIDTH 720 0
DWIDTH 15 0
BBX 12 19 2 0
BITMAP
1C00
0C00
0600
0000
E0F0
E0F0
E0F0
E0F0
E0F0
E0F0
E0F0
E0F0
E0E0
E0E0
E0E0
F0E0
FFE0
7FC0
3F80
ENDCHAR
STARTCHAR 00DA
ENCODING 218
SWIDTH 720 0
DWIDTH 15 0
BBX 12 19 2 0
BITMAP
0700
0600
0C00
0000
E0F0
E0F0
E0F0
E0F0
E0F0
E0F0
E0F0
E0F0
E0E0
E0E0
E0E0
F0E0
FFE0
7FC0
3F80
ENDCHAR
STARTCHAR 00DB
ENCODING 219
SWIDTH 720 0
DWIDTH 15 0
BBX 12 19 2 0
BITMAP
0E00
1B00
3B80
0000
E0F0
E0F0
E0F0
E0F0
E0F0
E0F0
E0F0
E0F0
E0E0
E0E0
E0E0
F0E0
FFE0
7FC0
3F80
ENDCHAR
STARTCHAR 00DC
ENCODING 220
SWIDTH 720 0
DWIDTH 15 0
BBX 12 18 2 0
BITMAP
3B80
3B80
0000
E0F0
E0F0
E0F0
E0F0
E0F0
E0F0
E0F0
E0F0
E0E0
E0E0
E0E0
F0E0
FFE0
7FC0
3F80
ENDCHAR
STARTCHAR 00DD
ENCODING 221
SWIDTH 672 0
DWIDTH 14 0
BBX 14 19 0 0
BITMAP
0380
0300
0600
0000
F03C
7038
3870
3C70
1CE0
1FE0
0FC0
0780
0780
0780
0780
0780
0780
0780
0780
ENDCHAR
STARTCHAR 00DE
ENCODING 222
SWIDTH 672 0
DWIDTH 14 0
BBX 11 15 2 0
BITMAP
E000
E000
E000
FF80
FFC0
FFE0
E1E0
E0E0
E1E0
FFE0
FFC0
FF80
E000
E000
E000
ENDCHAR
STARTCHAR 00DF
ENCODING 223
SWIDTH 624 0
DWIDTH 13 0
BBX 11 15 1 0
BITMAP
3E00
7F80
7380
6380
E380
E700
E700
E700
E780
E3C0
E1E0
E0E0
E4E0
EFE0
E380
ENDCHAR
STARTCHAR 00E0
ENCODING 224
SWIDTH 576 0
DWIDTH 12 0
BBX 10 16 1 0
BITMAP
3800
1800
0C00
0000
0000
3F00
7F80
E380
0780
7F80
F980
E380
E380
E380
FF80
7DC0
ENDCHAR
STARTCHAR 00E1
ENCODING 225
SWIDTH 576 0
DWIDTH 12 0
BBX 10 16 1 0
BITMAP
0E00
0C00
1800
0000
0000
3F00
7F80
E380
0780
7F80
F980
E380
E380
E380
FF80
7DC0
ENDCHAR
STARTCHAR 00E2
ENCODING 226
SWIDTH 576 0
DWIDTH 12 0
BBX 10 16 1 0
BITMAP
1C00
3600
7700
0000
0000
3F00
7F80
E380
0780
7F80
F980
E380
E380
E380
FF80
7DC0
ENDCHAR
STARTCHAR 00E3
ENCODING 227
SWIDTH 576 0
DWIDTH 12 0
BBX 10 16 1 0
BITMAP
3100
7F00
4E00
0000
0000
3F00
7F80
E380
0780
7F80
F980
E380
E380
E380
FF80
7DC0
ENDCHAR
STARTCHAR 00E4
ENCODING 228
SWIDTH 576 0
DWIDTH 12 0
BBX 10 15 1 0
BITMAP
7700
7700
0000
0000
3F00
7F80
E380
0780
7F80
F980
E380
E380
E380
FF80
7DC0
ENDCHAR
STARTCHAR 00E5
ENCODING 229
SWIDTH 576 0
DWIDTH 12 0
BBX 10 17 1 0
BITMAP
1C00
1400
1400
1C00
0000
0000
3F00
7F80
E380
0780
7F80
F980
E380
E380
E380
FF80
7DC0
ENDCHAR
STARTCHAR 00E6
ENCODING 230
SWIDTH 912 0
DWIDTH 19 0
BBX 17 11 1 0
BITMAP
3F7C00
7FFE00
E3C700
01C300
07FF80
7FFF80
F1C000
E1C300
E3C700
FFFE00
7C7C00
ENDCHAR
STARTCHAR 00E7
ENCODING 231
SWIDTH 576 0
DWIDTH 12 0
BBX 10 15 1 -4
BITMAP
1F00
7F80
7180
E1C0
E000
E000
E000
E1C0
71C0
7F80
1F00
0E00
0300
0300
3E00
ENDCHAR
STARTCHAR 00E8
ENCODING 232
SWIDTH 576 0
DWIDTH 12 0
BBX 10 16 1 0
BITMAP
3800
1800
0C00
0000
0000
3E00
7F80
E380
E1C0
FFC0
FFC0
E000
E1C0
F380
7F00
3E00
ENDCHAR
STARTCHAR 00E9
ENCODING 233
SWIDTH 576 0
DWIDTH 12 0
BBX 10 16 1 0
BITMAP
0E00
0C00
1800
0000
0000
3E00
7F80
E380
E1C0
FFC0
FFC0
E000
E1C0
F380
7F00
3E00
ENDCHAR
STARTCHAR 00EA
ENCODING 234
SWIDTH 576 0
DWIDTH 12 0
BBX 10 16 1 0
BITMAP
1C00
3600
7700
0000
0000
3E00
7F80
E380
E1C0
FFC0
FFC0
E000
E1C0
F380
7F00
3E00
ENDCHAR
STARTCHAR 00EB
ENCODING 235
SWIDTH 576 0
DWIDTH 12 0
BBX 10 15 1 0
BITMAP
7700
7700
0000
0000
3E00
7F80
E380
E1C0
FFC0
FFC0
E000
E1C0
F380
7F00
3E00
ENDCHAR
STARTCHAR 00EC
ENCODING 236
SWIDTH 288 0
DWIDTH 6 0
BBX 4 16 0 0
BITMAP
E0
60
30
00
00
70
70
70
70
70
70
70
70
70
70
70
ENDCHAR
STARTCHAR 00ED
ENCODING 237
SWIDTH 288 0
DWIDTH 6 0
BBX 4 16 1 0
BITMAP
70
60
C0
00
00
E0
E0
E0
E0
E0
E0
E0
E0
E0
E0
E0
ENDCHAR
STARTCHAR 00EE
ENCODING 238
SWIDTH 288 0
DWIDTH 6 0
BBX 7 16 -1 0
BITMAP
38
6C
EE
00
00
38
38
38
38
38
38
38
38
38
38
38
ENDCHAR
STARTCHAR 00EF
ENCODING 239
SWIDTH 288 0
DWIDTH 6 0
BBX 7 15 -1 0
BITMAP
EE
EE
00
00
38
38
38
38
38
38
38
38
38
38
38
ENDCHAR
STARTCHAR 00F0
ENCODING 240
SWIDTH 624 0
DWIDTH 13 0
BBX 11 15 1 0
BITMAP
1D80
0E00
1B00
0380
1FC0
7FC0
71E0
E0E0
E0E0
E0E0
E0E0
E0E0
71C0
7F80
1F00
ENDCHAR
STARTCHAR 00F1
ENCODING 241
SWIDTH 624 0
DWIDTH 13 0
BBX 10 16 1 0
BITMAP
1880
3F80
2700
0000
0000
E780
FFC0
F1C0
F1C0
E0C0
E0C0
E0C0
E0C0
E0C0
E0C0
E0C0
ENDCHAR
STARTCHAR 00F2
ENCODING 242
SWIDTH 624 0
DWIDTH 13 0
BBX 11 16 1 0
BITMAP
1C00
0C00
0600
0000
0000
1F00
7F80
71C0
E0E0
E0E0
E0E0
E0E0
E0E0
71C0
7F80
1F00
ENDCHAR
STARTCHAR 00F3
ENCODING 243
SWIDTH 624 0
DWIDTH 13 0
BBX 11 16 1 0
BITMAP
0700
0600
0C00
0000
0000
1F00
7F80
71C0
E0E0
E0E0
E0E0
E0E0
E0E0
71C0
7F80
1F00
ENDCHAR
STARTCHAR 00F4
ENCODING 244
SWIDTH 624 0
DWIDTH 13 0
BBX 11 16 1 0
BITMAP
0E00
1B00
3B80
0000
0000
1F00
7F80
71C0
E0E0
E0E0
E0E0
E0E0
E0E0
71C0
7F80
1F00
ENDCHAR
STARTCHAR 00F5
ENCODING 245
SWIDTH 624 0
DWIDTH 13 0
BBX 11 16 1 0
BITMAP
1880
3F80
2700
0000
0000
1F00
7F80
71C0
E0E0
E0E0
E0E0
E0E0
E0E0
71C0
7F80
1F00
ENDCHAR
STARTCHAR 00F6
ENCODING 246
SWIDTH 624 0
DWIDTH 13 0
BBX 11 15 1 0
BITMAP
3B80
3B80
0000
0000
1F00
7F80
71C0
E0E0
E0E0
E0E0
E0E0
E0E0
71C0
7F80
1F00
ENDCHAR
STARTCHAR 00F7
ENCODING 247
SWIDTH 576 0
DWIDTH 12 0
BBX 10 11 1 2
BITMAP
1C00
1C00
1C00
0000
FFC0
FFC0
FFC0
0000
1C00
1C00
1C00
ENDCHAR
STARTCHAR 00F8
ENCODING 248
SWIDTH 624 0
DWIDTH 13 0
BBX 11 11 1 1
BITMAP
1F60
3FC0
71C0
E3E0
E6E0
E6E0
ECE0
F8E0
71C0
7F80
DF00
ENDCHAR
STARTCHAR 00F9
ENCODING 249
SWIDTH 624 0
DWIDTH 13 0
BBX 10 16 1 0
BITMAP
1C00
0C00
0600
0000
0000
E1C0
E1C0
E1C0
E1C0
E1C0
E1C0
E1C0
E1C0
71C0
7FC0
3CC0
ENDCHAR
STARTCHAR 00FA
ENCODING 250
SWIDTH 624 0
DWIDTH 13 0
BBX 10 16 1 0
BITMAP
0700
0600
0C00
0000
0000
E1C0
E1C0
E1C0
E1C0
E1C0
E1C0
E1C0
E1C0
71C0
7FC0
3CC0
ENDCHAR
STARTCHAR 00FB
ENCODING 251
SWIDTH 624 0
DWIDTH 13 0
BBX 10 16 1 0
BITMAP
0E00
1B00
3B80
0000
0000
E1C0
E1C0
E1C0
E1C0
E1C0
E1C0
E1C0
E1C0
71C0
7FC0
3CC0
ENDCHAR
STARTCHAR 00FC
ENCODING 252
SWIDTH 624 0
DWIDTH 13 0
BBX 10 15 1 0
BITMAP
3B80
3B80
0000
0000
E1C0
E1C0
E1C0
E1C0
E1C0
E1C0
E1C0
E1C0
71C0
7FC0
3CC0
ENDCHAR
STARTCHAR 00FD
ENCODING 253
SWIDTH 576 0
DWIDTH 12 0
BBX 11 20 0 -4
BITMAP
0700
0600
0C00
0000
0000
E0E0
70E0
70C0
71C0
39C0
3980
1B80
1F80
1F00
0F00
0F00
0E00
1E00
7C00
7800
ENDCHAR
STARTCHAR 00FE
ENCODING 254
SWIDTH 624 0
DWIDTH 13 0
BBX 11 19 1 -4
BITMAP
E000
E000
E000
E000
E780
FFC0
F1C0
F0E0
E0E0
E0E0
E0E0
F0E0
F1C0
FFC0
E780
E000
E000
E000
E000
ENDCHAR
STARTCHAR 00FF
ENCODING 255
SWIDTH 576 0
DWIDTH 12 0
BBX 11 19 0 -4
BITMAP
3B80
3B80
0000
0000
E0E0
70E0
70C0
71C0
39C0
3980
1B80
1F80
1F00
0F00
0F00
0E00
1E00
7C00
7800
ENDCHAR
STARTCHAR 0100
ENCODING 256
SWIDTH 720 0
DWIDTH 15 0
BBX 15 18 0 0
BITMAP
0FE0
0FE0
0000
0380
07C0
07C0
0EC0
0EE0
0EE0
1C70
1C70
1C70
3FF8
3FF8
7FFC
701C
701C
E00E
ENDCHAR
STARTCHAR 0101
ENCODING 257
SWIDTH 576 0
DWIDTH 12 0
BBX 10 15 1 0
BITMAP
7F00
7F00
0000
0000
3F00
7F80
E380
0780
7F80
F980
E380
E380
E380
FF80
7DC0
ENDCHAR
STARTCHAR 0102
ENCODING 258
SWIDTH 720 0
DWIDTH 15 0
BBX 15 19 0 0
BITMAP
0C60
07C0
0380
0000
0380
07C0
07C0
0EC0
0EE0
0EE0
1C70
1C70
1C70
3FF8
3FF8
7FFC
701C
701C
E00E
ENDCHAR
STARTCHAR 0103
ENCODING 259
SWIDTH 576 0
DWIDTH 12 0
BBX 10 16 1 0
BITMAP
6300
3E00
1C00
0000
0000
3F00
7F80
E380
0780
7F80
F980
E380
E380
E380
FF80
7DC0
ENDCHAR
STARTCHAR 0104
ENCODING 260
SWIDTH 720 0
DWIDTH 15 0
BBX 15 19 0 -4
BITMAP
0380
07C0
07C0
0EC0
0EE0
0EE0
1C70
1C70
1C70
3FF8
3FF8
7FFC
701C
701C
E00E
000C
000C
000E
000E
ENDCHAR
STARTCHAR 0105
ENCODING 261
SWIDTH 576 0
DWIDTH 12 0
BBX 10 15 1 -4
BITMAP
3F00
7F80
E380
0780
7F80
F980
E380
E380
E380
FF80
7DC0
0180
0180
01C0
01C0
ENDCHAR
STARTCHAR 0106
ENCODING 262
SWIDTH 720 0
DWIDTH 15 0
BBX 13 19 1 0
BITMAP
0380
0300
0600
0000
0FC0
3FF0
3FF0
7878
F030
E000
E000
E000
E000
E000
F030
7878
7FF0
3FF0
0FC0
ENDCHAR
STARTCHAR 0107
ENCODING 263
SWIDTH 576 0
DWIDTH 12 0
BBX 10 16 1 0
BITMAP
0700
0600
0C00
0000
0000
1F00
7F80
7180
E1C0
E000
E000
E000
E1C0
71C0
7F80
1F00
ENDCHAR
STARTCHAR 0108
ENCODING 264
SWIDTH 720 0
DWIDTH 15 0
BBX 13 19 1 0
BITMAP
0700
0D80
1DC0
0000
0FC0
3FF0
3FF0
7878
F030
E000
E000
E000
E000
E000
F030
7878
7FF0
3FF0
0FC0
ENDCHAR
STARTCHAR 0109
ENCODING 265
SWIDTH 576 0
DWIDTH 12 0
BBX 10 16 1 0
BITMAP
1C00
3600
7700
0000
0000
1F00
7F80
7180
E1C0
E000
E000
E000
E1C0
71C0
7F80
1F00
ENDCHAR
STARTCHAR 010A
ENCODING 266
SWIDTH 720 0
DWIDTH 15 0
BBX 13 19 1 0
BITMAP
0700
0700
0700
0000
0FC0
3FF0
3FF0
7878
F030
E000
E000
E000
E000
E000
F030
7878
7FF0
3FF0
0FC0
ENDCHAR
STARTCHAR 010B
ENCODING 267
SWIDTH 576 0
DWIDTH 12 0
BBX 10 16 1 0
BITMAP
1C00
1C00
1C00
0000
0000
1F00
7F80
7180
E1C0
E000
E000
E000
E1C0
71C0
7F80
1F00
ENDCHAR
STARTCHAR 010C
ENCODING 268
SWIDTH 720 0
DWIDTH 15 0
BBX 13 19 1 0
BITMAP
1DC0
0D80
0700
0000
0FC0
3FF0
3FF0
7878
F030
E000
E000
E000
E000
E000
F030
7878
7FF0
3FF0
0FC0
ENDCHAR
STARTCHAR 010D
ENCODING 269
SWIDTH 576 0
DWIDTH 12 0
BBX 10 16 1 0
BITMAP
3B80
1B00
0E00
0000
0000
1F00
7F80
7180
E1C0
E000
E000
E000
E1C0
71C0
7F80
1F00
ENDCHAR
STARTCHAR 010E
ENCODING 270
SWIDTH 720 0
DWIDTH 15 0
BBX 12 19 2 0
BITMAP
7700
3600
1C00
0000
FF80
FFC0
FFE0
E1E0
E0F0
E070
E070
E070
E070
E070
E0F0
E0E0
FFE0
FFC0
FF00
ENDCHAR
STARTCHAR 010F
ENCODING 271
SWIDTH 720 0
DWIDTH 15 0
BBX 14 15 1 0
BITMAP
00DC
00DC
00DC
00C4
3CCC
7FC8
F1C0
E1C0
E0C0
E0C0
E0C0
E1C0
F1C0
7FC0
3EC0
ENDCHAR
STARTCHAR 0110
ENCODING 272
SWIDTH 720 0
DWIDTH 15 0
BBX 14 15 0 0
BITMAP
3FE0
3FF0
3FF8
3878
383C
381C
FF1C
FF1C
381C
381C
381C
3838
3FF8
3FF0
3FC0
ENDCHAR
STARTCHAR 0111
ENCODING 273
SWIDTH 624 0
DWIDTH 13 0
BBX 12 15 1 0
BITMAP
00E0
00E0
0FF0
00E0
3CE0
7FE0
F1E0
E1E0
E0E0
E0E0
E0E0
E1E0
F1E0
7FE0
3EE0
ENDCHAR
STARTCHAR 0112
ENCODING 274
SWIDTH 672 0
DWIDTH 14 0
BBX 11 18 2 0
BITMAP
3F80
3F80
0000
FFE0
FFE0
FFE0
E000
E000
E000
FFC0
FFC0
FFC0
E000
E000
E000
FFE0
FFE0
FFE0
ENDCHAR
STARTCHAR 0113
ENCODING 275
SWIDTH 576 0
DWIDTH 12 0
BBX 10 15 1 0
BITMAP
7F00
7F00
0000
0000
3E00
7F80
E380
E1C0
FFC0
FFC0
E000
E1C0
F380
7F00
3E00
ENDCHAR
STARTCHAR 0114
ENCODING 276
SWIDTH 672 0
DWIDTH 14 0
BBX 11 19 2 0
BITMAP
3180
1F00
0E00
0000
FFE0
FFE0
FFE0
E000
E000
E000
FFC0
FFC0
FFC0
E000
E000
E000
FFE0
FFE0
FFE0
ENDCHAR
STARTCHAR 0115
ENCODING 277
SWIDTH 576 0
DWIDTH 12 0
BBX 10 16 1 0
BITMAP
6300
3E00
1C00
0000
0000
3E00
7F80
E380
E1C0
FFC0
FFC0
E000
E1C0
F380
7F00
3E00
ENDCHAR
STARTCHAR 0116
ENCODING 278
SWIDTH 672 0
DWIDTH 14 0
BBX 11 19 2 0
BITMAP
0E00
0E00
0E00
0000
FFE0
FFE0
FFE0
E000
E000
E000
FFC0
FFC0
FFC0
E000
E000
E000
FFE0
FFE0
FFE0
ENDCHAR
STARTCHAR 0117
ENCODING 279
SWIDTH 576 0
DWIDTH 12 0
BBX 10 16 1 0
BITMAP
1C00
1C00
1C00
0000
0000
3E00
7F80
E380
E1C0
FFC0
FFC0
E000
E1C0
F380
7F00
3E00
ENDCHAR
STARTCHAR 0118
ENCODING 280
SWIDTH 672 0
DWIDTH 14 0
BBX 11 19 2 -4
BITMAP
FFE0
FFE0
FFE0
E000
E000
E000
FFC0
FFC0
FFC0
E000
E000
E000
FFE0
FFE0
FFE0
00C0
00C0
00E0
00E0
ENDCHAR
STARTCHAR 0119
ENCODING 281
SWIDTH 576 0
DWIDTH 12 0
BBX 10 15 1 -4
BITMAP
3E00
7F80
E380
E1C0
FFC0
FFC0
E000
E1C0
F380
7F00
3E00
0C00
0C00
0E00
0E00
ENDCHAR
STARTCHAR 011A
ENCODING 282
SWIDTH 672 0
DWIDTH 14 0
BBX 11 19 2 0
BITMAP
7700
3600
1C00
0000
FFE0
FFE0
FFE0
E000
E000
E000
FFC0
FFC0
FFC0
E000
E000
E000
FFE0
FFE0
FFE0
ENDCHAR
STARTCHAR 011B
ENCODING 283
SWIDTH 576 0
DWIDTH 12 0
BBX 10 16 1 0
BITMAP
7700
3600
1C00
0000
0000
3E00
7F80
E380
E1C0
FFC0
FFC0
E000
E1C0
F380
7F00
3E00
ENDCHAR
STARTCHAR 011C
ENCODING 284
SWIDTH 768 0
DWIDTH 16 0
BBX 14 19 1 0
BITMAP
0380
06C0
0EE0
0000
0FE0
1FF0
3FF8
783C
F010
E000
E000
E0FC
E0FC
E0FC
701C
783C
3FFC
1FF8
07E0
ENDCHAR
STARTCHAR 011D
ENCODING 285
SWIDTH 624 0
DWIDTH 13 0
BBX 10 20 1 -4
BITMAP
0E00
1B00
3B80
0000
0000
3CC0
7FC0
F1C0
E1C0
E0C0
E0C0
E0C0
E1C0
F1C0
7FC0
3CC0
00C0
F1C0
7FC0
3F00
ENDCHAR
STARTCHAR 011E
ENCODING 286
SWIDTH 768 0
DWIDTH 16 0
BBX 14 19 1 0
BITMAP
0C60
07C0
0380
0000
0FE0
1FF0
3FF8
783C
F010
E000
E000
E0FC
E0FC
E0FC
701C
783C
3FFC
1FF8
07E0
ENDCHAR
STARTCHAR 011F
ENCODING 287
SWIDTH 624 0
DWIDTH 13 0
BBX 10 20 1 -4
BITMAP
3180
1F00
0E00
0000
0000
3CC0
7FC0
F1C0
E1C0
E0C0
E0C0
E0C0
E1C0
F1C0
7FC0
3CC0
00C0
F1C0
7FC0
3F00
ENDCHAR
STARTCHAR 0120
ENCODING 288
SWIDTH 768 0
DWIDTH 16 0
BBX 14 19 1 0
BITMAP
0380
0380
0380
0000
0FE0
1FF0
3FF8
783C
F010
E000
E000
E0FC
E0FC
E0FC
701C
783C
3FFC
1FF8
07E0
ENDCHAR
STARTCHAR 0121
ENCODING 289
SWIDTH 624 0
DWIDTH 13 0
BBX 10 20 1 -4
BITMAP
0E00
0E00
0E00
0000
0000
3CC0
7FC0
F1C0
E1C0
E0C0
E0C0
E0C0
E1C0
F1C0
7FC0
3CC0
00C0
F1C0
7FC0
3F00
ENDCHAR
STARTCHAR 0122
ENCODING 290
SWIDTH 768 0
DWIDTH 16 0
BBX 14 19 1 -4
BITMAP
0FE0
1FF0
3FF8
783C
7010
E000
E000
E0FC
E0FC
E0FC
F01C
783C
3FFC
1FF8
0FE0
0780
00C0
00C0
0F00
ENDCHAR
STARTCHAR 0123
ENCODING 291
SWIDTH 624 0
DWIDTH 13 0
BBX 10 22 1 -4
BITMAP
0400
0C00
1800
1C00
1C00
0000
0000
3CC0
7FC0
F1C0
E1C0
E0C0
E0C0
E0C0
E1C0
F1C0
7FC0
3CC0
00C0
F1C0
7FC0
3F00
ENDCHAR
STARTCHAR 0124
ENCODING 292
SWIDTH 720 0
DWIDTH 15 0
BBX 12 19 2 0
BITMAP
0E00
1B00
3B80
0000
E070
E070
E070
E070
E070
E070
FFF0
FFF0
FFF0
E070
E070
E070
E070
E070
E070
ENDCHAR
STARTCHAR 0125
ENCODING 293
SWIDTH 624 0
DWIDTH 13 0
BBX 9 19 2 0
BITMAP
1C00
3600
7700
0000
C000
C000
C000
C000
CF00
FF80
E380
E380
C180
C180
C180
C180
C180
C180
C180
ENDCHAR
STARTCHAR 0126
ENCODING 294
SWIDTH 720 0
DWIDTH 15 0
BBX 15 15 0 0
BITMAP
381C
381C
FFFE
FFFE
381C
381C
3FFC
3FFC
3FFC
381C
381C
381C
381C
381C
381C
ENDCHAR
STARTCHAR 0127
ENCODING 295
SWIDTH 624 0
DWIDTH 13 0
BBX 11 15 0 0
BITMAP
7000
7000
FE00
7000
73C0
7FE0
78E0
78E0
7060
7060
7060
7060
7060
7060
7060
ENDCHAR
STARTCHAR 0128
ENCODING 296
SWIDTH 288 0
DWIDTH 6 0
BBX 7 19 -1 0
BITMAP
62
FE
9C
00
38
38
38
38
38
38
38
38
38
38
38
38
38
38
38
ENDCHAR
STARTCHAR 0129
ENCODING 297
SWIDTH 288 0
DWIDTH 6 0
BBX 7 16 -1 0
BITMAP
62
FE
9C
00
00
38
38
38
38
38
38
38
38
38
38
38
ENDCHAR
STARTCHAR 012A
ENCODING 298
SWIDTH 288 0
DWIDTH 6 0
BBX 7 18 -1 0
BITMAP
FE
FE
00
38
38
38
38
38
38
38
38
38
38
38
38
38
38
38
ENDCHAR
STARTCHAR 012B
ENCODING 299
SWIDTH 288 0
DWIDTH 6 0
BBX 7 15 -1 0
BITMAP
FE
FE
00
00
38
38
38
38
38
38
38
38
38
38
38
ENDCHAR
STARTCHAR 012C
ENCODING 300
SWIDTH 288 0
DWIDTH 6 0
BBX 7 19 -1 0
BITMAP
C6
7C
38
00
38
38
38
38
38
38
38
38
38
38
38
38
38
38
38
ENDCHAR
STARTCHAR 012D
ENCODING 301
SWIDTH 288 0
DWIDTH 6 0
BBX 7 16 -1 0
BITMAP
C6
7C
38
00
00
38
38
38
38
38
38
38
38
38
38
38
ENDCHAR
STARTCHAR 012E
ENCODING 302
SWIDTH 288 0
DWIDTH 6 0
BBX 3 19 1 -4
BITMAP
E0
E0
E0
E0
E0
E0
E0
E0
E0
E0
E0
E0
E0
E0
E0
C0
C0
E0
E0
ENDCHAR
STARTCHAR 012F
ENCODING 303
SWIDTH 288 0
DWIDTH 6 0
BBX 3 19 1 -4
BITMAP
E0
E0
00
00
E0
E0
E0
E0
E0
E0
E0
E0
E0
E0
E0
C0
C0
E0
E0
ENDCHAR
STARTCHAR 0130
ENCODING 304
SWIDTH 288 0
DWIDTH 6 0
BBX 3 19 1 0
BITMAP
E0
E0
E0
00
E0
E0
E0
E0
E0
E0
E0
E0
E0
E0
E0
E0
E0
E0
E0
ENDCHAR
STARTCHAR 0131
ENCODING 305
SWIDTH 288 0
DWIDTH 6 0
BBX 2 11 2 0
BITMAP
C0
C0
C0
C0
C0
C0
C0
C0
C0
C0
C0
ENDCHAR
STARTCHAR 0132
ENCODING 306
SWIDTH 768 0
DWIDTH 16 0
BBX 14 15 1 0
BITMAP
E01C
E01C
E01C
E01C
E01C
E01C
E01C
E01C
E01C
EE1C
EE1C
E73C
E7FC
E3F8
E1F0
ENDCHAR
STARTCHAR 0133
ENCODING 307
SWIDTH 576 0
DWIDTH 12 0
BBX 9 19 1 -4
BITMAP
E380
E380
0000
0000
E380
E380
E380
E380
E380
E380
E380
E380
E380
E380
E380
0380
0380
0F80
0F00
ENDCHAR
STARTCHAR 0134
ENCODING 308
SWIDTH 576 0
DWIDTH 12 0
BBX 12 19 0 0
BITMAP
01C0
0360
0770
0000
01C0
01C0
01C0
01C0
01C0
01C0
01C0
01C0
01C0
E1C0
E1C0
73C0
7FC0
3F80
1F00
ENDCHAR
STARTCHAR 0135
ENCODING 309
SWIDTH 288 0
DWIDTH 6 0
BBX 7 20 -1 -4
BITMAP
3C
3C
66
00
00
38
38
38
38
38
38
38
38
38
38
38
38
38
F8
F0
ENDCHAR
STARTCHAR 0136
ENCODING 310
SWIDTH 720 0
DWIDTH 15 0
BBX 13 19 2 -4
BITMAP
E0F0
E1E0
E3C0
E780
EF00
FE00
FF00
FF00
F780
E3C0
E1C0
E1E0
E0F0
E0F0
E078
0E00
0300
0300
3E00
ENDCHAR
STARTCHAR 0137
ENCODING 311
SWIDTH 576 0
DWIDTH 12 0
BBX 10 19 1 -4
BITMAP
E000
E000
E000
E000
E3C0
E780
EF00
EE00
FE00
FE00
F700
E700
E380
E1C0
E1C0
0E00
0300
0300
3E00
ENDCHAR
STARTCHAR 0138
ENCODING 312
SWIDTH 576 0
DWIDTH 12 0
BBX 10 11 1 0
BITMAP
E3C0
E780
E700
EE00
FE00
FE00
F700
E780
E380
E1C0
E1C0
ENDCHAR
STARTCHAR 0139
ENCODING 313
SWIDTH 624 0
DWIDTH 13 0
BBX 10 19 2 0
BITMAP
1C00
1800
3000
0000
E000
E000
E000
E000
E000
E000
E000
E000
E000
E000
E000
E000
FFC0
FFC0
FFC0
ENDCHAR
STARTCHAR 013A
ENCODING 314
SWIDTH 288 0
DWIDTH 6 0
BBX 4 19 1 0
BITMAP
70
60
C0
00
E0
E0
E0
E0
E0
E0
E0
E0
E0
E0
E0
E0
E0
E0
E0
ENDCHAR
STARTCHAR 013B
ENCODING 315
SWIDTH 624 0
DWIDTH 13 0
BBX 10 19 2 -4
BITMAP
E000
E000
E000
E000
E000
E000
E000
E000
E000
E000
E000
E000
FFC0
FFC0
FFC0
1C00
0600
0600
7C00
ENDCHAR
STARTCHAR 013C
ENCODING 316
SWIDTH 288 0
DWIDTH 6 0
BBX 6 19 -1 -4
BITMAP
38
38
38
38
38
38
38
38
38
38
38
38
38
38
38
38
0C
0C
F8
ENDCHAR
STARTCHAR 013D
ENCODING 317
SWIDTH 624 0
DWIDTH 13 0
BBX 10 15 2 0
BITMAP
E180
E180
E180
E080
E180
E100
E000
E000
E000
E000
E000
E000
FFC0
FFC0
FFC0
ENDCHAR
STARTCHAR 013E
ENCODING 318
SWIDTH 384 0
DWIDTH 8 0
BBX 6 15 2 0
BITMAP
DC
DC
DC
C4
CC
D8
C0
C0
C0
C0
C0
C0
C0
C0
C0
ENDCHAR
STARTCHAR 013F
ENCODING 319
SWIDTH 624 0
DWIDTH 13 0
BBX 10 15 2 0
BITMAP
E000
E000
E000
E000
FC00
FC00
FC00
E000
E000
E000
E000
E000
FFC0
FFC0
FFC0
ENDCHAR
STARTCHAR 0140
ENCODING 320
SWIDTH 480 0
DWIDTH 10 0
BBX 7 15 2 0
BITMAP
C0
C0
C0
C0
C0
CE
CE
CE
C0
C0
C0
C0
C0
C0
C0
ENDCHAR
STARTCHAR 0141
ENCODING 321
SWIDTH 624 0
DWIDTH 13 0
BBX 12 15 0 0
BITMAP
3800
3800
3800
3900
3E00
3800
3800
7800
B800
3800
3800
3800
3FF0
3FF0
3FF0
ENDCHAR
STARTCHAR 0142
ENCODING 322
SWIDTH 288 0
DWIDTH 6 0
BBX 6 15 0 0
BITMAP
70
70
70
70
74
78
70
70
F0
70
70
70
70
70
70
ENDCHAR
STARTCHAR 0143
ENCODING 323
SWIDTH 720 0
DWIDTH 15 0
BBX 11 19 2 0
BITMAP
0700
0600
0C00
0000
E060
E060
F060
F860
F860
DC60
DC60
CE60
C760
C760
C3E0
C3E0
C1E0
C0E0
C0E0
ENDCHAR
STARTCHAR 0144
ENCODING 324
SWIDTH 624 0
DWIDTH 13 0
BBX 10 16 1 0
BITMAP
0700
0600
0C00
0000
0000
E780
FFC0
F1C0
F1C0
E0C0
E0C0
E0C0
E0C0
E0C0
E0C0
E0C0
ENDCHAR
STARTCHAR 0145
ENCODING 325
SWIDTH 720 0
DWIDTH 15 0
BBX 11 19 2 -4
BITMAP
E060
E060
F060
F860
F860
DC60
DC60
CE60
C760
C760
C3E0
C3E0
C1E0
C0E0
C0E0
0E00
0300
0300
3E00
ENDCHAR
STARTCHAR 0146
ENCODING 326
SWIDTH 624 0
DWIDTH 13 0
BBX 10 15 1 -4
BITMAP
E780
FFC0
F1C0
F1C0
E0C0
E0C0
E0C0
E0C0
E0C0
E0C0
E0C0
0E00
0300
0300
3E00
ENDCHAR
STARTCHAR 0147
ENCODING 327
SWIDTH 720 0
DWIDTH 15 0
BBX 11 19 2 0
BITMAP
3B80
1B00
0E00
0000
E060
E060
F060
F860
F860
DC60
DC60
CE60
C760
C760
C3E0
C3E0
C1E0
C0E0
C0E0
ENDCHAR
STARTCHAR 0148
ENCODING 328
SWIDTH 624 0
DWIDTH 13 0
BBX 10 16 1 0
BITMAP
3B80
1B00
0E00
0000
0000
E780
FFC0
F1C0
F1C0
E0C0
E0C0
E0C0
E0C0
E0C0
E0C0
E0C0
ENDCHAR
STARTCHAR 0149
ENCODING 329
SWIDTH 720 0
DWIDTH 15 0
BBX 14 15 -1 0
BITMAP
E000
E000
E000
2000
6E78
CFFC
0F1C
0F1C
0E0C
0E0C
0E0C
0E0C
0E0C
0E0C
0E0C
ENDCHAR
STARTCHAR 014A
ENCODING 330
SWIDTH 720 0
DWIDTH 15 0
BBX 12 15 2 0
BITMAP
E7C0
FFE0
FFE0
F0F0
E070
E070
E070
E070
E070
E070
E070
E0F0
E3F0
E7E0
E3C0
ENDCHAR
STARTCHAR 014B
ENCODING 331
SWIDTH 624 0
DWIDTH 13 0
BBX 10 15 1 -4
BITMAP
E780
FFC0
F1C0
F1C0
E1C0
E1C0
E1C0
E1C0
E1C0
E1C0
E1C0
01C0
03C0
07C0
0780
ENDCHAR
STARTCHAR 014C
ENCODING 332
SWIDTH 768 0
DWIDTH 16 0
BBX 14 18 1 0
BITMAP
0FE0
0FE0
0000
0FC0
3FF0
7FF8
787C
F01C
E01C
E01C
E01C
E01C
E01C
F01C
787C
7FF8
3FF0
0FC0
ENDCHAR
STARTCHAR 014D
ENCODING 333
SWIDTH 624 0
DWIDTH 13 0
BBX 11 15 1 0
BITMAP
3F80
3F80
0000
0000
1F00
7F80
71C0
E0E0
E0E0
E0E0
E0E0
E0E0
71C0
7F80
1F00
ENDCHAR
STARTCHAR 014E
ENCODING 334
SWIDTH 768 0
DWIDTH 16 0
BBX 14 19 1 0
BITMAP
0C60
07C0
0380
0000
0FC0
3FF0
7FF8
787C
F01C
E01C
E01C
E01C
E01C
E01C
F01C
787C
7FF8
3FF0
0FC0
ENDCHAR
STARTCHAR 014F
ENCODING 335
SWIDTH 624 0
DWIDTH 13 0
BBX 11 16 1 0
BITMAP
3180
1F00
0E00
0000
0000
1F00
7F80
71C0
E0E0
E0E0
E0E0
E0E0
E0E0
71C0
7F80
1F00
ENDCHAR
STARTCHAR 0150
ENCODING 336
SWIDTH 768 0
DWIDTH 16 0
BBX 14 19 1 0
BITMAP
0770
0660
0CC0
0000
0FC0
3FF0
7FF8
787C
F01C
E01C
E01C
E01C
E01C
E01C
F01C
787C
7FF8
3FF0
0FC0
ENDCHAR
STARTCHAR 0151
ENCODING 337
SWIDTH 624 0
DWIDTH 13 0
BBX 11 16 1 0
BITMAP
1DC0
1980
3300
0000
0000
1F00
7F80
71C0
E0E0
E0E0
E0E0
E0E0
E0E0
71C0
7F80
1F00
ENDCHAR
STARTCHAR 0152
ENCODING 338
SWIDTH 1008 0
DWIDTH 21 0
BBX 19 15 1 0
BITMAP
1F3FE0
3FFFE0
7FFFE0
F0F000
E07000
E07FE0
E07FE0
E03FE0
E07000
E07000
E07000
F0F000
7FFFE0
3FBFE0
1F3FE0
ENDCHAR
STARTCHAR 0153
ENCODING 339
SWIDTH 960 0
DWIDTH 20 0
BBX 18 11 1 0
BITMAP
1F1E00
7FFF80
71E180
E0E1C0
E0FFC0
E0FFC0
E0E000
E0E1C0
71F380
3FFF80
1F3E00
ENDCHAR
STARTCHAR 0154
ENCODING 340
SWIDTH 720 0
DWIDTH 15 0
BBX 13 19 2 0
BITMAP
0E00
0C00
1800
0000
FFC0
FFE0
FFE0
E0F0
E070
E0F0
FFE0
FFC0
FF00
E780
E3C0
E1E0
E0E0
E0F0
E078
ENDCHAR
STARTCHAR 0155
ENCODING 341
SWIDTH 384 0
DWIDTH 8 0
BBX 7 16 1 0
BITMAP
1C
18
30
00
00
EE
FE
F0
F0
E0
E0
E0
E0
E0
E0
E0
ENDCHAR
STARTCHAR 0156
ENCODING 342
SWIDTH 720 0
DWIDTH 15 0
BBX 13 19 2 -4
BITMAP
FFC0
FFE0
FFE0
E0F0
E070
E0F0
FFE0
FFC0
FF00
E780
E3C0
E1E0
E0E0
E0F0
E078
0E00
0300
0300
3E00
ENDCHAR
STARTCHAR 0157
ENCODING 343
SWIDTH 384 0
DWIDTH 8 0
BBX 8 15 0 -4
BITMAP
77
7F
78
78
70
70
70
70
70
70
70
38
0C
0C
F8
ENDCHAR
STARTCHAR 0158
ENCODING 344
SWIDTH 720 0
DWIDTH 15 0
BBX 13 19 2 0
BITMAP
7700
3600
1C00
0000
FFC0
FFE0
FFE0
E0F0
E070
E0F0
FFE0
FFC0
FF00
E780
E3C0
E1E0
E0E0
E0F0
E078
ENDCHAR
STARTCHAR 0159
ENCODING 345
SWIDTH 384 0
DWIDTH 8 0
BBX 7 16 1 0
BITMAP
EE
6C
38
00
00
EE
FE
F0
F0
E0
E0
E0
E0
E0
E0
E0
ENDCHAR
STARTCHAR 015A
ENCODING 346
SWIDTH 672 0
DWIDTH 14 0
BBX 12 19 1 0
BITMAP
0380
0300
0600
0000
1F80
7FC0
7FE0
F0E0
E0F0
F000
7F00
3FC0
0FE0
00F0
E070
F0F0
7FF0
7FE0
1F80
ENDCHAR
STARTCHAR 015B
ENCODING 347
SWIDTH 576 0
DWIDTH 12 0
BBX 10 16 1 0
BITMAP
0700
0600
0C00
0000
0000
3E00
FF80
E380
E000
FC00
7F00
0F80
01C0
E1C0
FF80
3F00
ENDCHAR
STARTCHAR 015C
ENCODING 348
SWIDTH 672 0
DWIDTH 14 0
BBX 12 19 1 0
BITMAP
0700
0D80
1DC0
0000
1F80
7FC0
7FE0
F0E0
E0F0
F000
7F00
3FC0
0FE0
00F0
E070
F0F0
7FF0
7FE0
1F80
ENDCHAR
STARTCHAR 015D
ENCODING 349
SWIDTH 576 0
DWIDTH 12 0
BBX 10 16 1 0
BITMAP
1C00
3600
7700
0000
0000
3E00
FF80
E380
E000
FC00
7F00
0F80
01C0
E1C0
FF80
3F00
ENDCHAR
STARTCHAR 015E
ENCODING 350
SWIDTH 672 0
DWIDTH 14 0
BBX 12 19 1 -4
BITMAP
1F80
7FC0
7FE0
F0E0
E0F0
F000
7F00
3FC0
0FE0
00F0
E070
F0F0
7FF0
7FE0
1F80
0700
0180
0180
1F00
ENDCHAR
STARTCHAR 015F
ENCODING 351
SWIDTH 576 0
DWIDTH 12 0
BBX 10 15 1 -4
BITMAP
3E00
FF80
E380
E000
FC00
7F00
0F80
01C0
E1C0
FF80
3F00
0E00
0300
0300
3E00
ENDCHAR
STARTCHAR 0160
ENCODING 352
SWIDTH 672 0
DWIDTH 14 0
BBX 12 19 1 0
BITMAP
3B80
1B00
0E00
0000
1F80
7FC0
7FE0
F0E0
E0F0
F000
7F00
3FC0
0FE0
00F0
E070
F0F0
7FF0
7FE0
1F80
ENDCHAR
STARTCHAR 0161
ENCODING 353
SWIDTH 576 0
DWIDTH 12 0
BBX 10 16 1 0
BITMAP
7700
3600
1C00
0000
0000
3E00
FF80
E380
E000
FC00
7F00
0F80
01C0
E1C0
FF80
3F00
ENDCHAR
STARTCHAR 0162
ENCODING 354
SWIDTH 624 0
DWIDTH 13 0
BBX 12 19 0 -4
BITMAP
FFF0
FFF0
FFF0
0700
0700
0700
0700
0700
0700
0700
0700
0700
0700
0700
0700
0700
0180
0180
1F00
ENDCHAR
STARTCHAR 0163
ENCODING 355
SWIDTH 336 0
DWIDTH 7 0
BBX 7 18 0 -4
BITMAP
08
38
38
FE
FE
38
38
38
38
38
38
38
3E
1E
1C
06
06
7C
ENDCHAR
STARTCHAR 0164
ENCODING 356
SWIDTH 624 0
DWIDTH 13 0
BBX 12 19 0 0
BITMAP
1DC0
0D80
0700
0000
FFF0
FFF0
FFF0
0700
0700
0700
0700
0700
0700
0700
0700
0700
0700
0700
0700
ENDCHAR
STARTCHAR 0165
ENCODING 357
SWIDTH 480 0
DWIDTH 10 0
BBX 10 15 0 0
BITMAP
01C0
09C0
39C0
3840
FCC0
FC80
3800
3800
3800
3800
3800
3800
3800
3E00
1E00
ENDCHAR
STARTCHAR 0166
ENCODING 358
SWIDTH 624 0
DWIDTH 13 0
BBX 12 15 0 0
BITMAP
FFF0
FFF0
FFF0
0700
0700
0700
0700
3FE0
3FE0
0700
0700
0700
0700
0700
0700
ENDCHAR
STARTCHAR 0167
ENCODING 359
SWIDTH 336 0
DWIDTH 7 0
BBX 7 14 0 0
BITMAP
10
30
30
FC
FC
30
30
30
FC
FC
30
30
3C
3E
ENDCHAR
STARTCHAR 0168
ENCODING 360
SWIDTH 720 0
DWIDTH 15 0
BBX 12 19 2 0
BITMAP
1880
3F80
2700
0000
E0F0
E0F0
E0F0
E0F0
E0F0
E0F0
E0F0
E0F0
E0E0
E0E0
E0E0
F0E0
FFE0
7FC0
3F80
ENDCHAR
STARTCHAR 0169
ENCODING 361
SWIDTH 624 0
DWIDTH 13 0
BBX 10 16 1 0
BITMAP
1880
3F80
2700
0000
0000
E1C0
E1C0
E1C0
E1C0
E1C0
E1C0
E1C0
E1C0
71C0
7FC0
3CC0
ENDCHAR
STARTCHAR 016A
ENCODING 362
SWIDTH 720 0
DWIDTH 15 0
BBX 12 18 2 0
BITMAP
3F80
3F80
0000
E0F0
E0F0
E0F0
E0F0
E0F0
E0F0
E0F0
E0F0
E0E0
E0E0
E0E0
F0E0
FFE0
7FC0
3F80
ENDCHAR
STARTCHAR 016B
ENCODING 363
SWIDTH 624 0
DWIDTH 13 0
BBX 10 15 1 0
BITMAP
3F80
3F80
0000
0000
E1C0
E1C0
E1C0
E1C0
E1C0
E1C0
E1C0
E1C0
71C0
7FC0
3CC0
ENDCHAR
STARTCHAR 016C
ENCODING 364
SWIDTH 720 0
DWIDTH 15 0
BBX 12 19 2 0
BITMAP
3180
1F00
0E00
0000
E0F0
E0F0
E0F0
E0F0
E0F0
E0F0
E0F0
E0F0
E0E0
E0E0
E0E0
F0E0
FFE0
7FC0
3F80
ENDCHAR
STARTCHAR 016D
ENCODING 365
SWIDTH 624 0
DWIDTH 13 0
BBX 10 16 1 0
BITMAP
3180
1F00
0E00
0000
0000
E1C0
E1C0
E1C0
E1C0
E1C0
E1C0
E1C0
E1C0
71C0
7FC0
3CC0
ENDCHAR
STARTCHAR 016E
ENCODING 366
SWIDTH 720 0
DWIDTH 15 0
BBX 12 19 2 0
BITMAP
0E00
0A00
0A00
0E00
E0F0
E0F0
E0F0
E0F0
E0F0
E0F0
E0F0
E0F0
E0E0
E0E0
E0E0
F0E0
FFE0
7FC0
3F80
ENDCHAR
STARTCHAR 016F
ENCODING 367
SWIDTH 624 0
DWIDTH 13 0
BBX 10 17 1 0
BITMAP
0E00
0A00
0A00
0E00
0000
0000
E1C0
E1C0
E1C0
E1C0
E1C0
E1C0
E1C0
E1C0
71C0
7FC0
3CC0
ENDCHAR
STARTCHAR 0170
ENCODING 368
SWIDTH 720 0
DWIDTH 15 0
BBX 12 19 2 0
BITMAP
1DC0
1980
3300
0000
E0F0
E0F0
E0F0
E0F0
E0F0
E0F0
E0F0
E0F0
E0E0
E0E0
E0E0
F0E0
FFE0
7FC0
3F80
ENDCHAR
STARTCHAR 0171
ENCODING 369
SWIDTH 624 0
DWIDTH 13 0
BBX 10 16 1 0
BITMAP
1DC0
1980
3300
0000
0000
E1C0
E1C0
E1C0
E1C0
E1C0
E1C0
E1C0
E1C0
71C0
7FC0
3CC0
ENDCHAR
STARTCHAR 0172
ENCODING 370
SWIDTH 720 0
DWIDTH 15 0
BBX 12 19 2 -4
BITMAP
E0F0
E0F0
E0F0
E0F0
E0F0
E0F0
E0F0
E0F0
E0E0
E0E0
E0E0
F0E0
FFE0
7FC0
3F80
0600
0600
0700
0700
ENDCHAR
STARTCHAR 0173
ENCODING 371
SWIDTH 624 0
DWIDTH 13 0
BBX 10 15 1 -4
BITMAP
E1C0
E1C0
E1C0
E1C0
E1C0
E1C0
E1C0
E1C0
71C0
7FC0
3CC0
0180
0180
01C0
01C0
ENDCHAR
STARTCHAR 0174
ENCODING 372
SWIDTH 960 0
DWIDTH 20 0
BBX 20 19 0 0
BITMAP
00E000
01B000
03B800
000000
E0F070
F0F0E0
70F0E0
71F8E0
71F8E0
71B8C0
3B99C0
3B9DC0
3B9DC0
3B1D80
1F0F80
1F0F80
1F0F80
1E0780
0E0700
ENDCHAR
STARTCHAR 0175
ENCODING 373
SWIDTH 768 0
DWIDTH 16 0
BBX 16 16 0 0
BITMAP
01C0
0360
0770
0000
0000
E1C7
63C7
73C7
73CE
73EE
376E
3F6C
3E7C
1E7C
1E38
1C38
ENDCHAR
STARTCHAR 0176
ENCODING 374
SWIDTH 672 0
DWIDTH 14 0
BBX 14 19 0 0
BITMAP
0380
06C0
0EE0
0000
F03C
7038
3870
3C70
1CE0
1FE0
0FC0
0780
0780
0780
0780
0780
0780
0780
0780
ENDCHAR
STARTCHAR 0177
ENCODING 375
SWIDTH 576 0
DWIDTH 12 0
BBX 11 20 0 -4
BITMAP
0E00
1B00
3B80
0000
0000
E0E0
70E0
70C0
71C0
39C0
3980
1B80
1F80
1F00
0F00
0F00
0E00
1E00
7C00
7800
ENDCHAR
STARTCHAR 0178
ENCODING 376
SWIDTH 672 0
DWIDTH 14 0
BBX 14 18 0 0
BITMAP
0EE0
0EE0
0000
F03C
7038
3870
3C70
1CE0
1FE0
0FC0
0780
0780
0780
0780
0780
0780
0780
0780
ENDCHAR
STARTCHAR 0179
ENCODING 377
SWIDTH 624 0
DWIDTH 13 0
BBX 12 19 0 0
BITMAP
0380
0300
0600
0000
7FF0
7FF0
7FF0
00F0
01E0
03C0
0780
0F00
1E00
3C00
3800
7000
FFF0
FFF0
FFF0
ENDCHAR
STARTCHAR 017A
ENCODING 378
SWIDTH 528 0
DWIDTH 11 0
BBX 10 16 0 0
BITMAP
0E00
0C00
1800
0000
0000
7FC0
7FC0
0780
0780
0F00
1E00
3C00
3800
7800
FFC0
FFC0
ENDCHAR
STARTCHAR 017B
ENCODING 379
SWIDTH 624 0
DWIDTH 13 0
BBX 12 19 0 0
BITMAP
0700
0700
0700
0000
7FF0
7FF0
7FF0
00F0
01E0
03C0
0780
0F00
1E00
3C00
3800
7000
FFF0
FFF0
FFF0
ENDCHAR
STARTCHAR 017C
ENCODING 380
SWIDTH 528 0
DWIDTH 11 0
BBX 10 16 0 0
BITMAP
0E00
0E00
0E00
0000
0000
7FC0
7FC0
0780
0780
0F00
1E00
3C00
3800
7800
FFC0
FFC0
ENDCHAR
STARTCHAR 017D
ENCODING 381
SWIDTH 624 0
DWIDTH 13 0
BBX 12 19 0 0
BITMAP
1DC0
0D80
0700
0000
7FF0
7FF0
7FF0
00F0
01E0
03C0
0780
0F00
1E00
3C00
3800
7000
FFF0
FFF0
FFF0
ENDCHAR
STARTCHAR 017E
ENCODING 382
SWIDTH 528 0
DWIDTH 11 0
BBX 10 16 0 0
BITMAP
3B80
1B00
0E00
0000
0000
7FC0
7FC0
0780
0780
0F00
1E00
3C00
3800
7800
FFC0
FFC0
ENDCHAR
STARTCHAR 017F
ENCODING 383
SWIDTH 288 0
DWIDTH 6 0
BBX 6 15 1 0
BITMAP
3C
7C
60
E0
E0
E0
E0
E0
E0
E0
E0
E0
E0
E0
E0
ENDCHAR
STARTCHAR 0180
ENCODING 384
SWIDTH 624 0
DWIDTH 13 0
BBX 12 15 0 0
BITMAP
7000
7000
FE00
7000
77C0
7FE0
78E0
7870
7070
7070
7070
7870
78E0
7FE0
77C0
ENDCHAR
STARTCHAR 0181
ENCODING 385
SWIDTH 864 0
DWIDTH 18 0
BBX 17 15 0 0
BITMAP
3FFC00
7FFE00
FFFF00
EE0F00
EE0700
6E0E00
0FFE00
0FFC00
0FFF00
0E0700
0E0780
0E0700
0FFF00
0FFF00
0FFC00
ENDCHAR
STARTCHAR 0182
ENCODING 386
SWIDTH 720 0
DWIDTH 15 0
BBX 12 15 2 0
BITMAP
FFE0
FFE0
FFE0
E000
E000
E000
FFC0
FFE0
FFF0
E0F0
E070
E0F0
FFF0
FFE0
FFC0
ENDCHAR
STARTCHAR 0183
ENCODING 387
SWIDTH 624 0
DWIDTH 13 0
BBX 11 15 1 0
BITMAP
FF00
FF00
E000
E000
EF80
FFC0
F1C0
F0E0
E0E0
E0E0
E0E0
F0E0
F1C0
FFC0
EF80
ENDCHAR
STARTCHAR 0184
ENCODING 388
SWIDTH 720 0
DWIDTH 15 0
BBX 14 15 0 0
BITMAP
1800
3800
7800
F800
7800
3800
3FF0
3FF8
3FFC
383C
381C
383C
3FFC
3FF8
3FF0
ENDCHAR
STARTCHAR 0185
ENCODING 389
SWIDTH 624 0
DWIDTH 13 0
BBX 12 15 0 0
BITMAP
1000
7000
F000
7000
77C0
7FE0
78E0
7870
7070
7070
7070
7870
78E0
7FE0
77C0
ENDCHAR
STARTCHAR 0186
ENCODING 390
SWIDTH 720 0
DWIDTH 15 0
BBX 13 15 1 0
BITMAP
1F80
3FE0
7FF0
F0F0
6078
0038
0038
0038
0038
0038
6078
F0F0
7FF0
3FE0
1F80
ENDCHAR
STARTCHAR 0187
ENCODING 391
SWIDTH 720 0
DWIDTH 15 0
BBX 16 17 1 0
BITMAP
001F
003F
0FF8
3FF8
3FF8
7878
F030
E000
E000
E000
E000
E000
F030
7878
7FF0
3FE0
0FC0
ENDCHAR
STARTCHAR 0188
ENCODING 392
SWIDTH 576 0
DWIDTH 12 0
BBX 13 13 1 0
BITMAP
00F8
01F8
1FC0
7FC0
71C0
E1C0
E000
E000
E000
E1C0
71C0
7F80
1F00
ENDCHAR
STARTCHAR 0189
ENCODING 393
SWIDTH 720 0
DWIDTH 15 0
BBX 14 15 0 0
BITMAP
3FE0
3FF0
3FF8
3878
383C
381C
FF1C
FF1C
381C
381C
381C
3838
3FF8
3FF0
3FC0
ENDCHAR
STARTCHAR 018A
ENCODING 394
SWIDTH 864 0
DWIDTH 18 0
BBX 17 15 0 0
BITMAP
3FF800
7FFC00
FFFE00
EE0F00
EE0700
6E0700
0E0780
0E0780
0E0780
0E0700
0E0700
0E0F00
0FFE00
0FFC00
0FF800
ENDCHAR
STARTCHAR 018B
ENCODING 395
SWIDTH 720 0
DWIDTH 15 0
BBX 13 15 1 0
BITMAP
7FF8
7FF8
7FF8
0078
0078
0078
3FF8
7FF8
FFF8
F078
E078
F078
FFF8
7FF8
3FF8
ENDCHAR
STARTCHAR 018C
ENCODING 396
SWIDTH 624 0
DWIDTH 13 0
BBX 11 15 1 0
BITMAP
1FE0
1FE0
00E0
00E0
3EE0
7FE0
F1E0
E1E0
E0E0
E0E0
E0E0
E1E0
71E0
7FE0
3EE0
ENDCHAR
STARTCHAR 018D
ENCODING 397
SWIDTH 624 0
DWIDTH 13 0
BBX 11 15 1 -4
BITMAP
1F00
7F80
71C0
E0E0
E0E0
E0E0
E0E0
E0E0
71C0
7FC0
1F00
0F00
0780
7FC0
7FC0
ENDCHAR
STARTCHAR 018E
ENCODING 398
SWIDTH 672 0
DWIDTH 14 0
BBX 11 15 1 0
BITMAP
FFE0
FFE0
FFE0
00E0
00E0
00E0
7FE0
7FE0
7FE0
00E0
00E0
00E0
FFE0
FFE0
FFE0
ENDCHAR
STARTCHAR 018F
ENCODING 399
SWIDTH 720 0
DWIDTH 15 0
BBX 13 15 1 0
BITMAP
0F80
3FE0
7FF0
7078
7038
0038
FFF8
FFF8
FFF8
E038
F038
7878
7FF0
3FE0
0F80
ENDCHAR
STARTCHAR 0190
ENCODING 400
SWIDTH 624 0
DWIDTH 13 0
BBX 12 15 1 0
BITMAP
1F80
7FC0
7FE0
70E0
70C0
3000
1E00
7E00
7000
E000
E040
F0F0
7FE0
7FC0
1F80
ENDCHAR
STARTCHAR 0191
ENCODING 401
SWIDTH 624 0
DWIDTH 13 0
BBX 13 19 -1 -4
BITMAP
1FF8
1FF8
1FF8
1C00
1C00
1C00
1FF0
1FF0
1FF0
1C00
1C00
1C00
1C00
1C00
1C00
3C00
7800
F800
F000
ENDCHAR
STARTCHAR 0192
ENCODING 402
SWIDTH 576 0
DWIDTH 12 0
BBX 12 19 0 -4
BITMAP
01F0
03E0
0380
0700
1FC0
1FC0
0700
0700
0600
0E00
0E00
0E00
0E00
0C00
1C00
1C00
1C00
FC00
F800
ENDCHAR
STARTCHAR 0193
ENCODING 403
SWIDTH 768 0
DWIDTH 16 0
BBX 17 17 1 0
BITMAP
000F80
001F00
0FDC00
1FFC00
3FFC00
783C00
F01C00
E00000
E00000
E0FC00
E0FC00
E0FC00
F01C00
783C00
3FFC00
1FF800
07E000
ENDCHAR
STARTCHAR 0194
ENCODING 404
SWIDTH 624 0
DWIDTH 13 0
BBX 13 19 0 -4
BITMAP
F038
7078
7070
3870
38E0
3CE0
1DC0
1DC0
0FC0
0F80
0780
0700
0780
0780
0F80
0DC0
0DC0
0FC0
0F80
ENDCHAR
STARTCHAR 0195
ENCODING 405
SWIDTH 960 0
DWIDTH 20 0
BBX 16 15 2 0
BITMAP
C000
C000
C000
C000
CF07
FF87
E387
E387
C187
C187
C187
C1C7
C1C7
C0FE
C07C
ENDCHAR
STARTCHAR 0196
ENCODING 406
SWIDTH 288 0
DWIDTH 6 0
BBX 2 15 2 0
BITMAP
C0
C0
C0
C0
C0
C0
C0
C0
C0
C0
C0
C0
C0
C0
C0
ENDCHAR
STARTCHAR 0197
ENCODING 407
SWIDTH 288 0
DWIDTH 6 0
BBX 6 15 0 0
BITMAP
70
70
70
70
70
70
FC
FC
70
70
70
70
70
70
70
ENDCHAR
STARTCHAR 0198
ENCODING 408
SWIDTH 720 0
DWIDTH 15 0
BBX 13 15 2 0
BITMAP
78F0
F9E0
E3C0
E380
E700
EE00
FF00
FF00
FF80
F3C0
E1C0
E1E0
E0E0
E0F0
E078
ENDCHAR
STARTCHAR 0199
ENCODING 409
SWIDTH 576 0
DWIDTH 12 0
BBX 10 15 1 0
BITMAP
3C00
7C00
E000
E000
E3C0
E780
E700
EE00
FE00
FE00
F700
E700
E380
E1C0
E1C0
ENDCHAR
STARTCHAR 019A
ENCODING 410
SWIDTH 288 0
DWIDTH 6 0
BBX 6 15 0 0
BITMAP
70
70
70
70
70
70
70
FC
70
70
70
70
70
70
70
ENDCHAR
STARTCHAR 019B
ENCODING 411
SWIDTH 576 0
DWIDTH 12 0
BBX 11 15 0 0
BITMAP
1D00
1F00
3E00
7E00
4E00
0F00
1F00
1F80
1B80
3980
39C0
31C0
70C0
70E0
E0E0
ENDCHAR
STARTCHAR 019C
ENCODING 412
SWIDTH 1008 0
DWIDTH 21 0
BBX 17 15 2 0
BITMAP
E1C380
E1C380
E1C380
E1C380
E1C380
E1C380
E1C380
E1C380
E1C380
E1C380
E1C380
E3E780
FFFF80
FFFF80
7CFB80
ENDCHAR
STARTCHAR 019D
ENCODING 413
SWIDTH 720 0
DWIDTH 15 0
BBX 14 19 -1 -4
BITMAP
1C0C
1C0C
1E0C
1F0C
1F0C
1B8C
1B8C
19CC
18EC
18EC
187C
187C
183C
181C
181C
1800
3800
F800
F000
ENDCHAR
STARTCHAR 019E
ENCODING 414
SWIDTH 624 0
DWIDTH 13 0
BBX 10 15 1 -4
BITMAP
E780
FFC0
F1C0
F1C0
E1C0
E1C0
E1C0
E1C0
E1C0
E1C0
E1C0
01C0
01C0
01C0
01C0
ENDCHAR
STARTCHAR 019F
ENCODING 415
SWIDTH 768 0
DWIDTH 16 0
BBX 14 15 1 0
BITMAP
0FC0
3FF0
7FF8
783C
F01C
E01C
FFFC
FFFC
FFFC
E01C
F01C
787C
7FF8
3FF0
0FC0
ENDCHAR
STARTCHAR 01A0
ENCODING 416
SWIDTH 864 0
DWIDTH 18 0
BBX 17 15 1 0
BITMAP
0FC380
3FF380
7FFB80
787D80
F01D00
E01E00
E01C00
E01C00
E01C00
E01C00
F01C00
787C00
7FF800
3FF000
0FC000
ENDCHAR
STARTCHAR 01A1
ENCODING 417
SWIDTH 720 0
DWIDTH 15 0
BBX 14 11 1 0
BITMAP
1F1C
7F9C
71DC
E0EC
E0E8
E0F0
E0E0
E0E0
71C0
7F80
1F00
ENDCHAR
STARTCHAR 01A2
ENCODING 418
SWIDTH 912 0
DWIDTH 19 0
BBX 16 19 1 -4
BITMAP
0F83
3FEF
7FFF
78E7
F0E7
E0E7
E0E7
E0E7
E0E7
E0E7
F0E7
78E7
7FE7
3FE7
0FC7
0007
0007
0007
0007
ENDCHAR
STARTCHAR 01A3
ENCODING 419
SWIDTH 768 0
DWIDTH 16 0
BBX 13 15 1 -4
BITMAP
1F18
7FF8
73B8
E3B8
E3B8
E3B8
E3B8
E3B8
73B8
7FB8
1F38
0038
0038
0038
0038
ENDCHAR
STARTCHAR 01A4
ENCODING 420
SWIDTH 768 0
DWIDTH 16 0
BBX 15 15 0 0
BITMAP
3FF8
7FFC
FFFE
EE0E
EE0E
6E0E
0FFE
0FFC
0FF8
0E00
0E00
0E00
0E00
0E00
0E00
ENDCHAR
STARTCHAR 01A5
ENCODING 421
SWIDTH 624 0
DWIDTH 13 0
BBX 11 19 1 -4
BITMAP
3C00
7C00
E000
E000
E780
FFC0
F1C0
F0E0
E0E0
E0E0
E0E0
F0E0
F1C0
FFC0
EF80
E000
E000
E000
E000
ENDCHAR
STARTCHAR 01A6
ENCODING 422
SWIDTH 672 0
DWIDTH 14 0
BBX 12 18 2 -3
BITMAP
E000
E000
FF80
FFC0
FFE0
E1E0
E0E0
E1E0
FFE0
FFC0
FF00
EF00
E700
E780
E3C0
01C0
01E0
00F0
ENDCHAR
STARTCHAR 01A7
ENCODING 423
SWIDTH 672 0
DWIDTH 14 0
BBX 12 15 1 0
BITMAP
1F80
3FE0
7FE0
70F0
F070
00E0
07E0
3FC0
7F00
F000
E070
F0F0
FFF0
7FE0
1F80
ENDCHAR
STARTCHAR 01A8
ENCODING 424
SWIDTH 576 0
DWIDTH 12 0
BBX 10 11 1 0
BITMAP
3F00
7F80
E1C0
01C0
1FC0
7F80
FC00
E000
E1C0
7FC0
3F00
ENDCHAR
STARTCHAR 01A9
ENCODING 425
SWIDTH 624 0
DWIDTH 13 0
BBX 11 15 1 0
BITMAP
FFE0
FFE0
FFE0
7000
3800
3C00
1E00
0E00
1C00
3C00
7800
F000
FFE0
FFE0
FFE0
ENDCHAR
STARTCHAR 01AA
ENCODING 426
SWIDTH 384 0
DWIDTH 8 0
BBX 8 19 0 -4
BITMAP
78
DC
DC
7C
1C
1C
1C
1C
1C
1C
1C
1C
1C
1C
1C
1C
1F
0F
0F
ENDCHAR
STARTCHAR 01AB
ENCODING 427
SWIDTH 336 0
DWIDTH 7 0
BBX 7 18 0 -4
BITMAP
08
38
38
FE
FE
38
38
38
38
38
38
38
3E
1E
0E
0E
3C
3C
ENDCHAR
STARTCHAR 01AC
ENCODING 428
SWIDTH 624 0
DWIDTH 13 0
BBX 12 15 0 0
BITMAP
3FF0
7FF0
FFF0
E700
C700
E700
0700
0700
0700
0700
0700
0700
0700
0700
0700
ENDCHAR
STARTCHAR 01AD
ENCODING 429
SWIDTH 336 0
DWIDTH 7 0
BBX 7 15 0 0
BITMAP
1E
3E
38
38
FE
FE
38
38
38
38
38
38
38
3E
1E
ENDCHAR
STARTCHAR 01AE
ENCODING 430
SWIDTH 624 0
DWIDTH 13 0
BBX 12 19 0 -4
BITMAP
FFF0
FFF0
FFF0
0700
0700
0700
0700
0700
0700
0700
0700
0700
0700
0700
0700
0700
07C0
07C0
03C0
ENDCHAR
STARTCHAR 01AF
ENCODING 431
SWIDTH 816 0
DWIDTH 17 0
BBX 15 15 2 0
BITMAP
E0F6
E0F6
E0F6
E0F2
E0F6
E0F8
E0F0
E0E0
E0E0
E0E0
E0E0
F0E0
FFE0
7FC0
3F80
ENDCHAR
STARTCHAR 01B0
ENCODING 432
SWIDTH 720 0
DWIDTH 15 0
BBX 14 11 1 0
BITMAP
E1DC
E1DC
E1DC
E1C4
E1CC
E1F0
E1C0
E1C0
71C0
7FC0
3CC0
ENDCHAR
STARTCHAR 01B1
ENCODING 433
SWIDTH 816 0
DWIDTH 17 0
BBX 15 15 1 0
BITMAP
FEFE
FEFE
FEFE
3C70
3038
701C
601C
E01C
E01E
F01E
F01C
783C
7FF8
1FF0
0FC0
ENDCHAR
STARTCHAR 01B2
ENCODING 434
SWIDTH 720 0
DWIDTH 15 0
BBX 12 15 2 0
BITMAP
E3C0
E3E0
E0E0
E0F0
E0E0
E0E0
E0E0
E0E0
E0E0
E0E0
E1E0
E1C0
FFC0
7F80
3F00
ENDCHAR
STARTCHAR 01B3
ENCODING 435
SWIDTH 768 0
DWIDTH 16 0
BBX 16 15 0 0
BITMAP
F01C
703E
387F
3872
1CF0
1DE0
0FC0
0780
0780
0380
0380
0380
0380
0380
0380
ENDCHAR
STARTCHAR 01B4
ENCODING 436
SWIDTH 576 0
DWIDTH 12 0
BBX 15 19 0 -4
BITMAP
003C
003E
007C
0070
E0E0
70E0
70C0
71C0
39C0
3980
1B80
1F80
1F00
0F00
0E00
0E00
1E00
7C00
7800
ENDCHAR
STARTCHAR 01B5
ENCODING 437
SWIDTH 624 0
DWIDTH 13 0
BBX 12 15 0 0
BITMAP
7FF0
7FF0
7FF0
00F0
03C0
0780
FFF0
FFF0
1E00
3C00
7800
7000
FFF0
FFF0
FFF0
ENDCHAR
STARTCHAR 01B6
ENCODING 438
SWIDTH 528 0
DWIDTH 11 0
BBX 10 11 0 0
BITMAP
7FC0
7FC0
0380
0780
0F00
FFC0
3C00
3800
7000
FFC0
FFC0
ENDCHAR
STARTCHAR 01B7
ENCODING 439
SWIDTH 624 0
DWIDTH 13 0
BBX 11 19 1 -4
BITMAP
FFE0
FFE0
FFE0
03C0
0780
0F00
1E00
1F00
1F80
01C0
01E0
00E0
00E0
00E0
E1E0
E1C0
FFC0
7F80
1F00
ENDCHAR
STARTCHAR 01B8
ENCODING 440
SWIDTH 624 0
DWIDTH 13 0
BBX 11 19 1 -4
BITMAP
FFE0
FFE0
FFE0
7000
3800
1C00
0F00
1F00
7F00
7000
E000
E000
E000
E000
E0E0
F1E0
7FC0
3FC0
1F00
ENDCHAR
STARTCHAR 01B9
ENCODING 441
SWIDTH 528 0
DWIDTH 11 0
BBX 11 15 0 -4
BITMAP
7FC0
7FC0
3800
3C00
1E00
1E00
7E00
7000
7000
E000
E000
70E0
71C0
3FC0
1F00
ENDCHAR
STARTCHAR 01BA
ENCODING 442
SWIDTH 528 0
DWIDTH 11 0
BBX 10 15 1 -4
BITMAP
FF80
FF80
0700
0E00
1F00
1F80
0380
0380
1F80
FF00
F800
E1C0
E380
FF80
3E00
ENDCHAR
STARTCHAR 01BB
ENCODING 443
SWIDTH 576 0
DWIDTH 12 0
BBX 10 15 1 0
BITMAP
3E00
7F80
E380
E1C0
01C0
0380
0380
FFC0
FFC0
1E00
3C00
7800
F000
FFC0
FFC0
ENDCHAR
STARTCHAR 01BC
ENCODING 444
SWIDTH 576 0
DWIDTH 12 0
BBX 10 15 1 0
BITMAP
FF80
FF80
FF80
7000
7000
7F00
7F80
7FC0
03C0
01C0
E1C0
F3C0
7F80
7F80
1E00
ENDCHAR
STARTCHAR 01BD
ENCODING 445
SWIDTH 480 0
DWIDTH 10 0
BBX 10 11 0 0
BITMAP
FF80
FF80
3800
3800
3F00
3F80
03C0
01C0
E3C0
7F80
3F00
ENDCHAR
STARTCHAR 01BE
ENCODING 446
SWIDTH 576 0
DWIDTH 12 0
BBX 11 14 0 0
BITMAP
0800
3800
3800
FE00
FE00
3800
3800
3F00
1FC0
03E0
00E0
70E0
3FE0
1F80
ENDCHAR
STARTCHAR 01BF
ENCODING 447
SWIDTH 624 0
DWIDTH 13 0
BBX 11 15 1 -4
BITMAP
EF80
FFC0
F1E0
F0E0
E0E0
E0E0
E0E0
E1C0
E1C0
E780
EF00
FC00
F000
E000
E000
ENDCHAR
STARTCHAR 01C0
ENCODING 448
SWIDTH 288 0
DWIDTH 6 0
BBX 2 15 2 0
BITMAP
C0
C0
C0
C0
C0
C0
C0
C0
C0
C0
C0
C0
C0
C0
C0
ENDCHAR
STARTCHAR 01C1
ENCODING 449
SWIDTH 480 0
DWIDTH 10 0
BBX 7 15 2 0
BITMAP
CE
CE
CE
CE
CE
CE
CE
CE
CE
CE
CE
CE
CE
CE
CE
ENDCHAR
STARTCHAR 01C2
ENCODING 450
SWIDTH 576 0
DWIDTH 12 0
BBX 10 15 1 0
BITMAP
0C00
0C00
0C00
0C00
FFC0
FFC0
FFC0
0C00
0C00
FFC0
FFC0
FFC0
0C00
0C00
0C00
ENDCHAR
STARTCHAR 01C3
ENCODING 451
SWIDTH 336 0
DWIDTH 7 0
BBX 3 15 2 0
BITMAP
E0
E0
E0
E0
E0
E0
E0
E0
E0
C0
40
00
E0
E0
E0
ENDCHAR
STARTCHAR 01C4
ENCODING 452
SWIDTH 1344 0
DWIDTH 28 0
BBX 25 19 2 0
BITMAP
0000EE00
00006C00
00003800
00000000
FF83FF80
FFC3FF80
FFE3FF80
E1E00780
E0F00F00
E0701E00
E0703C00
E0707800
E070F000
E071E000
E0F1C000
E0E38000
FFE7FF80
FFC7FF80
FF07FF80
ENDCHAR
STARTCHAR 01C5
ENCODING 453
SWIDTH 1248 0
DWIDTH 26 0
BBX 23 16 2 0
BITMAP
0001DC
FF80D8
FFC070
FFE000
E1E000
E0F3FE
E073FE
E0703C
E0703C
E07078
E070F0
E0F1E0
E0E1C0
FFE3C0
FFC7FE
FF07FE
ENDCHAR
STARTCHAR 01C6
ENCODING 454
SWIDTH 1104 0
DWIDTH 23 0
BBX 22 16 1 0
BITMAP
0003B8
00E1B0
00E0E0
00E000
00E000
3CE7FC
7FE7FC
F1E078
E1E078
E0E0F0
E0E1E0
E0E3C0
E1E380
F1E780
7FEFFC
3EEFFC
ENDCHAR
STARTCHAR 01C7
ENCODING 455
SWIDTH 1200 0
DWIDTH 25 0
BBX 21 15 2 0
BITMAP
E00038
E00038
E00038
E00038
E00038
E00038
E00038
E00038
E00038
E01C38
E01C38
E00E78
FFCFF8
FFC7F0
FFC3E0
ENDCHAR
STARTCHAR 01C8
ENCODING 456
SWIDTH 912 0
DWIDTH 19 0
BBX 15 19 2 -4
BITMAP
E00E
E00E
E000
E000
E00E
E00E
E00E
E00E
E00E
E00E
E00E
E00E
FFCE
FFCE
FFCE
000E
000E
003E
003C
ENDCHAR
STARTCHAR 01C9
ENCODING 457
SWIDTH 576 0
DWIDTH 12 0
BBX 8 19 2 -4
BITMAP
C7
C7
C0
C0
C7
C7
C7
C7
C7
C7
C7
C7
C7
C7
C7
07
07
1F
1E
ENDCHAR
STARTCHAR 01CA
ENCODING 458
SWIDTH 1296 0
DWIDTH 27 0
BBX 23 15 2 0
BITMAP
E0600E
E0600E
F0600E
F8600E
F8600E
DC600E
DC600E
CE600E
C7600E
C7670E
C3E70E
C3E39E
C1E3FE
C0E1FC
C0E0F8
ENDCHAR
STARTCHAR 01CB
ENCODING 459
SWIDTH 1008 0
DWIDTH 21 0
BBX 17 19 2 -4
BITMAP
E06380
E06380
F06000
F86000
F86380
DC6380
DC6380
CE6380
C76380
C76380
C3E380
C3E380
C1E380
C0E380
C0E380
000380
000380
000F80
000F00
ENDCHAR
STARTCHAR 01CC
ENCODING 460
SWIDTH 912 0
DWIDTH 19 0
BBX 16 19 1 -4
BITMAP
0007
0007
0000
0000
E787
FFC7
F1C7
F1C7
E0C7
E0C7
E0C7
E0C7
E0C7
E0C7
E0C7
0007
0007
001F
001E
ENDCHAR
STARTCHAR 01CD
ENCODING 461
SWIDTH 720 0
DWIDTH 15 0
BBX 15 19 0 0
BITMAP
0EE0
06C0
0380
0000
0380
07C0
07C0
0EC0
0EE0
0EE0
1C70
1C70
1C70
3FF8
3FF8
7FFC
701C
701C
E00E
ENDCHAR
STARTCHAR 01CE
ENCODING 462
SWIDTH 576 0
DWIDTH 12 0
BBX 10 16 1 0
BITMAP
7700
3600
1C00
0000
0000
3F00
7F80
E380
0780
7F80
F980
E380
E380
E380
FF80
7DC0
ENDCHAR
STARTCHAR 01CF
ENCODING 463
SWIDTH 288 0
DWIDTH 6 0
BBX 7 19 -1 0
BITMAP
EE
6C
38
00
38
38
38
38
38
38
38
38
38
38
38
38
38
38
38
ENDCHAR
STARTCHAR 01D0
ENCODING 464
SWIDTH 288 0
DWIDTH 6 0
BBX 7 16 -1 0
BITMAP
EE
6C
38
00
00
38
38
38
38
38
38
38
38
38
38
38
ENDCHAR
STARTCHAR 01D1
ENCODING 465
SWIDTH 768 0
DWIDTH 16 0
BBX 14 19 1 0
BITMAP
0EE0
06C0
0380
0000
0FC0
3FF0
7FF8
787C
F01C
E01C
E01C
E01C
E01C
E01C
F01C
787C
7FF8
3FF0
0FC0
ENDCHAR
STARTCHAR 01D2
ENCODING 466
SWIDTH 624 0
DWIDTH 13 0
BBX 11 16 1 0
BITMAP
3B80
1B00
0E00
0000
0000
1F00
7F80
71C0
E0E0
E0E0
E0E0
E0E0
E0E0
71C0
7F80
1F00
ENDCHAR
STARTCHAR 01D3
ENCODING 467
SWIDTH 720 0
DWIDTH 15 0
BBX 12 19 2 0
BITMAP
3B80
1B00
0E00
0000
E0F0
E0F0
E0F0
E0F0
E0F0
E0F0
E0F0
E0F0
E0E0
E0E0
E0E0
F0E0
FFE0
7FC0
3F80
ENDCHAR
STARTCHAR 01D4
ENCODING 468
SWIDTH 624 0
DWIDTH 13 0
BBX 10 16 1 0
BITMAP
3B80
1B00
0E00
0000
0000
E1C0
E1C0
E1C0
E1C0
E1C0
E1C0
E1C0
E1C0
71C0
7FC0
3CC0
ENDCHAR
STARTCHAR 01D5
ENCODING 469
SWIDTH 720 0
DWIDTH 15 0
BBX 12 19 2 0
BITMAP
3F00
0000
3300
0000
E0F0
E0F0
E0F0
E0F0
E0F0
E0F0
E0F0
E0F0
E0E0
E0E0
E0E0
F0E0
FFE0
7FC0
3F80
ENDCHAR
STARTCHAR 01D6
ENCODING 470
SWIDTH 624 0
DWIDTH 13 0
BBX 10 19 1 0
BITMAP
3F80
3F80
0000
0000
3B80
3B80
0000
0000
E1C0
E1C0
E1C0
E1C0
E1C0
E1C0
E1C0
E1C0
71C0
7FC0
3CC0
ENDCHAR
STARTCHAR 01D7
ENCODING 471
SWIDTH 720 0
DWIDTH 15 0
BBX 12 19 2 0
BITMAP
0600
0C00
3300
0000
E0F0
E0F0
E0F0
E0F0
E0F0
E0F0
E0F0
E0F0
E0E0
E0E0
E0E0
F0E0
FFE0
7FC0
3F80
ENDCHAR
STARTCHAR 01D8
ENCODING 472
SWIDTH 624 0
DWIDTH 13 0
BBX 10 19 1 0
BITMAP
0700
0600
0C00
0000
3B80
3B80
0000
0000
E1C0
E1C0
E1C0
E1C0
E1C0
E1C0
E1C0
E1C0
71C0
7FC0
3CC0
ENDCHAR
STARTCHAR 01D9
ENCODING 473
SWIDTH 720 0
DWIDTH 15 0
BBX 12 19 2 0
BITMAP
1E00
1E00
3300
0000
E0F0
E0F0
E0F0
E0F0
E0F0
E0F0
E0F0
E0F0
E0E0
E0E0
E0E0
F0E0
FFE0
7FC0
3F80
ENDCHAR
STARTCHAR 01DA
ENCODING 474
SWIDTH 624 0
DWIDTH 13 0
BBX 10 19 1 0
BITMAP
3B80
1B00
0E00
0000
3B80
3B80
0000
0000
E1C0
E1C0
E1C0
E1C0
E1C0
E1C0
E1C0
E1C0
71C0
7FC0
3CC0
ENDCHAR
STARTCHAR 01DB
ENCODING 475
SWIDTH 720 0
DWIDTH 15 0
BBX 12 19 2 0
BITMAP
1800
0C00
3300
0000
E0F0
E0F0
E0F0
E0F0
E0F0
E0F0
E0F0
E0F0
E0E0
E0E0
E0E0
F0E0
FFE0
7FC0
3F80
ENDCHAR
STARTCHAR 01DC
ENCODING 476
SWIDTH 624 0
DWIDTH 13 0
BBX 10 19 1 0
BITMAP
1C00
0C00
0600
0000
3B80
3B80
0000
0000
E1C0
E1C0
E1C0
E1C0
E1C0
E1C0
E1C0
E1C0
71C0
7FC0
3CC0
ENDCHAR
STARTCHAR 01DD
ENCODING 477
SWIDTH 576 0
DWIDTH 12 0
BBX 10 11 1 0
BITMAP
3E00
7F80
F380
E1C0
01C0
FFC0
FFC0
E1C0
E380
7F80
3E00
ENDCHAR
STARTCHAR 01DE
ENCODING 478
SWIDTH 720 0
DWIDTH 15 0
BBX 15 19 0 0
BITMAP
0FC0
0000
0CC0
0000
0380
07C0
07C0
0EC0
0EE0
0EE0
1C70
1C70
1C70
3FF8
3FF8
7FFC
701C
701C
E00E
ENDCHAR
STARTCHAR 01DF
ENCODING 479
SWIDTH 576 0
DWIDTH 12 0
BBX 10 19 1 0
BITMAP
7F00
7F00
0000
0000
7700
7700
0000
0000
3F00
7F80
E380
0780
7F80
F980
E380
E380
E380
FF80
7DC0
ENDCHAR
STARTCHAR 01E0
ENCODING 480
SWIDTH 720 0
DWIDTH 15 0
BBX 15 19 0 0
BITMAP
07E0
0000
0180
0000
0380
07C0
07C0
0EC0
0EE0
0EE0
1C70
1C70
1C70
3FF8
3FF8
7FFC
701C
701C
E00E
ENDCHAR
STARTCHAR 01E1
ENCODING 481
SWIDTH 576 0
DWIDTH 12 0
BBX 10 19 1 0
BITMAP
7F00
7F00
0000
1C00
1C00
1C00
0000
0000
3F00
7F80
E380
0780
7F80
F980
E380
E380
E380
FF80
7DC0
ENDCHAR
STARTCHAR 01E2
ENCODING 482
SWIDTH 1008 0
DWIDTH 21 0
BBX 21 18 -1 0
BITMAP
001FC0
001FC0
000000
01FFF8
03FFF8
03BFF8
073800
073800
063FF0
0E3FF0
0C3FF0
1FF800
1FF800
3FF800
383800
703FF8
703FF8
F03FF8
ENDCHAR
STARTCHAR 01E3
ENCODING 483
SWIDTH 912 0
DWIDTH 19 0
BBX 17 15 1 0
BITMAP
07F000
07F000
000000
000000
3F7C00
7FFE00
E3C700
01C300
07FF80
7FFF80
F1C000
E1C300
E3C700
FFFE00
7C7C00
ENDCHAR
STARTCHAR 01E4
ENCODING 484
SWIDTH 768 0
DWIDTH 16 0
BBX 15 15 1 0
BITMAP
0FE0
1FF0
3FF8
783C
F01C
E000
E0FC
E0FC
E0FC
E01C
F0FE
783C
3FF8
1FF0
07C0
ENDCHAR
STARTCHAR 01E5
ENCODING 485
SWIDTH 624 0
DWIDTH 13 0
BBX 12 15 0 -4
BITMAP
1E60
3FE0
78E0
70E0
7060
7060
70E0
78E0
3F60
1E60
0060
FFF0
78E0
3FE0
1F80
ENDCHAR
STARTCHAR 01E6
ENCODING 486
SWIDTH 768 0
DWIDTH 16 0
BBX 14 19 1 0
BITMAP
0EE0
06C0
0380
0000
0FE0
1FF0
3FF8
783C
F010
E000
E000
E0FC
E0FC
E0FC
701C
783C
3FFC
1FF8
07E0
ENDCHAR
STARTCHAR 01E7
ENCODING 487
SWIDTH 624 0
DWIDTH 13 0
BBX 10 20 1 -4
BITMAP
7700
3600
1C00
0000
0000
3CC0
7FC0
F1C0
E1C0
E0C0
E0C0
E0C0
E1C0
F1C0
7FC0
3CC0
00C0
F1C0
7FC0
3F00
ENDCHAR
STARTCHAR 01E8
ENCODING 488
SWIDTH 720 0
DWIDTH 15 0
BBX 13 19 2 0
BITMAP
3B80
1B00
0E00
0000
E0F0
E1E0
E3C0
E780
EF00
FE00
FF00
FF00
F780
E3C0
E1C0
E1E0
E0F0
E0F0
E078
ENDCHAR
STARTCHAR 01E9
ENCODING 489
SWIDTH 576 0
DWIDTH 12 0
BBX 10 19 1 0
BITMAP
7700
3600
1C00
0000
E000
E000
E000
E000
E3C0
E780
EF00
EE00
FE00
FE00
F700
E700
E380
E1C0
E1C0
ENDCHAR
STARTCHAR 01EA
ENCODING 490
SWIDTH 768 0
DWIDTH 16 0
BBX 14 19 1 -4
BITMAP
0FC0
3FF0
7FF8
787C
F01C
E01C
E01C
E01C
E01C
E01C
F01C
787C
7FF8
3FF0
0FC0
0300
0300
0380
0380
ENDCHAR
STARTCHAR 01EB
ENCODING 491
SWIDTH 624 0
DWIDTH 13 0
BBX 11 15 1 -4
BITMAP
1F00
7F80
71C0
E0E0
E0E0
E0E0
E0E0
E0E0
71C0
7F80
1F00
0C00
0C00
0E00
0E00
ENDCHAR
STARTCHAR 01EC
ENCODING 492
SWIDTH 768 0
DWIDTH 16 0
BBX 14 22 1 -4
BITMAP
0FE0
0FE0
0000
0FC0
3FF0
7FF8
787C
F01C
E01C
E01C
E01C
E01C
E01C
F01C
787C
7FF8
3FF0
0FC0
0300
0300
0380
0380
ENDCHAR
STARTCHAR 01ED
ENCODING 493
SWIDTH 624 0
DWIDTH 13 0
BBX 11 19 1 -4
BITMAP
3F80
3F80
0000
0000
1F00
7F80
71C0
E0E0
E0E0
E0E0
E0E0
E0E0
71C0
7F80
1F00
0C00
0C00
0E00
0E00
ENDCHAR
STARTCHAR 01EE
ENCODING 494
SWIDTH 624 0
DWIDTH 13 0
BBX 11 23 1 -4
BITMAP
3B80
1B00
0E00
0000
FFE0
FFE0
FFE0
03C0
0780
0F00
1E00
1F00
1F80
01C0
01E0
00E0
00E0
00E0
E1E0
E1C0
FFC0
7F80
1F00
ENDCHAR
STARTCHAR 01EF
ENCODING 495
SWIDTH 528 0
DWIDTH 11 0
BBX 11 20 0 -4
BITMAP
3B80
1B00
0E00
0000
0000
7FC0
7FC0
03C0
0780
0F00
0F80
0FC0
01C0
01E0
00E0
00E0
E1C0
71C0
7F80
1F00
ENDCHAR
STARTCHAR 01F0
ENCODING 496
SWIDTH 288 0
DWIDTH 6 0
BBX 7 20 -1 -4
BITMAP
EE
6C
38
00
00
38
38
38
38
38
38
38
38
38
38
38
38
38
F8
F0
ENDCHAR
STARTCHAR 01F1
ENCODING 497
SWIDTH 1344 0
DWIDTH 28 0
BBX 25 15 2 0
BITMAP
FF83FF80
FFC3FF80
FFE3FF80
E1E00780
E0F00F00
E0701E00
E0703C00
E0707800
E070F000
E071E000
E0F1C000
E0E38000
FFE7FF80
FFC7FF80
FF07FF80
ENDCHAR
STARTCHAR 01F2
ENCODING 498
SWIDTH 1248 0
DWIDTH 26 0
BBX 23 15 2 0
BITMAP
FF8000
FFC000
FFE000
E1E000
E0F3FE
E073FE
E0703C
E0703C
E07078
E070F0
E0F1E0
E0E1C0
FFE3C0
FFC7FE
FF07FE
ENDCHAR
STARTCHAR 01F3
ENCODING 499
SWIDTH 1104 0
DWIDTH 23 0
BBX 22 15 1 0
BITMAP
00E000
00E000
00E000
00E000
3CE7FC
7FE7FC
F1E078
E1E078
E0E0F0
E0E1E0
E0E3C0
E1E380
F1E780
7FEFFC
3EEFFC
ENDCHAR
STARTCHAR 01F4
ENCODING 500
SWIDTH 768 0
DWIDTH 16 0
BBX 14 19 1 0
BITMAP
01C0
0180
0300
0000
0FE0
1FF0
3FF8
783C
F010
E000
E000
E0FC
E0FC
E0FC
701C
783C
3FFC
1FF8
07E0
ENDCHAR
STARTCHAR 01F5
ENCODING 501
SWIDTH 624 0
DWIDTH 13 0
BBX 10 20 1 -4
BITMAP
0700
0600
0C00
0000
0000
3CC0
7FC0
F1C0
E1C0
E0C0
E0C0
E0C0
E1C0
F1C0
7FC0
3CC0
00C0
F1C0
7FC0
3F00
ENDCHAR
STARTCHAR 01F6
ENCODING 502
SWIDTH 1056 0
DWIDTH 22 0
BBX 18 15 2 0
BITMAP
E07000
E07000
E07000
E07000
E070C0
E070C0
FFF0C0
FFF0C0
FFF0C0
E070C0
E070C0
E071C0
E071C0
E07F80
E01F00
ENDCHAR
STARTCHAR 01F7
ENCODING 503
SWIDTH 672 0
DWIDTH 14 0
BBX 11 19 2 -4
BITMAP
CF00
DFC0
FFC0
F1E0
E0E0
E0E0
E0E0
E0E0
E1C0
E1C0
E3C0
E780
E700
FE00
FC00
F800
E000
E000
E000
ENDCHAR
STARTCHAR 01F8
ENCODING 504
SWIDTH 720 0
DWIDTH 15 0
BBX 11 19 2 0
BITMAP
1C00
0C00
0600
0000
E060
E060
F060
F860
F860
DC60
DC60
CE60
C760
C760
C3E0
C3E0
C1E0
C0E0
C0E0
ENDCHAR
STARTCHAR 01F9
ENCODING 505
SWIDTH 624 0
DWIDTH 13 0
BBX 10 16 1 0
BITMAP
1C00
0C00
0600
0000
0000
E780
FFC0
F1C0
F1C0
E0C0
E0C0
E0C0
E0C0
E0C0
E0C0
E0C0
ENDCHAR
STARTCHAR 01FA
ENCODING 506
SWIDTH 720 0
DWIDTH 15 0
BBX 15 21 0 0
BITMAP
01C0
0180
0300
0380
0280
0280
0380
07C0
07C0
0EC0
0EE0
0EE0
1C70
1C70
1C70
3FF8
3FF8
7FFC
701C
701C
E00E
ENDCHAR
STARTCHAR 01FB
ENCODING 507
SWIDTH 576 0
DWIDTH 12 0
BBX 10 20 1 0
BITMAP
0E00
0C00
1800
0000
1C00
1400
1400
1C00
0000
3F00
7F80
E380
0780
7F80
F980
E380
E380
E380
FF80
7DC0
ENDCHAR
STARTCHAR 01FC
ENCODING 508
SWIDTH 1008 0
DWIDTH 21 0
BBX 21 19 -1 0
BITMAP
001C00
001800
003000
000000
01FFF8
03FFF8
03BFF8
073800
073800
063FF0
0E3FF0
0C3FF0
1FF800
1FF800
3FF800
383800
703FF8
703FF8
F03FF8
ENDCHAR
STARTCHAR 01FD
ENCODING 509
SWIDTH 912 0
DWIDTH 19 0
BBX 17 16 1 0
BITMAP
00E000
00C000
018000
000000
000000
3F7C00
7FFE00
E3C700
01C300
07FF80
7FFF80
F1C000
E1C300
E3C700
FFFE00
7C7C00
ENDCHAR
STARTCHAR 01FE
ENCODING 510
SWIDTH 768 0
DWIDTH 16 0
BBX 15 19 1 0
BITMAP
01C0
0180
0300
0000
0FCE
3FFC
7FF8
783C
F07C
E0DC
E19C
E31C
E61C
EC1C
FC3C
787C
7FF8
7FF0
CFC0
ENDCHAR
STARTCHAR 01FF
ENCODING 511
SWIDTH 624 0
DWIDTH 13 0
BBX 11 16 1 0
BITMAP
0700
0600
0C00
0000
0000
1F60
3FC0
71C0
E3E0
E6E0
E6E0
ECE0
F8E0
71C0
7F80
DF00
ENDCHAR
STARTCHAR 0200
ENCODING 512
SWIDTH 720 0
DWIDTH 15 0
BBX 15 19 0 0
BITMAP
3B80
1D80
0CC0
0000
0380
07C0
07C0
0EC0
0EE0
0EE0
1C70
1C70
1C70
3FF8
3FF8
7FFC
701C
701C
E00E
ENDCHAR
STARTCHAR 0201
ENCODING 513
SWIDTH 576 0
DWIDTH 12 0
BBX 10 16 1 0
BITMAP
EE00
7600
3300
0000
0000
3F00
7F80
E380
0780
7F80
F980
E380
E380
E380
FF80
7DC0
ENDCHAR
STARTCHAR 0202
ENCODING 514
SWIDTH 720 0
DWIDTH 15 0
BBX 15 19 0 0
BITMAP
0780
0FC0
0840
0000
0380
07C0
07C0
0EC0
0EE0
0EE0
1C70
1C70
1C70
3FF8
3FF8
7FFC
701C
701C
E00E
ENDCHAR
STARTCHAR 0203
ENCODING 515
SWIDTH 576 0
DWIDTH 12 0
BBX 10 16 1 0
BITMAP
1E00
3F00
2100
0000
0000
3F00
7F80
E380
0780
7F80
F980
E380
E380
E380
FF80
7DC0
ENDCHAR
STARTCHAR 0204
ENCODING 516
SWIDTH 672 0
DWIDTH 14 0
BBX 11 19 2 0
BITMAP
EE00
7600
3300
0000
FFE0
FFE0
FFE0
E000
E000
E000
FFC0
FFC0
FFC0
E000
E000
E000
FFE0
FFE0
FFE0
ENDCHAR
STARTCHAR 0205
ENCODING 517
SWIDTH 576 0
DWIDTH 12 0
BBX 10 16 1 0
BITMAP
EE00
7600
3300
0000
0000
3E00
7F80
E380
E1C0
FFC0
FFC0
E000
E1C0
F380
7F00
3E00
ENDCHAR
STARTCHAR 0206
ENCODING 518
SWIDTH 672 0
DWIDTH 14 0
BBX 11 19 2 0
BITMAP
1E00
3F00
2100
0000
FFE0
FFE0
FFE0
E000
E000
E000
FFC0
FFC0
FFC0
E000
E000
E000
FFE0
FFE0
FFE0
ENDCHAR
STARTCHAR 0207
ENCODING 519
SWIDTH 576 0
DWIDTH 12 0
BBX 10 16 1 0
BITMAP
1E00
3F00
2100
0000
0000
3E00
7F80
E380
E1C0
FFC0
FFC0
E000
E1C0
F380
7F00
3E00
ENDCHAR
STARTCHAR 0208
ENCODING 520
SWIDTH 288 0
DWIDTH 6 0
BBX 8 19 -2 0
BITMAP
EE
76
33
00
1C
1C
1C
1C
1C
1C
1C
1C
1C
1C
1C
1C
1C
1C
1C
ENDCHAR
STARTCHAR 0209
ENCODING 521
SWIDTH 288 0
DWIDTH 6 0
BBX 8 16 -2 0
BITMAP
EE
76
33
00
00
1C
1C
1C
1C
1C
1C
1C
1C
1C
1C
1C
ENDCHAR
STARTCHAR 020A
ENCODING 522
SWIDTH 288 0
DWIDTH 6 0
BBX 6 19 0 0
BITMAP
78
FC
84
00
70
70
70
70
70
70
70
70
70
70
70
70
70
70
70
ENDCHAR
STARTCHAR 020B
ENCODING 523
SWIDTH 288 0
DWIDTH 6 0
BBX 6 16 0 0
BITMAP
78
FC
84
00
00
70
70
70
70
70
70
70
70
70
70
70
ENDCHAR
STARTCHAR 020C
ENCODING 524
SWIDTH 768 0
DWIDTH 16 0
BBX 14 19 1 0
BITMAP
3B80
1D80
0CC0
0000
0FC0
3FF0
7FF8
787C
F01C
E01C
E01C
E01C
E01C
E01C
F01C
787C
7FF8
3FF0
0FC0
ENDCHAR
STARTCHAR 020D
ENCODING 525
SWIDTH 624 0
DWIDTH 13 0
BBX 11 16 1 0
BITMAP
EE00
7600
3300
0000
0000
1F00
7F80
71C0
E0E0
E0E0
E0E0
E0E0
E0E0
71C0
7F80
1F00
ENDCHAR
STARTCHAR 020E
ENCODING 526
SWIDTH 768 0
DWIDTH 16 0
BBX 14 19 1 0
BITMAP
0780
0FC0
0840
0000
0FC0
3FF0
7FF8
787C
F01C
E01C
E01C
E01C
E01C
E01C
F01C
787C
7FF8
3FF0
0FC0
ENDCHAR
STARTCHAR 020F
ENCODING 527
SWIDTH 624 0
DWIDTH 13 0
BBX 11 16 1 0
BITMAP
1E00
3F00
2100
0000
0000
1F00
7F80
71C0
E0E0
E0E0
E0E0
E0E0
E0E0
71C0
7F80
1F00
ENDCHAR
STARTCHAR 0210
ENCODING 528
SWIDTH 720 0
DWIDTH 15 0
BBX 13 19 2 0
BITMAP
EE00
7600
3300
0000
FFC0
FFE0
FFE0
E0F0
E070
E0F0
FFE0
FFC0
FF00
E780
E3C0
E1E0
E0E0
E0F0
E078
ENDCHAR
STARTCHAR 0211
ENCODING 529
SWIDTH 384 0
DWIDTH 8 0
BBX 8 16 0 0
BITMAP
EE
76
33
00
00
77
7F
78
78
70
70
70
70
70
70
70
ENDCHAR
STARTCHAR 0212
ENCODING 530
SWIDTH 720 0
DWIDTH 15 0
BBX 13 19 2 0
BITMAP
1E00
3F00
2100
0000
FFC0
FFE0
FFE0
E0F0
E070
E0F0
FFE0
FFC0
FF00
E780
E3C0
E1E0
E0E0
E0F0
E078
ENDCHAR
STARTCHAR 0213
ENCODING 531
SWIDTH 384 0
DWIDTH 8 0
BBX 7 16 1 0
BITMAP
3C
7E
42
00
00
EE
FE
F0
F0
E0
E0
E0
E0
E0
E0
E0
ENDCHAR
STARTCHAR 0214
ENCODING 532
SWIDTH 720 0
DWIDTH 15 0
BBX 12 19 2 0
BITMAP
7700
3B00
1980
0000
E0F0
E0F0
E0F0
E0F0
E0F0
E0F0
E0F0
E0F0
E0E0
E0E0
E0E0
F0E0
FFE0
7FC0
3F80
ENDCHAR
STARTCHAR 0215
ENCODING 533
SWIDTH 624 0
DWIDTH 13 0
BBX 10 16 1 0
BITMAP
EE00
7600
3300
0000
0000
E1C0
E1C0
E1C0
E1C0
E1C0
E1C0
E1C0
E1C0
71C0
7FC0
3CC0
ENDCHAR
STARTCHAR 0216
ENCODING 534
SWIDTH 720 0
DWIDTH 15 0
BBX 12 19 2 0
BITMAP
0F00
1F80
1080
0000
E0F0
E0F0
E0F0
E0F0
E0F0
E0F0
E0F0
E0F0
E0E0
E0E0
E0E0
F0E0
FFE0
7FC0
3F80
ENDCHAR
STARTCHAR 0217
ENCODING 535
SWIDTH 624 0
DWIDTH 13 0
BBX 10 16 1 0
BITMAP
1E00
3F00
2100
0000
0000
E1C0
E1C0
E1C0
E1C0
E1C0
E1C0
E1C0
E1C0
71C0
7FC0
3CC0
ENDCHAR
STARTCHAR 0218
ENCODING 536
SWIDTH 672 0
DWIDTH 14 0
BBX 12 21 1 -6
BITMAP
1F80
7FC0
7FE0
F0E0
E0F0
F000
7F00
3FC0
0FE0
00F0
E070
F0F0
7FF0
7FE0
1F80
0000
0E00
0E00
0600
0600
0800
ENDCHAR
STARTCHAR 0219
ENCODING 537
SWIDTH 576 0
DWIDTH 12 0
BBX 10 17 1 -6
BITMAP
3E00
FF80
E380
E000
FC00
7F00
0F80
01C0
E1C0
FF80
3F00
0000
1C00
1C00
0C00
0C00
1000
ENDCHAR
STARTCHAR 021A
ENCODING 538
SWIDTH 624 0
DWIDTH 13 0
BBX 12 21 0 -6
BITMAP
FFF0
FFF0
FFF0
0700
0700
0700
0700
0700
0700
0700
0700
0700
0700
0700
0700
0000
0700
0700
0300
0300
0400
ENDCHAR
STARTCHAR 021B
ENCODING 539
SWIDTH 336 0
DWIDTH 7 0
BBX 7 20 0 -6
BITMAP
08
38
38
FE
FE
38
38
38
38
38
38
38
3E
1E
00
1C
1C
0C
0C
10
ENDCHAR
STARTCHAR 021C
ENCODING 540
SWIDTH 576 0
DWIDTH 12 0
BBX 10 19 1 -4
BITMAP
3E00
FF80
FFC0
E3C0
01C0
01C0
03C0
0780
3F80
FFC0
F9C0
C1C0
01C0
03C0
0F80
3F00
FE00
F800
C000
ENDCHAR
STARTCHAR 021D
ENCODING 541
SWIDTH 528 0
DWIDTH 11 0
BBX 9 15 1 -4
BITMAP
3E00
7F00
E380
4380
0380
0780
3F00
FF80
C380
0380
0380
0700
3F00
FC00
C000
ENDCHAR
STARTCHAR 021E
ENCODING 542
SWIDTH 720 0
DWIDTH 15 0
BBX 12 19 2 0
BITMAP
3B80
1B00
0E00
0000
E070
E070
E070
E070
E070
E070
FFF0
FFF0
FFF0
E070
E070
E070
E070
E070
E070
ENDCHAR
STARTCHAR 021F
ENCODING 543
SWIDTH 624 0
DWIDTH 13 0
BBX 9 19 2 0
BITMAP
EE00
6C00
3800
0000
C000
C000
C000
C000
CF00
FF80
E380
E380
C180
C180
C180
C180
C180
C180
C180
ENDCHAR
STARTCHAR 0220
ENCODING 544
SWIDTH 720 0
DWIDTH 15 0
BBX 11 19 2 -4
BITMAP
EF80
FFC0
FFE0
E1E0
E0E0
E0E0
E0E0
E0E0
E0E0
E0E0
E0E0
E0E0
E0E0
E0E0
E0E0
00E0
00E0
00E0
00E0
ENDCHAR
STARTCHAR 0221
ENCODING 545
SWIDTH 864 0
DWIDTH 18 0
BBX 16 19 1 -4
BITMAP
00E0
00E0
00E0
00E0
3EE0
7FE0
F1E0
E1E0
E0E0
E0E0
E0E0
E1E0
71E0
7FFE
3CFF
00F3
00F3
01FF
00BE
ENDCHAR
STARTCHAR 0222
ENCODING 546
SWIDTH 624 0
DWIDTH 13 0
BBX 11 15 1 0
BITMAP
0380
3BC0
78E0
F0E0
F1E0
7FC0
3F80
7FE0
F0E0
E0E0
E0E0
F0E0
FFE0
7FC0
1F80
ENDCHAR
STARTCHAR 0223
ENCODING 547
SWIDTH 624 0
DWIDTH 13 0
BBX 11 15 1 0
BITMAP
3080
71C0
F1E0
E0E0
F1E0
7FC0
3F80
7FE0
F0E0
E0E0
E0E0
F0E0
FFE0
7FC0
1F80
ENDCHAR
STARTCHAR 0224
ENCODING 548
SWIDTH 624 0
DWIDTH 13 0
BBX 12 18 0 -3
BITMAP
7FF0
7FF0
7FF0
00F0
01E0
03C0
0780
0F00
1E00
3C00
3800
7000
FFE0
FFF0
FFF0
0030
0030
0030
ENDCHAR
STARTCHAR 0225
ENCODING 549
SWIDTH 528 0
DWIDTH 11 0
BBX 10 14 0 -3
BITMAP
7FC0
7FC0
0380
0700
0F00
1E00
1C00
3800
7800
FF80
FFC0
00C0
00C0
00C0
ENDCHAR
STARTCHAR 0226
ENCODING 550
SWIDTH 720 0
DWIDTH 15 0
BBX 15 19 0 0
BITMAP
0380
0380
0380
0000
0380
07C0
07C0
0EC0
0EE0
0EE0
1C70
1C70
1C70
3FF8
3FF8
7FFC
701C
701C
E00E
ENDCHAR
STARTCHAR 0227
ENCODING 551
SWIDTH 576 0
DWIDTH 12 0
BBX 10 16 1 0
BITMAP
1C00
1C00
1C00
0000
0000
3F00
7F80
E380
0780
7F80
F980
E380
E380
E380
FF80
7DC0
ENDCHAR
STARTCHAR 0228
ENCODING 552
SWIDTH 672 0
DWIDTH 14 0
BBX 11 19 2 -4
BITMAP
FFE0
FFE0
FFE0
E000
E000
E000
FFC0
FFC0
FFC0
E000
E000
E000
FFE0
FFE0
FFE0
0E00
0300
0300
3E00
ENDCHAR
STARTCHAR 0229
ENCODING 553
SWIDTH 576 0
DWIDTH 12 0
BBX 10 15 1 -4
BITMAP
3E00
7F80
E380
E1C0
FFC0
FFC0
E000
E1C0
F380
7F00
3E00
0E00
0300
0300
3E00
ENDCHAR
STARTCHAR 022A
ENCODING 554
SWIDTH 768 0
DWIDTH 16 0
BBX 14 19 1 0
BITMAP
0FC0
0000
0CC0
0000
0FC0
3FF0
7FF8
787C
F01C
E01C
E01C
E01C
E01C
E01C
F01C
787C
7FF8
3FF0
0FC0
ENDCHAR
STARTCHAR 022B
ENCODING 555
SWIDTH 624 0
DWIDTH 13 0
BBX 11 19 1 0
BITMAP
3F80
3F80
0000
0000
3B80
3B80
0000
0000
1F00
7F80
71C0
E0E0
E0E0
E0E0
E0E0
E0E0
71C0
7F80
1F00
ENDCHAR
STARTCHAR 022C
ENCODING 556
SWIDTH 768 0
DWIDTH 16 0
BBX 14 19 1 0
BITMAP
0FC0
0640
0980
0000
0FC0
3FF0
7FF8
787C
F01C
E01C
E01C
E01C
E01C
E01C
F01C
787C
7FF8
3FF0
0FC0
ENDCHAR
STARTCHAR 022D
ENCODING 557
SWIDTH 624 0
DWIDTH 13 0
BBX 11 19 1 0
BITMAP
3F80
3F80
0000
0000
1880
3F80
2700
0000
1F00
7F80
71C0
E0E0
E0E0
E0E0
E0E0
E0E0
71C0
7F80
1F00
ENDCHAR
STARTCHAR 022E
ENCODING 558
SWIDTH 768 0
DWIDTH 16 0
BBX 14 19 1 0
BITMAP
0380
0380
0380
0000
0FC0
3FF0
7FF8
787C
F01C
E01C
E01C
E01C
E01C
E01C
F01C
787C
7FF8
3FF0
0FC0
ENDCHAR
STARTCHAR 022F
ENCODING 559
SWIDTH 624 0
DWIDTH 13 0
BBX 11 16 1 0
BITMAP
0E00
0E00
0E00
0000
0000
1F00
7F80
71C0
E0E0
E0E0
E0E0
E0E0
E0E0
71C0
7F80
1F00
ENDCHAR
STARTCHAR 0230
ENCODING 560
SWIDTH 768 0
DWIDTH 16 0
BBX 14 19 1 0
BITMAP
0FC0
0000
0300
0000
0FC0
3FF0
7FF8
787C
F01C
E01C
E01C
E01C
E01C
E01C
F01C
787C
7FF8
3FF0
0FC0
ENDCHAR
STARTCHAR 0231
ENCODING 561
SWIDTH 624 0
DWIDTH 13 0
BBX 11 19 1 0
BITMAP
3F80
3F80
0000
0E00
0E00
0E00
0000
0000
1F00
7F80
71C0
E0E0
E0E0
E0E0
E0E0
E0E0
71C0
7F80
1F00
ENDCHAR
STARTCHAR 0232
ENCODING 562
SWIDTH 672 0
DWIDTH 14 0
BBX 14 18 0 0
BITMAP
0FE0
0FE0
0000
F03C
7038
3870
3C70
1CE0
1FE0
0FC0
0780
0780
0780
0780
0780
0780
0780
0780
ENDCHAR
STARTCHAR 0233
ENCODING 563
SWIDTH 576 0
DWIDTH 12 0
BBX 11 19 0 -4
BITMAP
3F80
3F80
0000
0000
E0E0
70E0
70C0
71C0
39C0
3980
1B80
1F80
1F00
0F00
0F00
0E00
1E00
7C00
7800
ENDCHAR
STARTCHAR 0234
ENCODING 564
SWIDTH 480 0
DWIDTH 10 0
BBX 9 19 1 -4
BITMAP
E000
E000
E000
E000
E000
E000
E000
E000
E000
E000
E000
E000
E000
EF00
7F80
7980
7980
FF80
5F00
ENDCHAR
STARTCHAR 0235
ENCODING 565
SWIDTH 864 0
DWIDTH 18 0
BBX 16 15 1 -4
BITMAP
E780
FFC0
F1C0
F1C0
E0C0
E0C0
E0C0
E0C0
E0C0
E0DE
E0FF
00F3
00F3
01FF
00BE
ENDCHAR
STARTCHAR 0236
ENCODING 566
SWIDTH 528 0
DWIDTH 11 0
BBX 10 14 0 0
BITMAP
0800
3800
3800
FE00
FE00
3800
3800
3800
3F80
3FC0
3CC0
3CC0
7FC0
2F80
ENDCHAR
STARTCHAR 0237
ENCODING 567
SWIDTH 288 0
DWIDTH 6 0
BBX 5 15 -1 -4
BITMAP
38
38
38
38
38
38
38
38
38
38
38
38
38
F8
F0
ENDCHAR
STARTCHAR 0238
ENCODING 568
SWIDTH 960 0
DWIDTH 20 0
BBX 18 15 1 0
BITMAP
00E000
00E000
00E000
00E000
3EEF00
7FFF80
F1E3C0
E1E1C0
E0E1C0
E0C1C0
E0E1C0
E1E1C0
71F3C0
7FFF80
3ECF00
ENDCHAR
STARTCHAR 0239
ENCODING 569
SWIDTH 960 0
DWIDTH 20 0
BBX 18 15 1 -4
BITMAP
3ECF00
7FFF80
71E3C0
E1E1C0
E0E1C0
E0C1C0
E0E1C0
E1E1C0
71F3C0
7FFF80
3EEF00
00E000
00E000
00E000
00E000
ENDCHAR
STARTCHAR 023A
ENCODING 570
SWIDTH 720 0
DWIDTH 15 0
BBX 15 16 0 -1
BITMAP
0398
07D8
07F0
0EE0
0EE0
0EE0
1CF0
1DF0
1D70
3FF8
3FF8
7FFC
741C
7C1C
F80E
1800
ENDCHAR
STARTCHAR 023B
ENCODING 571
SWIDTH 720 0
DWIDTH 15 0
BBX 13 15 1 0
BITMAP
0FF0
3FE0
3FF0
7878
F0F0
E180
E100
E300
E200
E400
FC30
7878
3FF0
3FE0
3FC0
ENDCHAR
STARTCHAR 023C
ENCODING 572
SWIDTH 576 0
DWIDTH 12 0
BBX 11 19 0 -4
BITMAP
0020
0060
0040
00C0
0F80
3FC0
3BE0
73E0
7600
7600
7400
7CE0
38E0
3FC0
3F80
3000
6000
6000
C000
ENDCHAR
STARTCHAR 023D
ENCODING 573
SWIDTH 624 0
DWIDTH 13 0
BBX 12 15 0 0
BITMAP
3800
3800
3800
3800
3800
3800
FF00
FF00
3800
3800
3800
3800
3FF0
3FF0
3FF0
ENDCHAR
STARTCHAR 023E
ENCODING 574
SWIDTH 624 0
DWIDTH 13 0
BBX 12 17 0 -1
BITMAP
0030
FFF0
FFF0
FFF0
07C0
0780
0700
0700
0700
0700
0F00
0F00
1F00
1700
3700
6700
4000
ENDCHAR
STARTCHAR 023F
ENCODING 575
SWIDTH 576 0
DWIDTH 12 0
BBX 10 15 1 -4
BITMAP
3F00
FF80
E380
E000
FE00
7F80
0FC0
41C0
E1C0
FF80
3E00
3800
1D00
0F80
0700
ENDCHAR
STARTCHAR 0240
ENCODING 576
SWIDTH 528 0
DWIDTH 11 0
BBX 10 15 0 -4
BITMAP
7FC0
7F80
0780
0700
0E00
1C00
3C00
3800
7000
F800
FC00
1E00
0E40
07C0
03C0
ENDCHAR
STARTCHAR 0241
ENCODING 577
SWIDTH 672 0
DWIDTH 14 0
BBX 12 15 1 0
BITMAP
1F00
7FC0
F1E0
60E0
00E0
0070
0060
00E0
01E0
0FC0
0F80
0E00
0E00
0E00
0E00
ENDCHAR
STARTCHAR 0242
ENCODING 578
SWIDTH 480 0
DWIDTH 10 0
BBX 8 11 1 0
BITMAP
7C
FF
C7
03
03
07
1E
1C
1C
1C
1C
ENDCHAR
STARTCHAR 0243
ENCODING 579
SWIDTH 720 0
DWIDTH 15 0
BBX 14 15 0 0
BITMAP
3FE0
3FF8
3FF8
3838
3838
3FF0
3FF0
3FF8
383C
FF1C
FF1C
383C
3FFC
3FF8
3FF0
ENDCHAR
STARTCHAR 0244
ENCODING 580
SWIDTH 720 0
DWIDTH 15 0
BBX 15 15 0 0
BITMAP
783C
783C
783C
783C
783C
FFFE
FFFE
3838
3838
3838
3838
3C38
3FF8
1FF0
07E0
ENDCHAR
STARTCHAR 0245
ENCODING 581
SWIDTH 672 0
DWIDTH 14 0
BBX 14 15 0 0
BITMAP
0780
0780
0FC0
0FC0
0FC0
1DE0
1CE0
1CE0
38F0
3870
3870
7078
7038
7038
E01C
ENDCHAR
STARTCHAR 0246
ENCODING 582
SWIDTH 672 0
DWIDTH 14 0
BBX 11 17 2 -1
BITMAP
0040
FFE0
FFE0
FFE0
E180
E100
E300
FFC0
FFC0
FFC0
EC00
E800
F800
FFE0
FFE0
FFE0
6000
ENDCHAR
STARTCHAR 0247
ENCODING 583
SWIDTH 576 0
DWIDTH 12 0
BBX 10 19 1 -4
BITMAP
00C0
0080
0180
0100
3F00
7F00
E780
E5C0
FFC0
FFC0
F800
F9C0
F380
7F80
3E00
6000
6000
C000
C000
ENDCHAR
STARTCHAR 0248
ENCODING 584
SWIDTH 576 0
DWIDTH 12 0
BBX 11 15 0 0
BITMAP
01C0
01C0
01C0
01C0
01C0
07E0
07E0
01C0
01C0
E1C0
E1C0
73C0
7F80
3F80
1F00
ENDCHAR
STARTCHAR 0249
ENCODING 585
SWIDTH 288 0
DWIDTH 6 0
BBX 7 19 -1 -4
BITMAP
38
38
00
00
38
38
38
38
7E
7E
38
38
38
38
38
38
38
F8
F0
ENDCHAR
STARTCHAR 024A
ENCODING 586
SWIDTH 768 0
DWIDTH 16 0
BBX 16 19 1 -4
BITMAP
0FE8
1FF8
7FF8
7838
F038
E038
E038
E038
E038
E038
F038
7838
7FF8
3FF8
0FF8
003C
003E
001F
000F
ENDCHAR
STARTCHAR 024B
ENCODING 587
SWIDTH 624 0
DWIDTH 13 0
BBX 13 15 1 -4
BITMAP
3CE0
7FE0
71E0
E1E0
E0E0
E0E0
E0E0
E1E0
71E0
7FE0
3CE0
00E0
00E0
00F8
0078
ENDCHAR
STARTCHAR 024C
ENCODING 588
SWIDTH 720 0
DWIDTH 15 0
BBX 15 15 0 0
BITMAP
3FF0
3FF8
3FFC
3C1C
3C1C
3C3C
FFFC
FFF8
FFE0
3CE0
3CF0
3C78
3C3C
3C1C
3C1E
ENDCHAR
STARTCHAR 024D
ENCODING 589
SWIDTH 384 0
DWIDTH 8 0
BBX 8 11 0 0
BITMAP
77
7F
78
78
70
FC
FC
70
70
70
70
ENDCHAR
STARTCHAR 024E
ENCODING 590
SWIDTH 672 0
DWIDTH 14 0
BBX 14 15 0 0
BITMAP
F03C
7038
FFFC
FFFC
1CE0
1FE0
0FC0
0FC0
0780
0780
0780
0780
0780
0780
0780
ENDCHAR
STARTCHAR 024F
ENCODING 591
SWIDTH 576 0
DWIDTH 12 0
BBX 11 15 0 -4
BITMAP
E0E0
70E0
70C0
FFE0
FFE0
3980
1B80
1F80
1F00
0F00
0F00
0E00
1E00
7C00
7800
ENDCHAR
STARTCHAR 0250
ENCODING 592
SWIDTH 576 0
DWIDTH 12 0
BBX 10 11 1 0
BITMAP
EF00
FF80
F1C0
E1C0
E1C0
E780
FF00
F800
E1C0
7F80
3F00
ENDCHAR
STARTCHAR 0251
ENCODING 593
SWIDTH 624 0
DWIDTH 13 0
BBX 11 11 1 0
BITMAP
3EE0
7FE0
F1E0
E1E0
E0E0
E0E0
E0E0
E1E0
71E0
7FE0
3EE0
ENDCHAR
STARTCHAR 0252
ENCODING 594
SWIDTH 624 0
DWIDTH 13 0
BBX 11 11 1 0
BITMAP
EF80
FFC0
F1C0
F0E0
E0E0
E0E0
E0E0
F0E0
F1C0
FFC0
EF00
ENDCHAR
STARTCHAR 0253
ENCODING 595
SWIDTH 624 0
DWIDTH 13 0
BBX 11 15 1 0
BITMAP
3C00
7C00
E000
E000
EF80
FFC0
F1C0
F0E0
E0E0
E0E0
E0E0
F0E0
F1C0
FFC0
EF80
ENDCHAR
STARTCHAR 0254
ENCODING 596
SWIDTH 576 0
DWIDTH 12 0
BBX 10 11 1 0
BITMAP
3E00
7F00
E380
E1C0
01C0
01C0
01C0
C1C0
E380
7F00
3E00
ENDCHAR
STARTCHAR 0255
ENCODING 597
SWIDTH 576 0
DWIDTH 12 0
BBX 11 11 0 -1
BITMAP
0F80
3FC0
38E0
70E0
7000
77C0
7FE0
7CE0
78E0
FFC0
6F80
ENDCHAR
STARTCHAR 0256
ENCODING 598
SWIDTH 624 0
DWIDTH 13 0
BBX 13 19 1 -4
BITMAP
00E0
00E0
00E0
00E0
3EE0
7FE0
F1E0
E1E0
E0E0
E0E0
E0E0
E1E0
71E0
7FE0
3CE0
00E0
00E0
00F8
0078
ENDCHAR
STARTCHAR 0257
ENCODING 599
SWIDTH 624 0
DWIDTH 13 0
BBX 13 15 1 0
BITMAP
0078
00F8
00E0
00E0
3EE0
7FE0
F1E0
E1E0
E0E0
E0E0
E0E0
E1E0
71E0
7FE0
3EE0
ENDCHAR
STARTCHAR 0258
ENCODING 600
SWIDTH 576 0
DWIDTH 12 0
BBX 10 11 1 0
BITMAP
3E00
7F80
E380
E1C0
FFC0
FFC0
01C0
E1C0
F380
7F80
3E00
ENDCHAR
STARTCHAR 0259
ENCODING 601
SWIDTH 576 0
DWIDTH 12 0
BBX 10 11 1 0
BITMAP
3E00
7F80
F380
E1C0
01C0
FFC0
FFC0
E1C0
E380
7F80
3E00
ENDCHAR
STARTCHAR 025A
ENCODING 602
SWIDTH 768 0
DWIDTH 16 0
BBX 15 11 1 0
BITMAP
3F00
7F80
E3F0
0FF0
FFF0
F1FE
E1DE
E1C0
6380
7F80
1E00
ENDCHAR
STARTCHAR 025B
ENCODING 603
SWIDTH 480 0
DWIDTH 10 0
BBX 9 11 1 0
BITMAP
3E00
7F00
E380
E000
7800
7800
E000
E000
E380
FF80
3E00
ENDCHAR
STARTCHAR 025C
ENCODING 604
SWIDTH 480 0
DWIDTH 10 0
BBX 10 11 0 0
BITMAP
1F00
7F80
6380
0380
0F00
0F80
0380
01C0
E3C0
7F80
3F00
ENDCHAR
STARTCHAR 025D
ENCODING 605
SWIDTH 720 0
DWIDTH 15 0
BBX 14 11 0 0
BITMAP
1F00
7FE0
63E0
03E0
0F7C
0FBC
0380
01C0
E3C0
7F80
3F00
ENDCHAR
STARTCHAR 025E
ENCODING 606
SWIDTH 576 0
DWIDTH 12 0
BBX 10 11 1 0
BITMAP
1F00
7F80
71C0
E180
E700
E780
E1C0
E1C0
71C0
7F80
1F00
ENDCHAR
STARTCHAR 025F
ENCODING 607
SWIDTH 336 0
DWIDTH 7 0
BBX 8 15 -1 -4
BITMAP
1C
1C
1C
1C
1C
1C
1C
1C
1C
7F
7F
1C
1C
7C
F8
ENDCHAR
STARTCHAR 0260
ENCODING 608
SWIDTH 624 0
DWIDTH 13 0
BBX 13 19 1 -4
BITMAP
0078
00F8
00E0
00C0
3EC0
7FC0
F1C0
E1C0
E0C0
E0C0
E0C0
E1C0
F1C0
7FC0
3CC0
00C0
F1C0
7FC0
3F00
ENDCHAR
STARTCHAR 0261
ENCODING 609
SWIDTH 624 0
DWIDTH 13 0
BBX 10 15 1 -4
BITMAP
3CC0
7FC0
F1C0
E1C0
E0C0
E0C0
E0C0
E1C0
F1C0
7FC0
3CC0
00C0
F1C0
7FC0
3F00
ENDCHAR
STARTCHAR 0262
ENCODING 610
SWIDTH 576 0
DWIDTH 12 0
BBX 11 11 1 0
BITMAP
1F00
7FC0
71E0
E000
E000
E3E0
E3E0
E0E0
70E0
7FC0
1F80
ENDCHAR
STARTCHAR 0263
ENCODING 611
SWIDTH 576 0
DWIDTH 12 0
BBX 11 15 0 -4
BITMAP
E0E0
70E0
71C0
39C0
3B80
1F80
1F00
0F00
0E00
0F00
1F00
1F80
1B80
1F80
0F00
ENDCHAR
STARTCHAR 0264
ENCODING 612
SWIDTH 624 0
DWIDTH 13 0
BBX 12 11 0 0
BITMAP
79E0
FDF0
0F90
0F00
0700
0F00
0F80
1D80
1D80
1F80
0F00
ENDCHAR
STARTCHAR 0265
ENCODING 613
SWIDTH 624 0
DWIDTH 13 0
BBX 10 15 1 -4
BITMAP
E1C0
E1C0
E1C0
E1C0
E1C0
E1C0
E1C0
E1C0
71C0
7FC0
3DC0
01C0
01C0
01C0
01C0
ENDCHAR
STARTCHAR 0266
ENCODING 614
SWIDTH 624 0
DWIDTH 13 0
BBX 9 15 2 0
BITMAP
7800
F800
E000
C000
CF00
FF80
E380
E380
C180
C180
C180
C180
C180
C180
C180
ENDCHAR
STARTCHAR 0267
ENCODING 615
SWIDTH 624 0
DWIDTH 13 0
BBX 9 19 2 -4
BITMAP
7800
F800
E000
C000
CF00
FF80
E380
E380
C180
C180
C180
C180
C180
C180
C180
0180
0380
0F80
0F00
ENDCHAR
STARTCHAR 0268
ENCODING 616
SWIDTH 288 0
DWIDTH 6 0
BBX 6 15 0 0
BITMAP
70
70
00
00
70
70
70
70
70
FC
70
70
70
70
70
ENDCHAR
STARTCHAR 0269
ENCODING 617
SWIDTH 288 0
DWIDTH 6 0
BBX 5 11 1 0
BITMAP
E0
E0
E0
E0
E0
E0
E0
E0
E0
F8
78
ENDCHAR
STARTCHAR 026A
ENCODING 618
SWIDTH 432 0
DWIDTH 9 0
BBX 7 11 1 0
BITMAP
FE
FE
38
38
38
38
38
38
38
FE
FE
ENDCHAR
STARTCHAR 026B
ENCODING 619
SWIDTH 336 0
DWIDTH 7 0
BBX 7 15 0 0
BITMAP
38
38
38
38
38
38
7A
FE
BC
38
38
38
38
38
38
ENDCHAR
STARTCHAR 026C
ENCODING 620
SWIDTH 336 0
DWIDTH 7 0
BBX 7 15 0 0
BITMAP
1C
1C
1C
1C
1C
7C
DC
DC
7E
1C
1C
1C
1C
1C
1C
ENDCHAR
STARTCHAR 026D
ENCODING 621
SWIDTH 288 0
DWIDTH 6 0
BBX 5 19 2 -4
BITMAP
C0
C0
C0
C0
C0
C0
C0
C0
C0
C0
C0
C0
C0
C0
C0
C0
E0
F0
78
ENDCHAR
STARTCHAR 026E
ENCODING 622
SWIDTH 624 0
DWIDTH 13 0
BBX 10 19 2 -4
BITMAP
C000
C000
C000
C000
FFC0
FFC0
C380
C700
CE00
DF00
DF80
C3C0
C1C0
C1C0
C1C0
01C0
E3C0
FF80
3E00
ENDCHAR
STARTCHAR 026F
ENCODING 623
SWIDTH 912 0
DWIDTH 19 0
BBX 16 11 1 0
BITMAP
E1C7
E1C7
E1C7
E1C7
E1C7
E1C7
E1C7
E1C7
F3C7
7FFF
3CF3
ENDCHAR
STARTCHAR 0270
ENCODING 624
SWIDTH 912 0
DWIDTH 19 0
BBX 16 15 1 -4
BITMAP
E1C7
E1C7
E1C7
E1C7
E1C7
E1C7
E1C7
E1C7
F3C7
7FFF
3CF7
0007
0007
0007
0007
ENDCHAR
STARTCHAR 0271
ENCODING 625
SWIDTH 912 0
DWIDTH 19 0
BBX 16 15 1 -4
BITMAP
EF1E
FFBF
F1E7
E1C7
E1C7
E1C7
E1C7
E1C7
E1C7
E1C7
E1C7
0007
0007
001F
001E
ENDCHAR
STARTCHAR 0272
ENCODING 626
SWIDTH 624 0
DWIDTH 13 0
BBX 12 15 -1 -4
BITMAP
39E0
3FF0
3C70
3C70
3830
3830
3830
3830
3830
3830
3830
3800
3800
F800
F000
ENDCHAR
STARTCHAR 0273
ENCODING 627
SWIDTH 624 0
DWIDTH 13 0
BBX 13 15 1 -4
BITMAP
E780
FFC0
F1C0
F1C0
E0C0
E0C0
E0C0
E0C0
E0C0
E0C0
E0C0
00C0
00F0
00F8
0078
ENDCHAR
STARTCHAR 0274
ENCODING 628
SWIDTH 624 0
DWIDTH 13 0
BBX 10 11 1 0
BITMAP
F0C0
F0C0
F8C0
FCC0
ECC0
EEC0
E6C0
E7C0
E3C0
E1C0
E1C0
ENDCHAR
STARTCHAR 0275
ENCODING 629
SWIDTH 624 0
DWIDTH 13 0
BBX 11 11 1 0
BITMAP
1F00
7F80
71C0
E0E0
FFE0
FFE0
E0E0
E0E0
71C0
7F80
1F00
ENDCHAR
STARTCHAR 0276
ENCODING 630
SWIDTH 864 0
DWIDTH 18 0
BBX 16 11 1 0
BITMAP
1FFF
7FFF
71E0
E0E0
E0FE
E0FE
E0E0
E0E0
71E0
7FFF
1EFF
ENDCHAR
STARTCHAR 0277
ENCODING 631
SWIDTH 864 0
DWIDTH 18 0
BBX 16 11 1 0
BITMAP
0FF0
3FFC
781E
F00E
E007
E387
E387
E387
E3CE
7FFE
3E7C
ENDCHAR
STARTCHAR 0278
ENCODING 632
SWIDTH 768 0
DWIDTH 16 0
BBX 14 19 1 -4
BITMAP
0700
0700
0700
0700
1FE0
7FF0
7738
E71C
E71C
E71C
E71C
E71C
7738
7FF0
1FE0
0700
0700
0700
0700
ENDCHAR
STARTCHAR 0279
ENCODING 633
SWIDTH 384 0
DWIDTH 8 0
BBX 7 11 0 0
BITMAP
0E
0E
0E
0E
0E
0E
0E
0E
1E
FE
EE
ENDCHAR
STARTCHAR 027A
ENCODING 634
SWIDTH 384 0
DWIDTH 8 0
BBX 7 15 0 0
BITMAP
0E
0E
0E
0E
0E
0E
0E
0E
0E
0E
0E
0E
1E
FE
EE
ENDCHAR
STARTCHAR 027B
ENCODING 635
SWIDTH 384 0
DWIDTH 8 0
BBX 9 15 0 -4
BITMAP
0E00
0E00
0E00
0E00
0E00
0E00
0E00
0E00
1E00
FE00
EE00
0E00
0E00
0F80
0780
ENDCHAR
STARTCHAR 027C
ENCODING 636
SWIDTH 384 0
DWIDTH 8 0
BBX 7 15 1 -4
BITMAP
EE
FE
F0
F0
E0
E0
E0
E0
E0
E0
E0
E0
E0
E0
E0
ENDCHAR
STARTCHAR 027D
ENCODING 637
SWIDTH 384 0
DWIDTH 8 0
BBX 7 15 1 -4
BITMAP
EE
FE
F0
F0
E0
E0
E0
E0
E0
E0
E0
E0
60
78
3C
ENDCHAR
STARTCHAR 027E
ENCODING 638
SWIDTH 384 0
DWIDTH 8 0
BBX 7 11 1 0
BITMAP
1E
7E
70
60
E0
E0
E0
E0
E0
E0
E0
ENDCHAR
STARTCHAR 027F
ENCODING 639
SWIDTH 384 0
DWIDTH 8 0
BBX 7 15 0 -4
BITMAP
F0
FC
1C
0E
0E
0E
0E
0E
0E
0E
0E
0E
0E
0E
0E
ENDCHAR
STARTCHAR 0280
ENCODING 640
SWIDTH 576 0
DWIDTH 12 0
BBX 11 11 1 0
BITMAP
FF80
FFC0
E1C0
E1C0
E1C0
FFC0
FF80
E780
E380
E1C0
E0E0
ENDCHAR
STARTCHAR 0281
ENCODING 641
SWIDTH 576 0
DWIDTH 12 0
BBX 11 11 1 0
BITMAP
E0E0
E1C0
E380
E780
FF80
FFC0
E1C0
E1C0
E1C0
FFC0
FF80
ENDCHAR
STARTCHAR 0282
ENCODING 642
SWIDTH 576 0
DWIDTH 12 0
BBX 10 15 1 -4
BITMAP
3F00
FF80
E380
E000
FE00
7F80
0FC0
01C0
E1C0
FF80
FE00
C000
E000
F000
7800
ENDCHAR
STARTCHAR 0283
ENCODING 643
SWIDTH 336 0
DWIDTH 7 0
BBX 9 19 -1 -4
BITMAP
0F80
0F80
1C00
1C00
1C00
1C00
1C00
1C00
1C00
1C00
1C00
1C00
1C00
1C00
1C00
1C00
1C00
7C00
F800
ENDCHAR
STARTCHAR 0284
ENCODING 644
SWIDTH 336 0
DWIDTH 7 0
BBX 9 19 -1 -4
BITMAP
0780
0F80
1C00
1C00
1C00
1C00
1C00
1C00
1C00
1C00
1C00
1C00
1C00
7F00
7F00
1C00
1C00
7C00
F800
ENDCHAR
STARTCHAR 0285
ENCODING 645
SWIDTH 336 0
DWIDTH 7 0
BBX 9 15 -1 -4
BITMAP
F800
F800
1C00
1C00
1C00
1C00
1C00
1C00
1C00
1C00
1C00
1C00
1C00
1F00
0F80
ENDCHAR
STARTCHAR 0286
ENCODING 646
SWIDTH 528 0
DWIDTH 11 0
BBX 12 19 0 -4
BITMAP
00F0
01F0
01C0
0180
0180
0180
0180
0180
0180
0180
0180
0180
0180
3D80
7F80
E780
E780
7FC0
3E80
ENDCHAR
STARTCHAR 0287
ENCODING 647
SWIDTH 336 0
DWIDTH 7 0
BBX 7 15 0 0
BITMAP
F0
F8
38
38
38
38
38
38
38
38
FE
FE
38
38
20
ENDCHAR
STARTCHAR 0288
ENCODING 648
SWIDTH 336 0
DWIDTH 7 0
BBX 7 18 0 -4
BITMAP
08
38
38
FE
FE
38
38
38
38
38
38
38
38
38
38
38
3E
1E
ENDCHAR
STARTCHAR 0289
ENCODING 649
SWIDTH 624 0
DWIDTH 13 0
BBX 13 11 0 0
BITMAP
70E0
70E0
70E0
70E0
70E0
FFF8
70E0
70E0
38E0
3FE0
1E60
ENDCHAR
STARTCHAR 028A
ENCODING 650
SWIDTH 624 0
DWIDTH 13 0
BBX 11 11 1 0
BITMAP
E0E0
F1E0
71C0
71C0
E0E0
E0E0
E0E0
E0E0
F1E0
7FC0
1F00
ENDCHAR
STARTCHAR 028B
ENCODING 651
SWIDTH 576 0
DWIDTH 12 0
BBX 10 11 1 0
BITMAP
E780
E7C0
E1C0
E1C0
E1C0
E1C0
61C0
61C0
7380
7F80
1E00
ENDCHAR
STARTCHAR 028C
ENCODING 652
SWIDTH 576 0
DWIDTH 12 0
BBX 11 11 0 0
BITMAP
0E00
0F00
0F00
1F80
1F80
3980
39C0
31C0
70E0
70E0
E0E0
ENDCHAR
STARTCHAR 028D
ENCODING 653
SWIDTH 768 0
DWIDTH 16 0
BBX 16 11 0 0
BITMAP
1C38
1E38
1E7C
3E7C
3F6C
376E
73EE
73CE
73C7
63C7
E1C7
ENDCHAR
STARTCHAR 028E
ENCODING 654
SWIDTH 576 0
DWIDTH 12 0
BBX 11 15 0 0
BITMAP
0380
0700
0700
0700
0E00
0F00
1F00
1F80
1F80
3B80
39C0
31C0
70E0
70E0
E0E0
ENDCHAR
STARTCHAR 028F
ENCODING 655
SWIDTH 576 0
DWIDTH 12 0
BBX 10 11 1 0
BITMAP
E1C0
E1C0
7380
3300
3F00
1E00
0C00
0C00
0C00
0C00
0C00
ENDCHAR
STARTCHAR 0290
ENCODING 656
SWIDTH 528 0
DWIDTH 11 0
BBX 12 15 0 -4
BITMAP
7FC0
7FC0
0380
0700
0F00
1E00
1C00
3800
7800
FFC0
FFC0
01C0
01C0
00F0
00F0
ENDCHAR
STARTCHAR 0291
ENCODING 657
SWIDTH 672 0
DWIDTH 14 0
BBX 14 13 0 -2
BITMAP
7FC0
7F80
0780
0700
0E00
1E78
3CFC
39DC
7B9C
FFFC
FFF0
0E00
0C00
ENDCHAR
STARTCHAR 0292
ENCODING 658
SWIDTH 528 0
DWIDTH 11 0
BBX 11 15 0 -4
BITMAP
7FC0
7FC0
03C0
0780
0F00
0F80
0FC0
01C0
01E0
00E0
00E0
E1C0
71C0
7F80
1F00
ENDCHAR
STARTCHAR 0293
ENCODING 659
SWIDTH 528 0
DWIDTH 11 0
BBX 11 15 0 -4
BITMAP
7FC0
7FC0
03C0
0780
0F00
0F80
0FC0
01C0
01E0
3CE0
7FE0
E3C0
E3C0
7FE0
3F40
ENDCHAR
STARTCHAR 0294
ENCODING 660
SWIDTH 576 0
DWIDTH 12 0
BBX 10 15 1 0
BITMAP
3E00
7F00
E380
E1C0
01C0
01C0
01C0
01C0
0380
1F80
1E00
1C00
1C00
1C00
1C00
ENDCHAR
STARTCHAR 0295
ENCODING 661
SWIDTH 576 0
DWIDTH 12 0
BBX 10 15 1 0
BITMAP
1F00
7F80
71C0
E1C0
E000
E000
E000
E000
F000
7E00
3E00
0E00
0E00
0E00
0E00
ENDCHAR
STARTCHAR 0296
ENCODING 662
SWIDTH 576 0
DWIDTH 12 0
BBX 10 15 1 0
BITMAP
1C00
1C00
1C00
1C00
1E00
1F80
0380
01C0
01C0
01C0
01C0
E1C0
E380
7F00
3E00
ENDCHAR
STARTCHAR 0297
ENCODING 663
SWIDTH 576 0
DWIDTH 12 0
BBX 10 15 1 -4
BITMAP
1F00
7F80
71C0
E1C0
E000
E000
E000
E000
E000
E000
E000
E1C0
71C0
7F80
1F00
ENDCHAR
STARTCHAR 0298
ENCODING 664
SWIDTH 768 0
DWIDTH 16 0
BBX 14 15 1 0
BITMAP
0FC0
3FF0
7FF8
787C
F01C
E01C
E39C
E39C
E39C
E01C
F03C
787C
7FF8
3FF0
0FC0
ENDCHAR
STARTCHAR 0299
ENCODING 665
SWIDTH 624 0
DWIDTH 13 0
BBX 10 11 2 0
BITMAP
FF00
FF80
C1C0
C1C0
FF80
FF80
C1C0
C1C0
C1C0
FFC0
FF80
ENDCHAR
STARTCHAR 029A
ENCODING 666
SWIDTH 576 0
DWIDTH 12 0
BBX 10 11 1 0
BITMAP
3E00
7F00
E380
E1C0
79C0
79C0
E1C0
E1C0
E380
FF80
3E00
ENDCHAR
STARTCHAR 029B
ENCODING 667
SWIDTH 576 0
DWIDTH 12 0
BBX 13 13 1 0
BITMAP
0078
00F8
1FE0
7FE0
71E0
E000
E000
E3E0
E3E0
E0E0
70E0
7FC0
1F80
ENDCHAR
STARTCHAR 029C
ENCODING 668
SWIDTH 624 0
DWIDTH 13 0
BBX 10 11 1 0
BITMAP
E1C0
E1C0
E1C0
E1C0
FFC0
FFC0
E1C0
E1C0
E1C0
E1C0
E1C0
ENDCHAR
STARTCHAR 029D
ENCODING 669
SWIDTH 480 0
DWIDTH 10 0
BBX 10 19 0 -4
BITMAP
0700
0700
0000
0000
0700
0700
0700
0700
0700
0700
0700
0700
0700
3FC0
7FC0
E700
E700
7E00
3C00
ENDCHAR
STARTCHAR 029E
ENCODING 670
SWIDTH 576 0
DWIDTH 12 0
BBX 10 15 0 -4
BITMAP
F1C0
71C0
39C0
39C0
1FC0
1FC0
0FC0
0FC0
1DC0
39C0
71C0
01C0
01C0
01C0
01C0
ENDCHAR
STARTCHAR 029F
ENCODING 671
SWIDTH 480 0
DWIDTH 10 0
BBX 8 11 1 0
BITMAP
E0
E0
E0
E0
E0
E0
E0
E0
E0
FF
FF
ENDCHAR
STARTCHAR 02A0
ENCODING 672
SWIDTH 624 0
DWIDTH 13 0
BBX 13 19 1 -4
BITMAP
0078
00F8
00E0
00E0
3EE0
7FE0
71E0
E1E0
E0E0
E0E0
E0E0
E1E0
71E0
7FE0
3EE0
00E0
00E0
00E0
00E0
ENDCHAR
STARTCHAR 02A1
ENCODING 673
SWIDTH 576 0
DWIDTH 12 0
BBX 10 15 1 0
BITMAP
3E00
7F00
E380
E1C0
01C0
01C0
01C0
01C0
0380
1F80
1E00
1C00
FF80
FF80
1C00
ENDCHAR
STARTCHAR 02A2
ENCODING 674
SWIDTH 576 0
DWIDTH 12 0
BBX 10 15 1 0
BITMAP
1F00
7F80
71C0
E1C0
E000
E000
E000
E000
F000
7E00
3E00
0E00
FFC0
FFC0
0E00
ENDCHAR
STARTCHAR 02A3
ENCODING 675
SWIDTH 1056 0
DWIDTH 22 0
BBX 20 15 1 0
BITMAP
00E000
00E000
00E000
00E000
3EFFF0
7FFFF0
F1E0E0
E1E1C0
E0E3C0
E0E780
E0E700
E1EE00
71FE00
7FFFF0
3EFFF0
ENDCHAR
STARTCHAR 02A4
ENCODING 676
SWIDTH 960 0
DWIDTH 20 0
BBX 18 19 1 -4
BITMAP
00E000
00E000
00E000
00E000
3EFFC0
7FFFC0
F1E380
E1E700
E0EE00
E0EF00
E0EF80
E1E3C0
71E1C0
7FE1C0
3EE1C0
0001C0
00E3C0
00FF80
003F00
ENDCHAR
STARTCHAR 02A5
ENCODING 677
SWIDTH 1200 0
DWIDTH 25 0
BBX 24 17 1 -2
BITMAP
00E000
00E000
00E000
00E000
3EFFF0
7FFFF0
F1E0E0
E1E1C0
E0E380
E0E79E
E0EF3F
E1EE77
71FEE7
7FFFFF
3EFFFE
000380
000100
ENDCHAR
STARTCHAR 02A6
ENCODING 678
SWIDTH 816 0
DWIDTH 17 0
BBX 16 14 0 0
BITMAP
0800
3800
3800
FFFC
FFFE
3B87
3B80
39F8
39FE
383F
3807
3807
3FFE
1FFC
ENDCHAR
STARTCHAR 02A7
ENCODING 679
SWIDTH 528 0
DWIDTH 11 0
BBX 12 19 0 -4
BITMAP
00F0
09F0
39C0
3B80
FF80
FF80
3B80
3B80
3B80
3B80
3B80
3B80
3B80
3F80
1F80
0380
0380
0F80
0F00
ENDCHAR
STARTCHAR 02A8
ENCODING 680
SWIDTH 816 0
DWIDTH 17 0
BBX 17 14 0 0
BITMAP
080000
380000
380000
FE7C00
FEFF00
39C700
39C380
39C000
3B9E00
39FF00
39E380
3BE380
3FFF00
1E3E00
ENDCHAR
STARTCHAR 02A9
ENCODING 681
SWIDTH 864 0
DWIDTH 18 0
BBX 17 19 0 -4
BITMAP
1F0000
3E0000
380000
380000
FFDE00
FFFF00
39E780
39C380
39C380
39C380
39C380
39C380
39C380
39C380
39C380
000380
000380
000F00
000F00
ENDCHAR
STARTCHAR 02AA
ENCODING 682
SWIDTH 768 0
DWIDTH 16 0
BBX 13 15 2 0
BITMAP
C000
C000
C000
C000
C7E0
CFF0
CC38
CE00
CFC0
C7F0
C1F8
C038
F038
FFF0
DFE0
ENDCHAR
STARTCHAR 02AB
ENCODING 683
SWIDTH 720 0
DWIDTH 15 0
BBX 12 15 2 0
BITMAP
C000
C000
C000
C000
FFF0
FFF0
C0E0
C1C0
C3C0
C780
C700
CE00
DE00
FFF0
FFF0
ENDCHAR
STARTCHAR 02AC
ENCODING 684
SWIDTH 528 0
DWIDTH 11 0
BBX 11 15 0 0
BITMAP
C660
6E40
6EC0
6AC0
3B80
3B80
3980
0000
C660
6E40
6EC0
6AC0
3B80
3B80
3980
ENDCHAR
STARTCHAR 02AD
ENCODING 685
SWIDTH 576 0
DWIDTH 12 0
BBX 9 15 1 0
BITMAP
FF80
FF80
FF80
E180
E180
0000
0000
0000
0000
0000
FF80
FF80
FF80
E180
E180
ENDCHAR
STARTCHAR 02AE
ENCODING 686
SWIDTH 720 0
DWIDTH 15 0
BBX 14 15 0 -4
BITMAP
F01C
FC1C
1C1C
0E1C
0E1C
0E1C
0E1C
0E1C
0E3C
07FC
03DC
001C
001C
001C
001C
ENDCHAR
STARTCHAR 02AF
ENCODING 687
SWIDTH 720 0
DWIDTH 15 0
BBX 18 15 0 -4
BITMAP
F01C00
FC1C00
1C1C00
0E1C00
0E1C00
0E1C00
0E1C00
0E1C00
0E3C00
07FC00
03DC00
001C00
001C00
000FC0
0007C0
ENDCHAR
STARTCHAR 02B0
ENCODING 688
SWIDTH 384 0
DWIDTH 8 0
BBX 6 10 1 5
BITMAP
80
80
80
B8
BC
CC
8C
8C
8C
8C
ENDCHAR
STARTCHAR 02B1
ENCODING 689
SWIDTH 384 0
DWIDTH 8 0
BBX 6 10 1 5
BITMAP
E0
E0
C0
B8
BC
CC
8C
8C
8C
8C
ENDCHAR
STARTCHAR 02B2
ENCODING 690
SWIDTH 192 0
DWIDTH 4 0
BBX 3 13 0 2
BITMAP
60
60
00
60
60
60
60
60
60
60
60
E0
E0
ENDCHAR
STARTCHAR 02B3
ENCODING 691
SWIDTH 240 0
DWIDTH 5 0
BBX 4 7 1 5
BITMAP
B0
F0
C0
C0
80
80
80
ENDCHAR
STARTCHAR 02B4
ENCODING 692
SWIDTH 240 0
DWIDTH 5 0
BBX 5 7 0 5
BITMAP
18
18
18
18
38
F8
D8
ENDCHAR
STARTCHAR 02B5
ENCODING 693
SWIDTH 240 0
DWIDTH 5 0
BBX 6 10 0 2
BITMAP
18
18
18
18
38
F8
D8
18
1C
0C
ENDCHAR
STARTCHAR 02B6
ENCODING 694
SWIDTH 384 0
DWIDTH 8 0
BBX 7 7 1 5
BITMAP
8E
8C
98
FC
8C
8C
FC
ENDCHAR
STARTCHAR 02B7
ENCODING 695
SWIDTH 528 0
DWIDTH 11 0
BBX 11 7 0 5
BITMAP
CE60
4E40
6EC0
6AC0
3B80
3B80
3180
ENDCHAR
STARTCHAR 02B8
ENCODING 696
SWIDTH 384 0
DWIDTH 8 0
BBX 7 10 0 2
BITMAP
C6
66
66
6C
3C
38
18
38
70
70
ENDCHAR
STARTCHAR 02B9
ENCODING 697
SWIDTH 240 0
DWIDTH 5 0
BBX 3 5 1 10
BITMAP
E0
E0
E0
E0
E0
ENDCHAR
STARTCHAR 02BA
ENCODING 698
SWIDTH 480 0
DWIDTH 10 0
BBX 8 5 1 10
BITMAP
E7
E7
E7
E7
67
ENDCHAR
STARTCHAR 02BB
ENCODING 699
SWIDTH 288 0
DWIDTH 6 0
BBX 2 6 2 9
BITMAP
40
C0
80
C0
C0
C0
ENDCHAR
STARTCHAR 02BC
ENCODING 700
SWIDTH 288 0
DWIDTH 6 0
BBX 3 6 1 9
BITMAP
E0
E0
E0
20
60
C0
ENDCHAR
STARTCHAR 02BD
ENCODING 701
SWIDTH 288 0
DWIDTH 6 0
BBX 2 6 2 9
BITMAP
C0
C0
C0
80
C0
40
ENDCHAR
STARTCHAR 02BE
ENCODING 702
SWIDTH 336 0
DWIDTH 7 0
BBX 2 4 2 13
BITMAP
C0
40
40
C0
ENDCHAR
STARTCHAR 02BF
ENCODING 703
SWIDTH 336 0
DWIDTH 7 0
BBX 2 4 3 13
BITMAP
C0
80
80
C0
ENDCHAR
STARTCHAR 02C0
ENCODING 704
SWIDTH 384 0
DWIDTH 8 0
BBX 6 10 1 5
BITMAP
78
FC
CC
0C
0C
3C
38
30
30
30
ENDCHAR
STARTCHAR 02C1
ENCODING 705
SWIDTH 384 0
DWIDTH 8 0
BBX 6 10 1 5
BITMAP
78
FC
CC
C0
C0
F0
70
30
30
30
ENDCHAR
STARTCHAR 02C2
ENCODING 706
SWIDTH 576 0
DWIDTH 12 0
BBX 10 11 1 2
BITMAP
0040
01C0
0FC0
3F80
FC00
E000
FC00
3F80
0FC0
01C0
0040
ENDCHAR
STARTCHAR 02C3
ENCODING 707
SWIDTH 576 0
DWIDTH 12 0
BBX 10 11 1 2
BITMAP
8000
F000
FC00
7F00
0FC0
01C0
0FC0
7F00
FC00
F000
8000
ENDCHAR
STARTCHAR 02C4
ENCODING 708
SWIDTH 576 0
DWIDTH 12 0
BBX 11 10 1 2
BITMAP
0E00
1E00
1F00
3B00
3300
7380
7180
61C0
E1C0
E0E0
ENDCHAR
STARTCHAR 02C5
ENCODING 709
SWIDTH 576 0
DWIDTH 12 0
BBX 11 10 1 2
BITMAP
E0E0
E1C0
61C0
7180
7380
3300
3B00
1F00
1E00
0E00
ENDCHAR
STARTCHAR 02C6
ENCODING 710
SWIDTH 336 0
DWIDTH 7 0
BBX 7 3 0 12
BITMAP
38
6C
EE
ENDCHAR
STARTCHAR 02C7
ENCODING 711
SWIDTH 336 0
DWIDTH 7 0
BBX 7 3 0 12
BITMAP
EE
6C
38
ENDCHAR
STARTCHAR 02C8
ENCODING 712
SWIDTH 336 0
DWIDTH 7 0
BBX 1 3 3 13
BITMAP
80
80
80
ENDCHAR
STARTCHAR 02C9
ENCODING 713
SWIDTH 336 0
DWIDTH 7 0
BBX 7 2 0 13
BITMAP
FE
FE
ENDCHAR
STARTCHAR 02CA
ENCODING 714
SWIDTH 336 0
DWIDTH 7 0
BBX 4 3 2 13
BITMAP
70
60
C0
ENDCHAR
STARTCHAR 02CB
ENCODING 715
SWIDTH 336 0
DWIDTH 7 0
BBX 4 3 1 13
BITMAP
E0
60
30
ENDCHAR
STARTCHAR 02CC
ENCODING 716
SWIDTH 336 0
DWIDTH 7 0
BBX 1 3 3 -4
BITMAP
80
80
80
ENDCHAR
STARTCHAR 02CD
ENCODING 717
SWIDTH 336 0
DWIDTH 7 0
BBX 7 2 0 -3
BITMAP
FE
FE
ENDCHAR
STARTCHAR 02CE
ENCODING 718
SWIDTH 336 0
DWIDTH 7 0
BBX 4 3 1 -4
BITMAP
E0
60
30
ENDCHAR
STARTCHAR 02CF
ENCODING 719
SWIDTH 336 0
DWIDTH 7 0
BBX 4 3 2 -4
BITMAP
70
60
C0
ENDCHAR
STARTCHAR 02D0
ENCODING 720
SWIDTH 336 0
DWIDTH 7 0
BBX 3 11 2 0
BITMAP
E0
60
40
00
00
00
00
00
40
60
E0
ENDCHAR
STARTCHAR 02D1
ENCODING 721
SWIDTH 336 0
DWIDTH 7 0
BBX 3 3 2 8
BITMAP
E0
60
40
ENDCHAR
STARTCHAR 02D2
ENCODING 722
SWIDTH 336 0
DWIDTH 7 0
BBX 2 4 2 1
BITMAP
C0
40
40
C0
ENDCHAR
STARTCHAR 02D3
ENCODING 723
SWIDTH 336 0
DWIDTH 7 0
BBX 2 4 3 1
BITMAP
C0
80
80
C0
ENDCHAR
STARTCHAR 02D4
ENCODING 724
SWIDTH 336 0
DWIDTH 7 0
BBX 3 3 2 2
BITMAP
40
40
E0
ENDCHAR
STARTCHAR 02D5
ENCODING 725
SWIDTH 336 0
DWIDTH 7 0
BBX 3 3 2 2
BITMAP
E0
40
40
ENDCHAR
STARTCHAR 02D6
ENCODING 726
SWIDTH 336 0
DWIDTH 7 0
BBX 3 3 2 2
BITMAP
40
E0
40
ENDCHAR
STARTCHAR 02D7
ENCODING 727
SWIDTH 336 0
DWIDTH 7 0
BBX 7 2 0 3
BITMAP
FE
FE
ENDCHAR
STARTCHAR 02D8
ENCODING 728
SWIDTH 336 0
DWIDTH 7 0
BBX 7 3 0 12
BITMAP
C6
7C
38
ENDCHAR
STARTCHAR 02D9
ENCODING 729
SWIDTH 336 0
DWIDTH 7 0
BBX 3 3 2 12
BITMAP
E0
E0
E0
ENDCHAR
STARTCHAR 02DA
ENCODING 730
SWIDTH 336 0
DWIDTH 7 0
BBX 3 4 2 11
BITMAP
E0
A0
A0
E0
ENDCHAR
STARTCHAR 02DB
ENCODING 731
SWIDTH 336 0
DWIDTH 7 0
BBX 3 4 1 -4
BITMAP
C0
C0
E0
E0
ENDCHAR
STARTCHAR 02DC
ENCODING 732
SWIDTH 336 0
DWIDTH 7 0
BBX 7 3 0 12
BITMAP
62
FE
9C
ENDCHAR
STARTCHAR 02DD
ENCODING 733
SWIDTH 336 0
DWIDTH 7 0
BBX 8 3 1 12
BITMAP
77
66
CC
ENDCHAR
STARTCHAR 02DE
ENCODING 734
SWIDTH 336 0
DWIDTH 7 0
BBX 6 4 0 5
BITMAP
C0
E4
7C
3C
ENDCHAR
STARTCHAR 02DF
ENCODING 735
SWIDTH 336 0
DWIDTH 7 0
BBX 7 7 0 8
BITMAP
82
C6
28
10
28
C6
82
ENDCHAR
STARTCHAR 02E0
ENCODING 736
SWIDTH 384 0
DWIDTH 8 0
BBX 7 10 0 2
BITMAP
C6
66
6C
3C
38
18
38
3C
3C
3C
ENDCHAR
STARTCHAR 02E1
ENCODING 737
SWIDTH 144 0
DWIDTH 3 0
BBX 1 10 1 5
BITMAP
80
80
80
80
80
80
80
80
80
80
ENDCHAR
STARTCHAR 02E2
ENCODING 738
SWIDTH 384 0
DWIDTH 8 0
BBX 6 7 1 5
BITMAP
78
CC
C0
F8
1C
CC
78
ENDCHAR
STARTCHAR 02E3
ENCODING 739
SWIDTH 384 0
DWIDTH 8 0
BBX 7 7 0 5
BITMAP
E6
7C
3C
18
3C
6E
E6
ENDCHAR
STARTCHAR 02E4
ENCODING 740
SWIDTH 384 0
DWIDTH 8 0
BBX 6 10 1 5
BITMAP
78
FC
CC
C0
C0
F0
70
30
30
30
ENDCHAR
STARTCHAR 02E5
ENCODING 741
SWIDTH 384 0
DWIDTH 8 0
BBX 5 15 2 0
BITMAP
F8
F8
18
18
18
18
18
18
18
18
18
18
18
18
18
ENDCHAR
STARTCHAR 02E6
ENCODING 742
SWIDTH 384 0
DWIDTH 8 0
BBX 5 15 2 0
BITMAP
18
18
18
F8
F8
18
18
18
18
18
18
18
18
18
18
ENDCHAR
STARTCHAR 02E7
ENCODING 743
SWIDTH 384 0
DWIDTH 8 0
BBX 5 15 2 0
BITMAP
18
18
18
18
18
18
F8
F8
18
18
18
18
18
18
18
ENDCHAR
STARTCHAR 02E8
ENCODING 744
SWIDTH 384 0
DWIDTH 8 0
BBX 5 15 2 0
BITMAP
18
18
18
18
18
18
18
18
18
18
F8
F8
18
18
18
ENDCHAR
STARTCHAR 02E9
ENCODING 745
SWIDTH 384 0
DWIDTH 8 0
BBX 5 15 2 0
BITMAP
18
18
18
18
18
18
18
18
18
18
18
18
18
F8
F8
ENDCHAR
STARTCHAR 02EA
ENCODING 746
SWIDTH 336 0
DWIDTH 7 0
BBX 5 9 1 0
BITMAP
80
80
80
80
80
80
80
80
F8
ENDCHAR
STARTCHAR 02EB
ENCODING 747
SWIDTH 336 0
DWIDTH 7 0
BBX 5 9 1 0
BITMAP
80
80
80
80
F8
80
80
80
80
ENDCHAR
STARTCHAR 02EC
ENCODING 748
SWIDTH 336 0
DWIDTH 7 0
BBX 7 3 0 -4
BITMAP
EE
6C
38
ENDCHAR
STARTCHAR 02ED
ENCODING 749
SWIDTH 336 0
DWIDTH 7 0
BBX 7 5 0 13
BITMAP
FE
FE
00
FE
FE
ENDCHAR
STARTCHAR 02EE
ENCODING 750
SWIDTH 528 0
DWIDTH 11 0
BBX 8 6 1 9
BITMAP
E7
E7
E7
23
63
C6
ENDCHAR
STARTCHAR 02EF
ENCODING 751
SWIDTH 336 0
DWIDTH 7 0
BBX 3 3 2 -4
BITMAP
A0
A0
40
ENDCHAR
STARTCHAR 02F0
ENCODING 752
SWIDTH 336 0
DWIDTH 7 0
BBX 3 3 2 -4
BITMAP
40
A0
A0
ENDCHAR
STARTCHAR 02F1
ENCODING 753
SWIDTH 336 0
DWIDTH 7 0
BBX 3 4 2 -4
BITMAP
20
C0
C0
20
ENDCHAR
STARTCHAR 02F2
ENCODING 754
SWIDTH 336 0
DWIDTH 7 0
BBX 3 4 2 -4
BITMAP
80
60
60
80
ENDCHAR
STARTCHAR 02F3
ENCODING 755
SWIDTH 336 0
DWIDTH 7 0
BBX 3 4 2 -5
BITMAP
E0
A0
A0
E0
ENDCHAR
STARTCHAR 02F4
ENCODING 756
SWIDTH 336 0
DWIDTH 7 0
BBX 4 3 1 2
BITMAP
E0
60
30
ENDCHAR
STARTCHAR 02F5
ENCODING 757
SWIDTH 336 0
DWIDTH 7 0
BBX 7 3 0 2
BITMAP
EC
66
76
ENDCHAR
STARTCHAR 02F6
ENCODING 758
SWIDTH 336 0
DWIDTH 7 0
BBX 7 3 0 2
BITMAP
6E
CC
DC
ENDCHAR
STARTCHAR 02F7
ENCODING 759
SWIDTH 336 0
DWIDTH 7 0
BBX 7 3 0 -4
BITMAP
62
FE
9C
ENDCHAR
STARTCHAR 02F8
ENCODING 760
SWIDTH 336 0
DWIDTH 7 0
BBX 3 11 2 4
BITMAP
E0
E0
E0
00
00
00
00
00
E0
E0
E0
ENDCHAR
STARTCHAR 02F9
ENCODING 761
SWIDTH 336 0
DWIDTH 7 0
BBX 3 3 2 12
BITMAP
E0
80
80
ENDCHAR
STARTCHAR 02FA
ENCODING 762
SWIDTH 336 0
DWIDTH 7 0
BBX 3 3 2 12
BITMAP
E0
20
20
ENDCHAR
STARTCHAR 02FB
ENCODING 763
SWIDTH 336 0
DWIDTH 7 0
BBX 3 3 2 -4
BITMAP
80
80
E0
ENDCHAR
STARTCHAR 02FC
ENCODING 764
SWIDTH 336 0
DWIDTH 7 0
BBX 3 3 2 -4
BITMAP
20
20
E0
ENDCHAR
STARTCHAR 02FD
ENCODING 765
SWIDTH 384 0
DWIDTH 8 0
BBX 8 4 0 -5
BITMAP
C3
C3
FF
FF
ENDCHAR
STARTCHAR 02FE
ENCODING 766
SWIDTH 384 0
DWIDTH 8 0
BBX 8 4 0 -5
BITMAP
C0
C0
FF
FF
ENDCHAR
STARTCHAR 02FF
ENCODING 767
SWIDTH 336 0
DWIDTH 7 0
BBX 5 5 1 -4
BITMAP
40
80
F8
80
40
ENDCHAR
STARTCHAR 0300
ENCODING 768
SWIDTH 0 0
DWIDTH 0 0
BBX 4 3 -6 16
BITMAP
E0
70
30
ENDCHAR
STARTCHAR 0301
ENCODING 769
SWIDTH 0 0
DWIDTH 0 0
BBX 4 3 -4 16
BITMAP
70
E0
C0
ENDCHAR
STARTCHAR 0302
ENCODING 770
SWIDTH 0 0
DWIDTH 0 0
BBX 6 3 -3 13
BITMAP
78
78
CC
ENDCHAR
STARTCHAR 0303
ENCODING 771
SWIDTH 0 0
DWIDTH 0 0
BBX 6 2 -9 16
BITMAP
E4
9C
ENDCHAR
STARTCHAR 0304
ENCODING 772
SWIDTH 0 0
DWIDTH 0 0
BBX 6 2 -3 13
BITMAP
FC
FC
ENDCHAR
STARTCHAR 0305
ENCODING 773
SWIDTH 0 0
DWIDTH 0 0
BBX 12 2 -6 16
BITMAP
FFF0
FFF0
ENDCHAR
STARTCHAR 0306
ENCODING 774
SWIDTH 0 0
DWIDTH 0 0
BBX 6 3 -3 13
BITMAP
84
FC
78
ENDCHAR
STARTCHAR 0307
ENCODING 775
SWIDTH 0 0
DWIDTH 0 0
BBX 2 3 -1 13
BITMAP
C0
C0
C0
ENDCHAR
STARTCHAR 0308
ENCODING 776
SWIDTH 0 0
DWIDTH 0 0
BBX 6 2 -3 13
BITMAP
CC
CC
ENDCHAR
STARTCHAR 0309
ENCODING 777
SWIDTH 0 0
DWIDTH 0 0
BBX 4 3 -5 16
BITMAP
F0
10
20
ENDCHAR
STARTCHAR 030A
ENCODING 778
SWIDTH 0 0
DWIDTH 0 0
BBX 4 4 -2 13
BITMAP
60
90
90
60
ENDCHAR
STARTCHAR 030B
ENCODING 779
SWIDTH 0 0
DWIDTH 0 0
BBX 8 3 -4 13
BITMAP
77
6E
CC
ENDCHAR
STARTCHAR 030C
ENCODING 780
SWIDTH 0 0
DWIDTH 0 0
BBX 6 3 -3 13
BITMAP
CC
78
78
ENDCHAR
STARTCHAR 030D
ENCODING 781
SWIDTH 0 0
DWIDTH 0 0
BBX 2 3 -1 13
BITMAP
C0
C0
C0
ENDCHAR
STARTCHAR 030E
ENCODING 782
SWIDTH 0 0
DWIDTH 0 0
BBX 4 3 -2 13
BITMAP
90
90
90
ENDCHAR
STARTCHAR 030F
ENCODING 783
SWIDTH 0 0
DWIDTH 0 0
BBX 8 3 -4 13
BITMAP
EE
76
33
ENDCHAR
STARTCHAR 0310
ENCODING 784
SWIDTH 0 0
DWIDTH 0 0
BBX 6 6 -3 13
BITMAP
30
30
30
84
FC
78
ENDCHAR
STARTCHAR 0311
ENCODING 785
SWIDTH 0 0
DWIDTH 0 0
BBX 6 3 -3 13
BITMAP
78
FC
84
ENDCHAR
STARTCHAR 0312
ENCODING 786
SWIDTH 0 0
DWIDTH 0 0
BBX 3 6 -2 9
BITMAP
20
60
40
E0
E0
E0
ENDCHAR
STARTCHAR 0313
ENCODING 787
SWIDTH 0 0
DWIDTH 0 0
BBX 3 6 -1 9
BITMAP
E0
E0
E0
40
C0
80
ENDCHAR
STARTCHAR 0314
ENCODING 788
SWIDTH 0 0
DWIDTH 0 0
BBX 3 6 -2 9
BITMAP
E0
E0
E0
40
60
20
ENDCHAR
STARTCHAR 0315
ENCODING 789
SWIDTH 0 0
DWIDTH 0 0
BBX 3 6 0 9
BITMAP
E0
E0
E0
20
60
C0
ENDCHAR
STARTCHAR 0316
ENCODING 790
SWIDTH 0 0
DWIDTH 0 0
BBX 4 3 -2 -4
BITMAP
E0
70
30
ENDCHAR
STARTCHAR 0317
ENCODING 791
SWIDTH 0 0
DWIDTH 0 0
BBX 4 3 -2 -4
BITMAP
70
E0
C0
ENDCHAR
STARTCHAR 0318
ENCODING 792
SWIDTH 0 0
DWIDTH 0 0
BBX 4 3 -2 -4
BITMAP
10
F0
10
ENDCHAR
STARTCHAR 0319
ENCODING 793
SWIDTH 0 0
DWIDTH 0 0
BBX 4 3 -2 -4
BITMAP
80
F0
80
ENDCHAR
STARTCHAR 031A
ENCODING 794
SWIDTH 0 0
DWIDTH 0 0
BBX 8 5 -4 13
BITMAP
FF
FF
03
03
03
ENDCHAR
STARTCHAR 031B
ENCODING 795
SWIDTH 0 0
DWIDTH 0 0
BBX 4 6 0 9
BITMAP
70
70
70
30
60
C0
ENDCHAR
STARTCHAR 031C
ENCODING 796
SWIDTH 0 0
DWIDTH 0 0
BBX 2 4 -1 -5
BITMAP
40
80
80
40
ENDCHAR
STARTCHAR 031D
ENCODING 797
SWIDTH 0 0
DWIDTH 0 0
BBX 4 3 -2 -4
BITMAP
60
60
F0
ENDCHAR
STARTCHAR 031E
ENCODING 798
SWIDTH 0 0
DWIDTH 0 0
BBX 4 3 -2 -4
BITMAP
F0
60
60
ENDCHAR
STARTCHAR 031F
ENCODING 799
SWIDTH 0 0
DWIDTH 0 0
BBX 4 3 -2 -4
BITMAP
60
F0
60
ENDCHAR
STARTCHAR 0320
ENCODING 800
SWIDTH 0 0
DWIDTH 0 0
BBX 6 2 -3 -3
BITMAP
FC
FC
ENDCHAR
STARTCHAR 0321
ENCODING 801
SWIDTH 0 0
DWIDTH 0 0
BBX 5 5 -2 -4
BITMAP
38
38
38
F8
F0
ENDCHAR
STARTCHAR 0322
ENCODING 802
SWIDTH 0 0
DWIDTH 0 0
BBX 5 5 0 -4
BITMAP
E0
E0
E0
F8
78
ENDCHAR
STARTCHAR 0323
ENCODING 803
SWIDTH 0 0
DWIDTH 0 0
BBX 3 3 -10 -4
BITMAP
E0
E0
E0
ENDCHAR
STARTCHAR 0324
ENCODING 804
SWIDTH 0 0
DWIDTH 0 0
BBX 6 2 -3 -4
BITMAP
CC
CC
ENDCHAR
STARTCHAR 0325
ENCODING 805
SWIDTH 0 0
DWIDTH 0 0
BBX 4 4 -2 -5
BITMAP
60
90
90
60
ENDCHAR
STARTCHAR 0326
ENCODING 806
SWIDTH 0 0
DWIDTH 0 0
BBX 4 4 -2 -5
BITMAP
F0
F0
20
40
ENDCHAR
STARTCHAR 0327
ENCODING 807
SWIDTH 0 0
DWIDTH 0 0
BBX 6 4 -3 -4
BITMAP
78
0C
0C
F8
ENDCHAR
STARTCHAR 0328
ENCODING 808
SWIDTH 0 0
DWIDTH 0 0
BBX 4 4 -2 -4
BITMAP
60
C0
F0
70
ENDCHAR
STARTCHAR 0329
ENCODING 809
SWIDTH 0 0
DWIDTH 0 0
BBX 2 3 -1 -4
BITMAP
C0
C0
C0
ENDCHAR
STARTCHAR 032A
ENCODING 810
SWIDTH 0 0
DWIDTH 0 0
BBX 8 4 -4 -5
BITMAP
FF
FF
C3
C3
ENDCHAR
STARTCHAR 032B
ENCODING 811
SWIDTH 0 0
DWIDTH 0 0
BBX 6 2 -3 -3
BITMAP
A4
FC
ENDCHAR
STARTCHAR 032C
ENCODING 812
SWIDTH 0 0
DWIDTH 0 0
BBX 6 3 -3 -4
BITMAP
CC
78
78
ENDCHAR
STARTCHAR 032D
ENCODING 813
SWIDTH 0 0
DWIDTH 0 0
BBX 6 3 -3 -4
BITMAP
78
78
CC
ENDCHAR
STARTCHAR 032E
ENCODING 814
SWIDTH 0 0
DWIDTH 0 0
BBX 6 3 -3 -4
BITMAP
84
FC
78
ENDCHAR
STARTCHAR 032F
ENCODING 815
SWIDTH 0 0
DWIDTH 0 0
BBX 6 3 -3 -4
BITMAP
78
FC
84
ENDCHAR
STARTCHAR 0330
ENCODING 816
SWIDTH 0 0
DWIDTH 0 0
BBX 8 3 -4 -4
BITMAP
73
7E
CE
ENDCHAR
STARTCHAR 0331
ENCODING 817
SWIDTH 0 0
DWIDTH 0 0
BBX 6 2 -3 -3
BITMAP
FC
FC
ENDCHAR
STARTCHAR 0332
ENCODING 818
SWIDTH 0 0
DWIDTH 0 0
BBX 12 2 -6 -4
BITMAP
FFF0
FFF0
ENDCHAR
STARTCHAR 0333
ENCODING 819
SWIDTH 0 0
DWIDTH 0 0
BBX 6 6 -3 -8
BITMAP
FC
FC
00
00
FC
FC
ENDCHAR
STARTCHAR 0334
ENCODING 820
SWIDTH 0 0
DWIDTH 0 0
BBX 8 3 -4 2
BITMAP
73
7E
CE
ENDCHAR
STARTCHAR 0335
ENCODING 821
SWIDTH 0 0
DWIDTH 0 0
BBX 6 2 -3 3
BITMAP
FC
FC
ENDCHAR
STARTCHAR 0336
ENCODING 822
SWIDTH 0 0
DWIDTH 0 0
BBX 12 2 -6 3
BITMAP
FFF0
FFF0
ENDCHAR
STARTCHAR 0337
ENCODING 823
SWIDTH 0 0
DWIDTH 0 0
BBX 10 10 -5 0
BITMAP
0080
01C0
0380
0700
0E00
1C00
3800
7000
E000
4000
ENDCHAR
STARTCHAR 0338
ENCODING 824
SWIDTH 0 0
DWIDTH 0 0
BBX 6 15 -3 0
BITMAP
0C
1C
18
18
18
38
30
30
30
70
60
60
60
E0
C0
ENDCHAR
STARTCHAR 0339
ENCODING 825
SWIDTH 0 0
DWIDTH 0 0
BBX 2 4 -1 -5
BITMAP
80
40
40
80
ENDCHAR
STARTCHAR 033A
ENCODING 826
SWIDTH 0 0
DWIDTH 0 0
BBX 8 4 -4 -5
BITMAP
C3
C3
FF
FF
ENDCHAR
STARTCHAR 033B
ENCODING 827
SWIDTH 0 0
DWIDTH 0 0
BBX 4 4 -2 -5
BITMAP
F0
90
90
F0
ENDCHAR
STARTCHAR 033C
ENCODING 828
SWIDTH 0 0
DWIDTH 0 0
BBX 6 2 -3 -3
BITMAP
FC
B4
ENDCHAR
STARTCHAR 033D
ENCODING 829
SWIDTH 0 0
DWIDTH 0 0
BBX 4 5 -2 13
BITMAP
90
F0
60
F0
90
ENDCHAR
STARTCHAR 033E
ENCODING 830
SWIDTH 0 0
DWIDTH 0 0
BBX 2 5 -1 13
BITMAP
C0
80
C0
40
C0
ENDCHAR
STARTCHAR 033F
ENCODING 831
SWIDTH 0 0
DWIDTH 0 0
BBX 12 3 -6 16
BITMAP
FFF0
0000
FFF0
ENDCHAR
STARTCHAR 0340
ENCODING 832
SWIDTH 0 0
DWIDTH 0 0
BBX 4 3 -4 13
BITMAP
E0
60
30
ENDCHAR
STARTCHAR 0341
ENCODING 833
SWIDTH 0 0
DWIDTH 0 0
BBX 4 3 0 13
BITMAP
70
60
C0
ENDCHAR
STARTCHAR 0342
ENCODING 834
SWIDTH 0 0
DWIDTH 0 0
BBX 8 3 -4 13
BITMAP
73
7E
CE
ENDCHAR
STARTCHAR 0343
ENCODING 835
SWIDTH 0 0
DWIDTH 0 0
BBX 3 6 -1 9
BITMAP
E0
E0
E0
40
C0
80
ENDCHAR
STARTCHAR 0344
ENCODING 836
SWIDTH 0 0
DWIDTH 0 0
BBX 10 3 -5 13
BITMAP
0E00
CCC0
D8C0
ENDCHAR
STARTCHAR 0345
ENCODING 837
SWIDTH 0 0
DWIDTH 0 0
BBX 2 4 -1 -5
BITMAP
C0
C0
C0
C0
ENDCHAR
STARTCHAR 0346
ENCODING 838
SWIDTH 0 0
DWIDTH 0 0
BBX 8 4 -4 13
BITMAP
FF
FF
C3
C3
ENDCHAR
STARTCHAR 0347
ENCODING 839
SWIDTH 0 0
DWIDTH 0 0
BBX 10 6 -5 -8
BITMAP
FFC0
FFC0
0000
0000
FFC0
FFC0
ENDCHAR
STARTCHAR 0348
ENCODING 840
SWIDTH 0 0
DWIDTH 0 0
BBX 4 3 -2 -4
BITMAP
90
90
90
ENDCHAR
STARTCHAR 0349
ENCODING 841
SWIDTH 0 0
DWIDTH 0 0
BBX 4 3 -2 -4
BITMAP
F0
10
10
ENDCHAR
STARTCHAR 034A
ENCODING 842
SWIDTH 0 0
DWIDTH 0 0
BBX 8 5 -4 12
BITMAP
08
7B
7E
DE
10
ENDCHAR
STARTCHAR 034B
ENCODING 843
SWIDTH 0 0
DWIDTH 0 0
BBX 8 7 -4 12
BITMAP
18
18
73
7E
CE
18
18
ENDCHAR
STARTCHAR 034C
ENCODING 844
SWIDTH 0 0
DWIDTH 0 0
BBX 8 6 -4 13
BITMAP
73
7E
CE
73
7E
CE
ENDCHAR
STARTCHAR 034D
ENCODING 845
SWIDTH 0 0
DWIDTH 0 0
BBX 6 3 -3 -4
BITMAP
48
FC
48
ENDCHAR
STARTCHAR 034E
ENCODING 846
SWIDTH 0 0
DWIDTH 0 0
BBX 2 4 -1 -5
BITMAP
80
C0
C0
C0
ENDCHAR
STARTCHAR 034F
ENCODING 847
SWIDTH 0 0
DWIDTH 0 0
BBX 16 14 -8 0
BITMAP
F3CF
8001
83C1
0810
1008
8001
9009
8001
9009
0000
0810
83C1
8001
F3CF
ENDCHAR
STARTCHAR 0350
ENCODING 848
SWIDTH 0 0
DWIDTH 0 0
BBX 2 4 -1 13
BITMAP
80
C0
C0
80
ENDCHAR
STARTCHAR 0351
ENCODING 849
SWIDTH 0 0
DWIDTH 0 0
BBX 2 4 -1 13
BITMAP
40
80
80
40
ENDCHAR
STARTCHAR 0352
ENCODING 850
SWIDTH 0 0
DWIDTH 0 0
BBX 6 6 -3 13
BITMAP
78
FC
84
30
30
30
ENDCHAR
STARTCHAR 0353
ENCODING 851
SWIDTH 0 0
DWIDTH 0 0
BBX 4 5 -2 -5
BITMAP
90
F0
60
F0
90
ENDCHAR
STARTCHAR 0354
ENCODING 852
SWIDTH 0 0
DWIDTH 0 0
BBX 2 4 -1 -4
BITMAP
40
C0
C0
40
ENDCHAR
STARTCHAR 0355
ENCODING 853
SWIDTH 0 0
DWIDTH 0 0
BBX 2 4 -1 -4
BITMAP
80
C0
C0
80
ENDCHAR
STARTCHAR 0356
ENCODING 854
SWIDTH 0 0
DWIDTH 0 0
BBX 7 4 -3 -4
BITMAP
80
64
6C
92
ENDCHAR
STARTCHAR 0357
ENCODING 855
SWIDTH 0 0
DWIDTH 0 0
BBX 2 4 -1 13
BITMAP
80
40
40
80
ENDCHAR
STARTCHAR 0358
ENCODING 856
SWIDTH 0 0
DWIDTH 0 0
BBX 1 1 3 13
BITMAP
80
ENDCHAR
STARTCHAR 0359
ENCODING 857
SWIDTH 0 0
DWIDTH 0 0
BBX 4 4 -2 -5
BITMAP
40
F0
60
60
ENDCHAR
STARTCHAR 035A
ENCODING 858
SWIDTH 0 0
DWIDTH 0 0
BBX 6 4 -3 -5
BITMAP
FC
B4
B4
FC
ENDCHAR
STARTCHAR 035B
ENCODING 859
SWIDTH 0 0
DWIDTH 0 0
BBX 4 5 -2 13
BITMAP
40
C0
F0
30
20
ENDCHAR
STARTCHAR 035C
ENCODING 860
SWIDTH 0 0
DWIDTH 0 0
BBX 15 4 -1 -5
BITMAP
8006
C00C
3018
0FE0
ENDCHAR
STARTCHAR 035D
ENCODING 861
SWIDTH 0 0
DWIDTH 0 0
BBX 15 4 -1 13
BITMAP
8006
C00C
3018
0FE0
ENDCHAR
STARTCHAR 035E
ENCODING 862
SWIDTH 0 0
DWIDTH 0 0
BBX 12 2 -2 13
BITMAP
FFF0
FFF0
ENDCHAR
STARTCHAR 035F
ENCODING 863
SWIDTH 0 0
DWIDTH 0 0
BBX 12 2 -2 -3
BITMAP
FFF0
FFF0
ENDCHAR
STARTCHAR 0360
ENCODING 864
SWIDTH 0 0
DWIDTH 0 0
BBX 16 3 -2 13
BITMAP
3F83
7FFF
C0FC
ENDCHAR
STARTCHAR 0361
ENCODING 865
SWIDTH 0 0
DWIDTH 0 0
BBX 15 4 -1 13
BITMAP
0FE0
3018
C00C
8006
ENDCHAR
STARTCHAR 0362
ENCODING 866
SWIDTH 0 0
DWIDTH 0 0
BBX 12 1 -2 -3
BITMAP
FFF0
ENDCHAR
STARTCHAR 0363
ENCODING 867
SWIDTH 0 0
DWIDTH 0 0
BBX 6 7 -3 5
BITMAP
78
CC
3C
EC
CC
CC
FC
ENDCHAR
STARTCHAR 0364
ENCODING 868
SWIDTH 0 0
DWIDTH 0 0
BBX 6 7 -3 5
BITMAP
78
CC
CC
FC
C0
CC
78
ENDCHAR
STARTCHAR 0365
ENCODING 869
SWIDTH 0 0
DWIDTH 0 0
BBX 2 10 -1 5
BITMAP
C0
C0
00
C0
C0
C0
C0
C0
C0
C0
ENDCHAR
STARTCHAR 0366
ENCODING 870
SWIDTH 0 0
DWIDTH 0 0
BBX 8 7 -4 5
BITMAP
3C
7E
E7
C3
E7
7E
3C
ENDCHAR
STARTCHAR 0367
ENCODING 871
SWIDTH 0 0
DWIDTH 0 0
BBX 6 7 -3 5
BITMAP
CC
CC
CC
CC
CC
F4
F4
ENDCHAR
STARTCHAR 0368
ENCODING 872
SWIDTH 0 0
DWIDTH 0 0
BBX 6 7 -3 5
BITMAP
78
FC
CC
C0
CC
FC
78
ENDCHAR
STARTCHAR 0369
ENCODING 873
SWIDTH 0 0
DWIDTH 0 0
BBX 8 10 -4 5
BITMAP
03
03
03
3B
7F
E7
C3
67
7F
3B
ENDCHAR
STARTCHAR 036A
ENCODING 874
SWIDTH 0 0
DWIDTH 0 0
BBX 6 10 -3 5
BITMAP
C0
C0
C0
DC
FC
CC
CC
CC
CC
CC
ENDCHAR
STARTCHAR 036B
ENCODING 875
SWIDTH 0 0
DWIDTH 0 0
BBX 10 7 -5 5
BITMAP
B9C0
BFC0
CCC0
CCC0
CCC0
CCC0
CCC0
ENDCHAR
STARTCHAR 036C
ENCODING 876
SWIDTH 0 0
DWIDTH 0 0
BBX 4 7 -2 5
BITMAP
B0
F0
C0
C0
C0
C0
C0
ENDCHAR
STARTCHAR 036D
ENCODING 877
SWIDTH 0 0
DWIDTH 0 0
BBX 4 10 -2 5
BITMAP
20
60
60
F0
F0
60
60
60
70
70
ENDCHAR
STARTCHAR 036E
ENCODING 878
SWIDTH 0 0
DWIDTH 0 0
BBX 8 7 -4 5
BITMAP
C3
66
66
3C
3C
1C
18
ENDCHAR
STARTCHAR 036F
ENCODING 879
SWIDTH 0 0
DWIDTH 0 0
BBX 6 7 -3 5
BITMAP
CC
F8
78
30
78
FC
CC
ENDCHAR
STARTCHAR 0374
ENCODING 884
SWIDTH 336 0
DWIDTH 7 0
BBX 4 3 2 13
BITMAP
70
60
C0
ENDCHAR
STARTCHAR 0375
ENCODING 885
SWIDTH 336 0
DWIDTH 7 0
BBX 4 3 1 -4
BITMAP
30
60
E0
ENDCHAR
STARTCHAR 037A
ENCODING 890
SWIDTH 336 0
DWIDTH 7 0
BBX 3 3 2 -4
BITMAP
C0
E0
E0
ENDCHAR
STARTCHAR 037B
ENCODING 891
SWIDTH 576 0
DWIDTH 12 0
BBX 10 11 1 0
BITMAP
3E00
7F00
E380
E1C0
01C0
01C0
01C0
C1C0
E380
7F00
3E00
ENDCHAR
STARTCHAR 037C
ENCODING 892
SWIDTH 576 0
DWIDTH 12 0
BBX 10 11 1 0
BITMAP
1F00
7F80
71C0
E1C0
EE00
EE00
EE00
E1C0
71C0
7F80
1F00
ENDCHAR
STARTCHAR 037D
ENCODING 893
SWIDTH 576 0
DWIDTH 12 0
BBX 10 11 1 0
BITMAP
3E00
7F00
E380
E1C0
1DC0
1DC0
1DC0
C1C0
E380
7F00
3E00
ENDCHAR
STARTCHAR 037E
ENCODING 894
SWIDTH 336 0
DWIDTH 7 0
BBX 3 14 2 -3
BITMAP
E0
E0
E0
00
00
00
00
00
E0
E0
E0
60
40
80
ENDCHAR
STARTCHAR 0384
ENCODING 900
SWIDTH 336 0
DWIDTH 7 0
BBX 4 3 2 12
BITMAP
70
60
C0
ENDCHAR
STARTCHAR 0385
ENCODING 901
SWIDTH 480 0
DWIDTH 10 0
BBX 10 3 0 12
BITMAP
0E00
CDC0
D9C0
ENDCHAR
STARTCHAR 0386
ENCODING 902
SWIDTH 720 0
DWIDTH 15 0
BBX 15 15 0 0
BITMAP
7B80
77C0
C7C0
06E0
0EE0
0EE0
1C70
1C70
1C78
3FF8
3FF8
7FFC
701C
701E
E00E
ENDCHAR
STARTCHAR 0387
ENCODING 903
SWIDTH 336 0
DWIDTH 7 0
BBX 3 3 2 8
BITMAP
E0
E0
E0
ENDCHAR
STARTCHAR 0388
ENCODING 904
SWIDTH 864 0
DWIDTH 18 0
BBX 17 15 0 0
BITMAP
77FF80
E7FF80
C7FF80
070000
070000
070000
07FF00
07FF00
07FF00
070000
070000
070000
07FF80
07FF80
07FF80
ENDCHAR
STARTCHAR 0389
ENCODING 905
SWIDTH 912 0
DWIDTH 19 0
BBX 17 15 0 0
BITMAP
770380
E70380
C70380
070380
070380
070380
07FF80
07FF80
07FF80
070380
070380
070380
070380
070380
070380
ENDCHAR
STARTCHAR 038A
ENCODING 906
SWIDTH 480 0
DWIDTH 10 0
BBX 8 15 0 0
BITMAP
77
E7
C7
07
07
07
07
07
07
07
07
07
07
07
07
ENDCHAR
STARTCHAR 038C
ENCODING 908
SWIDTH 816 0
DWIDTH 17 0
BBX 17 15 -1 0
BITMAP
79F800
77FE00
EFFF00
0F0F80
1E0380
1C0380
1C0380
1C0380
1C0380
1C0380
1E0780
0F0F80
0FFF00
07FE00
01F800
ENDCHAR
STARTCHAR 038E
ENCODING 910
SWIDTH 912 0
DWIDTH 19 0
BBX 19 15 0 0
BITMAP
7380E0
E3C1E0
C1C1C0
00E380
00F780
007700
003E00
003E00
001C00
001C00
001C00
001C00
001C00
001C00
001C00
ENDCHAR
STARTCHAR 038F
ENCODING 911
SWIDTH 864 0
DWIDTH 18 0
BBX 18 15 -1 0
BITMAP
79F800
77FE00
EFFF00
0F0F80
1E0780
1C0380
1C0380
1C0380
1C0380
0E0380
0E0700
078E00
1FDFC0
1FDFC0
1FDFC0
ENDCHAR
STARTCHAR 0390
ENCODING 912
SWIDTH 288 0
DWIDTH 6 0
BBX 10 16 -2 0
BITMAP
0E00
CDC0
D9C0
0000
0000
0C00
0C00
0C00
0C00
0C00
0C00
0C00
0C00
0C00
0C00
0C00
ENDCHAR
STARTCHAR 0391
ENCODING 913
SWIDTH 720 0
DWIDTH 15 0
BBX 15 15 0 0
BITMAP
0380
07C0
07C0
0EC0
0EE0
0EE0
1C70
1C70
1C70
3FF8
3FF8
7FFC
701C
701C
E00E
ENDCHAR
STARTCHAR 0392
ENCODING 914
SWIDTH 720 0
DWIDTH 15 0
BBX 12 15 2 0
BITMAP
FF80
FFE0
FFE0
E0E0
E0E0
E0E0
FFC0
FFC0
FFE0
E0F0
E070
E070
FFF0
FFE0
FFC0
ENDCHAR
STARTCHAR 0393
ENCODING 915
SWIDTH 624 0
DWIDTH 13 0
BBX 10 15 2 0
BITMAP
FFC0
FFC0
FFC0
E000
E000
E000
E000
E000
E000
E000
E000
E000
E000
E000
E000
ENDCHAR
STARTCHAR 0394
ENCODING 916
SWIDTH 720 0
DWIDTH 15 0
BBX 15 15 0 0
BITMAP
0380
07C0
07C0
0FC0
0EE0
0EE0
1C70
1C70
1870
3838
3838
701C
7FFC
7FFC
FFFE
ENDCHAR
STARTCHAR 0395
ENCODING 917
SWIDTH 672 0
DWIDTH 14 0
BBX 11 15 2 0
BITMAP
FFE0
FFE0
FFE0
E000
E000
E000
FFC0
FFC0
FFC0
E000
E000
E000
FFE0
FFE0
FFE0
ENDCHAR
STARTCHAR 0396
ENCODING 918
SWIDTH 624 0
DWIDTH 13 0
BBX 12 15 0 0
BITMAP
7FF0
7FF0
7FF0
00F0
01E0
03C0
0780
0F00
1E00
3C00
3800
7000
FFF0
FFF0
FFF0
ENDCHAR
STARTCHAR 0397
ENCODING 919
SWIDTH 720 0
DWIDTH 15 0
BBX 12 15 2 0
BITMAP
E070
E070
E070
E070
E070
E070
FFF0
FFF0
FFF0
E070
E070
E070
E070
E070
E070
ENDCHAR
STARTCHAR 0398
ENCODING 920
SWIDTH 768 0
DWIDTH 16 0
BBX 14 15 1 0
BITMAP
0FC0
3FF0
7FF8
787C
F01C
E01C
E7DC
E7DC
E7DC
E01C
F03C
787C
7FF8
3FF0
0FC0
ENDCHAR
STARTCHAR 0399
ENCODING 921
SWIDTH 288 0
DWIDTH 6 0
BBX 3 15 1 0
BITMAP
E0
E0
E0
E0
E0
E0
E0
E0
E0
E0
E0
E0
E0
E0
E0
ENDCHAR
STARTCHAR 039A
ENCODING 922
SWIDTH 720 0
DWIDTH 15 0
BBX 13 15 2 0
BITMAP
E0F0
E1E0
E3C0
E780
EF00
FE00
FF00
FF00
F780
E3C0
E1C0
E1E0
E0F0
E0F0
E078
ENDCHAR
STARTCHAR 039B
ENCODING 923
SWIDTH 672 0
DWIDTH 14 0
BBX 14 15 0 0
BITMAP
0780
0780
0FC0
0FC0
0FC0
1DE0
1CE0
1CE0
38F0
3870
3870
7078
7038
7038
E01C
ENDCHAR
STARTCHAR 039C
ENCODING 924
SWIDTH 864 0
DWIDTH 18 0
BBX 15 15 1 0
BITMAP
F83E
F83E
FC3E
FC3E
EC7E
EC7E
EE6E
EEEE
E6EE
E7EE
E7CE
E7CE
E3CE
E3CE
E38E
ENDCHAR
STARTCHAR 039D
ENCODING 925
SWIDTH 720 0
DWIDTH 15 0
BBX 11 15 2 0
BITMAP
E060
E060
F060
F860
F860
DC60
DC60
CE60
C760
C760
C3E0
C3E0
C1E0
C0E0
C0E0
ENDCHAR
STARTCHAR 039E
ENCODING 926
SWIDTH 672 0
DWIDTH 14 0
BBX 11 15 1 0
BITMAP
FFE0
FFE0
FFE0
0000
0000
0000
7FE0
7FE0
7FE0
0000
0000
0000
FFE0
FFE0
FFE0
ENDCHAR
STARTCHAR 039F
ENCODING 927
SWIDTH 768 0
DWIDTH 16 0
BBX 14 15 1 0
BITMAP
0FC0
3FF0
7FF8
787C
F01C
E01C
E01C
E01C
E01C
E01C
F01C
787C
7FF8
3FF0
0FC0
ENDCHAR
STARTCHAR 03A0
ENCODING 928
SWIDTH 720 0
DWIDTH 15 0
BBX 12 15 2 0
BITMAP
FFF0
FFF0
FFF0
E070
E070
E070
E070
E070
E070
E070
E070
E070
E070
E070
E070
ENDCHAR
STARTCHAR 03A1
ENCODING 929
SWIDTH 672 0
DWIDTH 14 0
BBX 11 15 2 0
BITMAP
FF80
FFC0
FFE0
E1E0
E0E0
E1E0
FFE0
FFC0
FF80
E000
E000
E000
E000
E000
E000
ENDCHAR
STARTCHAR 03A3
ENCODING 931
SWIDTH 624 0
DWIDTH 13 0
BBX 11 15 1 0
BITMAP
FFE0
FFE0
FFE0
7000
3800
3C00
1E00
0E00
1C00
3C00
7800
F000
FFE0
FFE0
FFE0
ENDCHAR
STARTCHAR 03A4
ENCODING 932
SWIDTH 624 0
DWIDTH 13 0
BBX 12 15 0 0
BITMAP
FFF0
FFF0
FFF0
0700
0700
0700
0700
0700
0700
0700
0700
0700
0700
0700
0700
ENDCHAR
STARTCHAR 03A5
ENCODING 933
SWIDTH 672 0
DWIDTH 14 0
BBX 14 15 0 0
BITMAP
F03C
7038
3870
3C70
1CE0
1FE0
0FC0
0780
0780
0780
0780
0780
0780
0780
0780
ENDCHAR
STARTCHAR 03A6
ENCODING 934
SWIDTH 816 0
DWIDTH 17 0
BBX 15 15 1 0
BITMAP
0380
0380
1FF0
3FFC
7FFC
F39E
E38E
E38E
E38E
F39E
7FFC
3FF8
0FF0
0380
0380
ENDCHAR
STARTCHAR 03A7
ENCODING 935
SWIDTH 672 0
DWIDTH 14 0
BBX 14 15 0 0
BITMAP
7038
7878
3CF0
1CE0
1FE0
0FC0
0780
0780
0FC0
0FC0
1FE0
3CF0
3870
7878
F03C
ENDCHAR
STARTCHAR 03A8
ENCODING 936
SWIDTH 816 0
DWIDTH 17 0
BBX 15 15 1 0
BITMAP
E38E
E38E
E38E
E38E
E38E
E38E
E38E
F39E
7FFC
7FFC
1FF0
0380
0380
0380
0380
ENDCHAR
STARTCHAR 03A9
ENCODING 937
SWIDTH 816 0
DWIDTH 17 0
BBX 15 15 1 0
BITMAP
0FE0
1FF0
3FF8
783C
F01C
F01E
E01E
E01C
701C
701C
3838
3C70
FEFE
FEFE
FEFE
ENDCHAR
STARTCHAR 03AA
ENCODING 938
SWIDTH 288 0
DWIDTH 6 0
BBX 7 18 -1 0
BITMAP
EE
EE
00
38
38
38
38
38
38
38
38
38
38
38
38
38
38
38
ENDCHAR
STARTCHAR 03AB
ENCODING 939
SWIDTH 672 0
DWIDTH 14 0
BBX 14 18 0 0
BITMAP
1DC0
1DC0
0000
F03C
7038
3870
3C70
1CE0
1FE0
0FC0
0780
0780
0780
0780
0780
0780
0780
0780
ENDCHAR
STARTCHAR 03AC
ENCODING 940
SWIDTH 624 0
DWIDTH 13 0
BBX 11 16 1 0
BITMAP
0700
0600
0C00
0000
0000
3E60
7FE0
F3C0
E1C0
E1C0
E1C0
E1C0
E1C0
73C0
7FE0
3E60
ENDCHAR
STARTCHAR 03AD
ENCODING 941
SWIDTH 480 0
DWIDTH 10 0
BBX 8 16 1 0
BITMAP
1C
18
30
00
00
3E
7F
E2
E0
7C
7C
E0
E0
E2
FF
3E
ENDCHAR
STARTCHAR 03AE
ENCODING 942
SWIDTH 624 0
DWIDTH 13 0
BBX 10 20 1 -4
BITMAP
0700
0600
0C00
0000
0000
E780
FFC0
F1C0
F1C0
E1C0
E1C0
E1C0
E1C0
E1C0
E1C0
E1C0
01C0
01C0
01C0
01C0
ENDCHAR
STARTCHAR 03AF
ENCODING 943
SWIDTH 288 0
DWIDTH 6 0
BBX 4 16 1 0
BITMAP
70
60
C0
00
00
60
60
60
60
60
60
60
60
60
60
60
ENDCHAR
STARTCHAR 03B0
ENCODING 944
SWIDTH 576 0
DWIDTH 12 0
BBX 10 16 1 0
BITMAP
0E00
CDC0
D9C0
0000
0000
E1C0
E1C0
E1C0
E1C0
E1C0
E1C0
E1C0
E1C0
7380
7F80
1F00
ENDCHAR
STARTCHAR 03B1
ENCODING 945
SWIDTH 624 0
DWIDTH 13 0
BBX 11 11 1 0
BITMAP
3E60
7FE0
F3C0
E1C0
E1C0
E1C0
E1C0
E1C0
73C0
7FE0
3E60
ENDCHAR
STARTCHAR 03B2
ENCODING 946
SWIDTH 624 0
DWIDTH 13 0
BBX 11 19 1 -4
BITMAP
1F00
3F80
71C0
71C0
61C0
E1C0
E780
E780
E1C0
E0E0
F0E0
F0E0
F9E0
EFC0
E780
E000
E000
E000
E000
ENDCHAR
STARTCHAR 03B3
ENCODING 947
SWIDTH 576 0
DWIDTH 12 0
BBX 11 15 0 -4
BITMAP
E0E0
70E0
70E0
31C0
39C0
3980
1980
1B80
1F00
0F00
0E00
0E00
0E00
0E00
0E00
ENDCHAR
STARTCHAR 03B4
ENCODING 948
SWIDTH 624 0
DWIDTH 13 0
BBX 11 15 1 0
BITMAP
7FC0
7FC0
3800
1E00
3F00
7F80
F1C0
E0E0
E0E0
E0E0
E0E0
E0E0
71C0
7F80
1F00
ENDCHAR
STARTCHAR 03B5
ENCODING 949
SWIDTH 480 0
DWIDTH 10 0
BBX 8 11 1 0
BITMAP
3E
7F
E2
E0
7C
7C
E0
E0
E2
FF
3E
ENDCHAR
STARTCHAR 03B6
ENCODING 950
SWIDTH 480 0
DWIDTH 10 0
BBX 8 19 1 -4
BITMAP
7F
7F
0E
1C
38
30
70
E0
E0
E0
E0
E0
FC
7F
3F
07
07
0E
1C
ENDCHAR
STARTCHAR 03B7
ENCODING 951
SWIDTH 624 0
DWIDTH 13 0
BBX 10 15 1 -4
BITMAP
E780
FFC0
F1C0
F1C0
E1C0
E1C0
E1C0
E1C0
E1C0
E1C0
E1C0
01C0
01C0
01C0
01C0
ENDCHAR
STARTCHAR 03B8
ENCODING 952
SWIDTH 528 0
DWIDTH 11 0
BBX 10 15 1 0
BITMAP
3E00
7F00
7380
E380
E380
E180
FFC0
FFC0
E1C0
E180
E380
E380
7380
7F00
3E00
ENDCHAR
STARTCHAR 03B9
ENCODING 953
SWIDTH 288 0
DWIDTH 6 0
BBX 2 11 2 0
BITMAP
C0
C0
C0
C0
C0
C0
C0
C0
C0
C0
C0
ENDCHAR
STARTCHAR 03BA
ENCODING 954
SWIDTH 576 0
DWIDTH 12 0
BBX 10 11 1 0
BITMAP
E3C0
E780
E700
EE00
FC00
FC00
FE00
E700
E780
E380
E1C0
ENDCHAR
STARTCHAR 03BB
ENCODING 955
SWIDTH 576 0
DWIDTH 12 0
BBX 11 15 0 0
BITMAP
1C00
1C00
0E00
0E00
0E00
0F00
1F00
1B80
1B80
3980
31C0
71C0
70E0
70E0
E0E0
ENDCHAR
STARTCHAR 03BC
ENCODING 956
SWIDTH 624 0
DWIDTH 13 0
BBX 10 15 1 -4
BITMAP
E1C0
E1C0
E1C0
E1C0
E1C0
E1C0
E1C0
F1C0
F1C0
FFC0
EEC0
E000
E000
E000
E000
ENDCHAR
STARTCHAR 03BD
ENCODING 957
SWIDTH 576 0
DWIDTH 12 0
BBX 11 11 0 0
BITMAP
E0E0
70E0
70C0
31C0
39C0
3B80
1B80
1F00
0F00
0F00
0E00
ENDCHAR
STARTCHAR 03BE
ENCODING 958
SWIDTH 432 0
DWIDTH 9 0
BBX 8 19 1 -4
BITMAP
3E
7E
F0
E0
70
7E
1E
78
F0
E0
E0
E0
F0
7E
3F
07
07
0F
1C
ENDCHAR
STARTCHAR 03BF
ENCODING 959
SWIDTH 624 0
DWIDTH 13 0
BBX 11 11 1 0
BITMAP
1F00
7F80
71C0
E0E0
E0E0
E0E0
E0E0
E0E0
71C0
7F80
1F00
ENDCHAR
STARTCHAR 03C0
ENCODING 960
SWIDTH 768 0
DWIDTH 16 0
BBX 15 11 1 0
BITMAP
FFFE
FFFE
3870
3870
3870
3870
3870
3870
3870
3870
3870
ENDCHAR
STARTCHAR 03C1
ENCODING 961
SWIDTH 624 0
DWIDTH 13 0
BBX 11 15 1 -4
BITMAP
1F00
3F80
71C0
60E0
E0E0
E0E0
E0E0
E0E0
F1C0
FFC0
EF00
E000
E000
E000
E000
ENDCHAR
STARTCHAR 03C2
ENCODING 962
SWIDTH 528 0
DWIDTH 11 0
BBX 10 15 1 -4
BITMAP
0FC0
3F80
7800
E000
E000
E000
C000
E000
F000
7E00
1F80
0380
0380
1F80
1F00
ENDCHAR
STARTCHAR 03C3
ENCODING 963
SWIDTH 672 0
DWIDTH 14 0
BBX 13 11 1 0
BITMAP
1FF8
7FF8
71C0
E0E0
E0E0
E0E0
E0E0
E0E0
71C0
7F80
1F00
ENDCHAR
STARTCHAR 03C4
ENCODING 964
SWIDTH 432 0
DWIDTH 9 0
BBX 8 11 1 0
BITMAP
FF
FF
38
38
38
38
38
38
38
38
38
ENDCHAR
STARTCHAR 03C5
ENCODING 965
SWIDTH 576 0
DWIDTH 12 0
BBX 10 11 1 0
BITMAP
E1C0
E1C0
E1C0
E1C0
E1C0
E1C0
E1C0
E1C0
7380
7F80
1F00
ENDCHAR
STARTCHAR 03C6
ENCODING 966
SWIDTH 720 0
DWIDTH 15 0
BBX 13 15 1 -4
BITMAP
3BE0
7FF0
F738
E738
E738
E738
E738
E738
7770
3FE0
1FC0
0700
0700
0700
0700
ENDCHAR
STARTCHAR 03C7
ENCODING 967
SWIDTH 576 0
DWIDTH 12 0
BBX 12 15 0 -4
BITMAP
70E0
70E0
39C0
39C0
1F80
1F80
0F00
0F00
0F00
1F80
1F80
39C0
39E0
70E0
F0F0
ENDCHAR
STARTCHAR 03C8
ENCODING 968
SWIDTH 768 0
DWIDTH 16 0
BBX 14 15 1 -4
BITMAP
E71C
E71C
E71C
E71C
E71C
E71C
E71C
E718
7738
7FF0
1FE0
0700
0700
0700
0700
ENDCHAR
STARTCHAR 03C9
ENCODING 969
SWIDTH 864 0
DWIDTH 18 0
BBX 16 11 1 0
BITMAP
700E
600E
E006
E387
E387
E387
E387
E387
F3CE
7FFE
3E78
ENDCHAR
STARTCHAR 03CA
ENCODING 970
SWIDTH 288 0
DWIDTH 6 0
BBX 7 15 -1 0
BITMAP
EE
EE
00
00
18
18
18
18
18
18
18
18
18
18
18
ENDCHAR
STARTCHAR 03CB
ENCODING 971
SWIDTH 576 0
DWIDTH 12 0
BBX 10 15 1 0
BITMAP
3B80
3B80
0000
0000
E1C0
E1C0
E1C0
E1C0
E1C0
E1C0
E1C0
E1C0
7380
7F80
1F00
ENDCHAR
STARTCHAR 03CC
ENCODING 972
SWIDTH 624 0
DWIDTH 13 0
BBX 11 16 1 0
BITMAP
0700
0600
0C00
0000
0000
1F00
7F80
71C0
E0E0
E0E0
E0E0
E0E0
E0E0
71C0
7F80
1F00
ENDCHAR
STARTCHAR 03CD
ENCODING 973
SWIDTH 576 0
DWIDTH 12 0
BBX 10 16 1 0
BITMAP
0700
0600
0C00
0000
0000
E1C0
E1C0
E1C0
E1C0
E1C0
E1C0
E1C0
E1C0
7380
7F80
1F00
ENDCHAR
STARTCHAR 03CE
ENCODING 974
SWIDTH 864 0
DWIDTH 18 0
BBX 16 16 1 0
BITMAP
01C0
0180
0300
0000
0000
700E
600E
E006
E387
E387
E387
E387
E387
F3CE
7FFE
3E78
ENDCHAR
STARTCHAR 03D0
ENCODING 976
SWIDTH 624 0
DWIDTH 13 0
BBX 11 15 1 0
BITMAP
1F00
3F80
71C0
7F80
EF00
E000
EF80
FFC0
F1C0
F0E0
F0E0
70E0
71C0
3FC0
1F00
ENDCHAR
STARTCHAR 03D1
ENCODING 977
SWIDTH 576 0
DWIDTH 12 0
BBX 12 15 0 0
BITMAP
0780
1FC0
1CE0
18E0
18E0
1CE0
0FF0
07F0
F0E0
F8E0
38E0
30C0
31C0
3F80
1F00
ENDCHAR
STARTCHAR 03D2
ENCODING 978
SWIDTH 768 0
DWIDTH 16 0
BBX 16 15 0 0
BITMAP
F01C
703E
387F
3872
1CF0
1DE0
0FC0
0780
0780
0380
0380
0380
0380
0380
0380
ENDCHAR
STARTCHAR 03D3
ENCODING 979
SWIDTH 1008 0
DWIDTH 21 0
BBX 21 15 0 0
BITMAP
7780E0
6381F0
C1C3F8
01C390
00E780
00EF00
007E00
003C00
003C00
001C00
001C00
001C00
001C00
001C00
001C00
ENDCHAR
STARTCHAR 03D4
ENCODING 980
SWIDTH 768 0
DWIDTH 16 0
BBX 16 18 0 0
BITMAP
0EE0
0EE0
0000
F01C
703E
387F
3872
1CF0
1DE0
0FC0
0780
0780
0380
0380
0380
0380
0380
0380
ENDCHAR
STARTCHAR 03D5
ENCODING 981
SWIDTH 768 0
DWIDTH 16 0
BBX 14 19 1 -4
BITMAP
0700
0700
0700
0700
1FE0
7FF0
7738
E71C
E71C
E71C
E71C
E71C
7738
7FF0
1FE0
0700
0700
0700
0700
ENDCHAR
STARTCHAR 03D6
ENCODING 982
SWIDTH 864 0
DWIDTH 18 0
BBX 16 11 1 0
BITMAP
FFFF
FFFF
E007
E007
E387
E387
E387
E387
F3CE
7FFE
3E78
ENDCHAR
STARTCHAR 03D7
ENCODING 983
SWIDTH 672 0
DWIDTH 14 0
BBX 14 15 0 -4
BITMAP
F03C
F878
38F0
19F0
1BF0
1FF0
1F70
1E70
3C70
3C7C
783C
001C
001C
007C
0078
ENDCHAR
STARTCHAR 03D8
ENCODING 984
SWIDTH 768 0
DWIDTH 16 0
BBX 14 19 1 -4
BITMAP
0FC0
3FF0
7FF8
787C
F01C
E01C
E01C
E01C
E01C
E01C
F03C
787C
7FF8
3FF0
0FC0
0380
0380
0380
0380
ENDCHAR
STARTCHAR 03D9
ENCODING 985
SWIDTH 624 0
DWIDTH 13 0
BBX 11 15 1 -4
BITMAP
1F00
7F80
71C0
E0E0
E0E0
E0E0
E0E0
E0E0
71C0
7FC0
1F00
0E00
0E00
0E00
0E00
ENDCHAR
STARTCHAR 03DA
ENCODING 986
SWIDTH 720 0
DWIDTH 15 0
BBX 13 15 1 0
BITMAP
0FC0
3FE0
7FF0
7878
F030
E000
E000
E000
F000
7800
7F80
3F80
0F80
0380
0380
ENDCHAR
STARTCHAR 03DB
ENCODING 987
SWIDTH 576 0
DWIDTH 12 0
BBX 10 15 1 -4
BITMAP
1F00
7F80
71C0
E1C0
E000
E000
E000
F000
7C00
3F80
0FC0
01C0
41C0
7F80
3F00
ENDCHAR
STARTCHAR 03DC
ENCODING 988
SWIDTH 624 0
DWIDTH 13 0
BBX 10 15 2 0
BITMAP
FFC0
FFC0
FFC0
E000
E000
E000
FF80
FF80
FF80
E380
E380
E000
E000
E000
E000
ENDCHAR
STARTCHAR 03DD
ENCODING 989
SWIDTH 480 0
DWIDTH 10 0
BBX 8 15 1 -4
BITMAP
FF
FF
E0
E0
E0
E0
FE
FE
E6
E0
E0
E0
E0
E0
E0
ENDCHAR
STARTCHAR 03DE
ENCODING 990
SWIDTH 768 0
DWIDTH 16 0
BBX 16 15 0 0
BITMAP
F000
F800
FC00
1C04
1C1C
187C
3BFC
3FFC
3F98
3E38
3838
4038
003F
001F
000F
ENDCHAR
STARTCHAR 03DF
ENCODING 991
SWIDTH 528 0
DWIDTH 11 0
BBX 11 15 0 0
BITMAP
1800
1800
3000
3000
3000
6000
7FE0
7FC0
FFC0
00C0
0180
0180
0180
0300
0300
ENDCHAR
STARTCHAR 03E0
ENCODING 992
SWIDTH 816 0
DWIDTH 17 0
BBX 16 19 0 -4
BITMAP
0F80
3FE0
7C70
CC38
8C1C
0C3E
0CFE
00EF
00C7
01C7
01C7
01C7
01C7
01C7
01C7
000E
001E
03FC
01E0
ENDCHAR
STARTCHAR 03E1
ENCODING 993
SWIDTH 624 0
DWIDTH 13 0
BBX 11 19 1 -4
BITMAP
4000
F000
7C00
1E00
0F00
0F80
3FC0
3BC0
21C0
03E0
0FE0
0EE0
08E0
00E0
00E0
00E0
00E0
00E0
0180
ENDCHAR
STARTCHAR 03E2
ENCODING 994
SWIDTH 1008 0
DWIDTH 21 0
BBX 17 19 2 -4
BITMAP
E1C380
E1C380
E1C380
E1C380
E1C380
E1C380
E1C380
E1C380
E1C380
E1C380
E1C380
E3E780
FFFF80
FEFF80
7C7B80
000380
FFFF80
FFFF80
FFFF00
ENDCHAR
STARTCHAR 03E3
ENCODING 995
SWIDTH 912 0
DWIDTH 19 0
BBX 16 15 1 -4
BITMAP
E1C7
E1C7
E1C7
E1C7
E1C7
E1C7
E1C7
E1C7
F3C7
7FFF
3CF7
0007
FFFF
FFFF
FFFE
ENDCHAR
STARTCHAR 03E4
ENCODING 996
SWIDTH 720 0
DWIDTH 15 0
BBX 12 15 1 0
BITMAP
1F70
3E70
7E70
F070
E070
E070
F070
7FF0
3FF0
1F70
0070
0070
0070
0070
0070
ENDCHAR
STARTCHAR 03E5
ENCODING 997
SWIDTH 624 0
DWIDTH 13 0
BBX 10 15 1 0
BITMAP
3DC0
7DC0
E1C0
E1C0
E1C0
E1C0
E1C0
E1C0
71C0
7FC0
3DC0
01C0
01C0
01C0
01C0
ENDCHAR
STARTCHAR 03E6
ENCODING 998
SWIDTH 720 0
DWIDTH 15 0
BBX 11 19 2 -4
BITMAP
E000
E000
E000
E000
E000
FF00
FFC0
FFE0
E1E0
E0E0
E0E0
E0E0
E0E0
E0E0
E0E0
01E0
FFC0
FF80
FF00
ENDCHAR
STARTCHAR 03E7
ENCODING 999
SWIDTH 624 0
DWIDTH 13 0
BBX 12 12 0 0
BITMAP
0020
1FB0
3FF0
71E0
71E0
3FE0
1EE0
00E0
00E0
78E0
FFC0
CF80
ENDCHAR
STARTCHAR 03E8
ENCODING 1000
SWIDTH 672 0
DWIDTH 14 0
BBX 12 15 1 0
BITMAP
1F80
3FE0
7FE0
70F0
F070
00E0
07E0
3FC0
7F00
F0E0
E070
F0F0
FFE0
7FE0
1F80
ENDCHAR
STARTCHAR 03E9
ENCODING 1001
SWIDTH 672 0
DWIDTH 14 0
BBX 12 15 1 0
BITMAP
1F80
3FE0
7FE0
70F0
F070
00E0
07E0
3FC0
7F00
F000
E000
F060
FFE0
7FF0
1FC0
ENDCHAR
STARTCHAR 03EA
ENCODING 1002
SWIDTH 672 0
DWIDTH 14 0
BBX 13 15 0 0
BITMAP
7CF0
FDF8
FFF8
8FC8
0F80
0780
0780
0F80
0FC0
1DC0
1CE0
38E0
3FF0
3FF0
3FF0
ENDCHAR
STARTCHAR 03EB
ENCODING 1003
SWIDTH 624 0
DWIDTH 13 0
BBX 13 11 0 0
BITMAP
F8F8
7DF0
1F80
0F80
0700
0F80
1F80
3DC0
39E0
7FE0
7FE0
ENDCHAR
STARTCHAR 03EC
ENCODING 1004
SWIDTH 720 0
DWIDTH 15 0
BBX 14 15 1 0
BITMAP
03F0
1FF0
3FF0
7C00
7000
FFC0
FFF0
FFF8
F078
E03C
E03C
F078
7FF8
3FF0
0FC0
ENDCHAR
STARTCHAR 03ED
ENCODING 1005
SWIDTH 576 0
DWIDTH 12 0
BBX 10 11 1 0
BITMAP
0FC0
3FC0
7800
EF80
EFC0
E1C0
E1C0
E1C0
F1C0
7F80
3F00
ENDCHAR
STARTCHAR 03EE
ENCODING 1006
SWIDTH 528 0
DWIDTH 11 0
BBX 10 15 0 0
BITMAP
0E00
0E00
0E00
7F80
FFC0
CE40
CE40
0E00
0E00
0E00
0E00
0E00
0E00
0E00
0E00
ENDCHAR
STARTCHAR 03EF
ENCODING 1007
SWIDTH 432 0
DWIDTH 9 0
BBX 9 15 0 0
BITMAP
1800
1E00
1C00
1C00
FF80
FF80
DC00
9C00
1C00
1C00
1C00
1C00
1C00
3C00
0C00
ENDCHAR
STARTCHAR 03F0
ENCODING 1008
SWIDTH 672 0
DWIDTH 14 0
BBX 14 11 0 0
BITMAP
F03C
F878
38F0
19F0
1BF0
1FF0
1F70
1E70
3C70
3C7C
781C
ENDCHAR
STARTCHAR 03F1
ENCODING 1009
SWIDTH 624 0
DWIDTH 13 0
BBX 11 15 1 -4
BITMAP
1F00
7F80
71C0
E0E0
E0E0
E0E0
E0E0
E0E0
F1C0
FF80
CF00
6000
7FC0
1FC0
0060
ENDCHAR
STARTCHAR 03F2
ENCODING 1010
SWIDTH 576 0
DWIDTH 12 0
BBX 10 11 1 0
BITMAP
1F00
7F80
7180
E1C0
E000
E000
E000
E1C0
71C0
7F80
1F00
ENDCHAR
STARTCHAR 03F3
ENCODING 1011
SWIDTH 288 0
DWIDTH 6 0
BBX 5 19 -1 -4
BITMAP
38
38
00
00
38
38
38
38
38
38
38
38
38
38
38
38
38
F8
F0
ENDCHAR
STARTCHAR 03F4
ENCODING 1012
SWIDTH 768 0
DWIDTH 16 0
BBX 14 15 1 0
BITMAP
0FC0
3FF0
7FF8
783C
F01C
E01C
FFFC
FFFC
FFFC
E01C
F01C
787C
7FF8
3FF0
0FC0
ENDCHAR
STARTCHAR 03F5
ENCODING 1013
SWIDTH 480 0
DWIDTH 10 0
BBX 8 11 1 0
BITMAP
1F
7F
E0
E0
FC
FC
E0
E0
F0
7F
3F
ENDCHAR
STARTCHAR 03F6
ENCODING 1014
SWIDTH 480 0
DWIDTH 10 0
BBX 8 11 1 0
BITMAP
FC
FE
07
07
3F
3F
07
07
0F
FE
FC
ENDCHAR
STARTCHAR 03F7
ENCODING 1015
SWIDTH 672 0
DWIDTH 14 0
BBX 11 15 2 0
BITMAP
E000
E000
E000
FF80
FFC0
FFE0
E1E0
E0E0
E1E0
FFE0
FFC0
FF80
E000
E000
E000
ENDCHAR
STARTCHAR 03F8
ENCODING 1016
SWIDTH 624 0
DWIDTH 13 0
BBX 11 19 1 -4
BITMAP
E000
E000
E000
E000
E780
FFC0
F1C0
F0E0
E0E0
E0E0
E0E0
F0E0
F1C0
FFC0
E780
E000
E000
E000
E000
ENDCHAR
STARTCHAR 03F9
ENCODING 1017
SWIDTH 720 0
DWIDTH 15 0
BBX 13 15 1 0
BITMAP
0FC0
3FF0
3FF0
7878
F030
E000
E000
E000
E000
E000
F030
7878
7FF0
3FF0
0FC0
ENDCHAR
STARTCHAR 03FA
ENCODING 1018
SWIDTH 864 0
DWIDTH 18 0
BBX 15 15 1 0
BITMAP
F81E
F83E
FC7E
EE7E
EEEE
E7EE
E7CE
E38E
E00E
E00E
E00E
E00E
E00E
E00E
E00E
ENDCHAR
STARTCHAR 03FB
ENCODING 1019
SWIDTH 768 0
DWIDTH 16 0
BBX 12 15 2 -4
BITMAP
E0F0
F0F0
F0F0
F1F0
F9B0
D9B0
DBB0
DF30
CF30
CF30
CE30
C000
C000
C000
C000
ENDCHAR
STARTCHAR 03FC
ENCODING 1020
SWIDTH 624 0
DWIDTH 13 0
BBX 12 15 0 -4
BITMAP
0F80
1FC0
38E0
3070
7070
7070
7070
7070
78E0
7FE0
7780
7000
FE00
7000
7000
ENDCHAR
STARTCHAR 03FD
ENCODING 1021
SWIDTH 720 0
DWIDTH 15 0
BBX 13 15 1 0
BITMAP
1F80
3FE0
7FF0
F0F0
6078
0038
0038
0038
0038
0038
6078
F0F0
7FF0
3FE0
1F80
ENDCHAR
STARTCHAR 03FE
ENCODING 1022
SWIDTH 720 0
DWIDTH 15 0
BBX 13 15 1 0
BITMAP
0FC0
3FE0
3FF0
7878
F030
E000
E700
E700
E700
E000
F030
7878
7FF0
3FE0
0FC0
ENDCHAR
STARTCHAR 03FF
ENCODING 1023
SWIDTH 720 0
DWIDTH 15 0
BBX 13 15 1 0
BITMAP
1F80
3FE0
7FF0
F0F0
6078
0038
0738
0738
0738
0038
6078
F0F0
7FF0
3FE0
1F80
ENDCHAR
STARTCHAR 0400
ENCODING 1024
SWIDTH 672 0
DWIDTH 14 0
BBX 11 19 2 0
BITMAP
1C00
0C00
0600
0000
FFE0
FFE0
FFE0
E000
E000
E000
FFC0
FFC0
FFC0
E000
E000
E000
FFE0
FFE0
FFE0
ENDCHAR
STARTCHAR 0401
ENCODING 1025
SWIDTH 672 0
DWIDTH 14 0
BBX 11 18 2 0
BITMAP
3B80
3B80
0000
FFE0
FFE0
FFE0
E000
E000
E000
FFC0
FFC0
FFC0
E000
E000
E000
FFE0
FFE0
FFE0
ENDCHAR
STARTCHAR 0402
ENCODING 1026
SWIDTH 912 0
DWIDTH 19 0
BBX 18 15 0 0
BITMAP
FFF000
FFF000
FFF000
070000
070000
077E00
07FF00
07FF80
07C3C0
0701C0
0701C0
0703C0
071F80
071F00
071E00
ENDCHAR
STARTCHAR 0403
ENCODING 1027
SWIDTH 624 0
DWIDTH 13 0
BBX 10 19 2 0
BITMAP
0E00
0C00
1800
0000
FFC0
FFC0
FFC0
E000
E000
E000
E000
E000
E000
E000
E000
E000
E000
E000
E000
ENDCHAR
STARTCHAR 0404
ENCODING 1028
SWIDTH 720 0
DWIDTH 15 0
BBX 13 15 1 0
BITMAP
0FC0
3FE0
7FF0
7878
F030
E000
FF00
FF00
FF00
E000
F030
7878
7FF0
3FE0
0FC0
ENDCHAR
STARTCHAR 0405
ENCODING 1029
SWIDTH 672 0
DWIDTH 14 0
BBX 12 15 1 0
BITMAP
1F80
7FC0
7FE0
F0E0
E0F0
F000
7F00
3FC0
0FE0
00F0
E070
F0F0
7FF0
7FE0
1F80
ENDCHAR
STARTCHAR 0406
ENCODING 1030
SWIDTH 288 0
DWIDTH 6 0
BBX 3 15 1 0
BITMAP
E0
E0
E0
E0
E0
E0
E0
E0
E0
E0
E0
E0
E0
E0
E0
ENDCHAR
STARTCHAR 0407
ENCODING 1031
SWIDTH 288 0
DWIDTH 6 0
BBX 7 18 -1 0
BITMAP
EE
EE
00
38
38
38
38
38
38
38
38
38
38
38
38
38
38
38
ENDCHAR
STARTCHAR 0408
ENCODING 1032
SWIDTH 576 0
DWIDTH 12 0
BBX 10 15 0 0
BITMAP
01C0
01C0
01C0
01C0
01C0
01C0
01C0
01C0
01C0
E1C0
E1C0
73C0
7FC0
3F80
1F00
ENDCHAR
STARTCHAR 0409
ENCODING 1033
SWIDTH 1104 0
DWIDTH 23 0
BBX 22 15 0 0
BITMAP
3FF000
3FF000
3FF000
387000
387000
387000
387FE0
387FF8
387FFC
38703C
38701C
38703C
F87FFC
F87FF8
F07FF0
ENDCHAR
STARTCHAR 040A
ENCODING 1034
SWIDTH 1056 0
DWIDTH 22 0
BBX 19 15 2 0
BITMAP
E1C000
E1C000
E1C000
E1C000
E1C000
E1C000
FFFF80
FFFFC0
FFFFE0
E1C0E0
E1C0E0
E1C0E0
E1FFE0
E1FFC0
E1FF80
ENDCHAR
STARTCHAR 040B
ENCODING 1035
SWIDTH 864 0
DWIDTH 18 0
BBX 16 15 1 0
BITMAP
FFF0
FFF0
FFF0
0E00
0E00
0EF8
0FFE
0FFF
0F0F
0E07
0E07
0E07
0E07
0E07
0E07
ENDCHAR
STARTCHAR 040C
ENCODING 1036
SWIDTH 624 0
DWIDTH 13 0
BBX 10 19 2 0
BITMAP
0E00
0C00
1800
0000
E1C0
E3C0
E700
E700
E600
EE00
FC00
FE00
EE00
E700
E780
E380
E380
E3C0
E1C0
ENDCHAR
STARTCHAR 040D
ENCODING 1037
SWIDTH 720 0
DWIDTH 15 0
BBX 12 19 2 0
BITMAP
1C00
0C00
0600
0000
C0F0
C0F0
C1F0
C3F0
C3F0
C770
C770
CE70
CC70
DC70
F870
F870
F070
E070
E070
ENDCHAR
STARTCHAR 040E
ENCODING 1038
SWIDTH 624 0
DWIDTH 13 0
BBX 13 19 0 0
BITMAP
18C0
0F80
0700
0000
F038
7070
7870
38E0
1CE0
1DE0
0FC0
0FC0
0780
0780
0700
0700
3E00
3E00
3C00
ENDCHAR
STARTCHAR 040F
ENCODING 1039
SWIDTH 720 0
DWIDTH 15 0
BBX 12 19 2 -4
BITMAP
E0F0
E0F0
E0F0
E0F0
E0F0
E0F0
E0F0
E0F0
E0F0
E0F0
E0F0
E0F0
FFF0
FFF0
FFF0
0E00
0E00
0E00
0E00
ENDCHAR
STARTCHAR 0410
ENCODING 1040
SWIDTH 720 0
DWIDTH 15 0
BBX 15 15 0 0
BITMAP
0380
07C0
07C0
0EC0
0EE0
0EE0
1C70
1C70
1C70
3FF8
3FF8
7FFC
701C
701C
E00E
ENDCHAR
STARTCHAR 0411
ENCODING 1041
SWIDTH 720 0
DWIDTH 15 0
BBX 12 15 2 0
BITMAP
FFE0
FFE0
FFE0
E000
E000
E000
FFC0
FFE0
FFF0
E0F0
E070
E0F0
FFF0
FFE0
FFC0
ENDCHAR
STARTCHAR 0412
ENCODING 1042
SWIDTH 720 0
DWIDTH 15 0
BBX 12 15 2 0
BITMAP
FF80
FFE0
FFE0
E0E0
E0E0
E0E0
FFC0
FFC0
FFE0
E0F0
E070
E070
FFF0
FFE0
FFC0
ENDCHAR
STARTCHAR 0413
ENCODING 1043
SWIDTH 576 0
DWIDTH 12 0
BBX 10 15 2 0
BITMAP
FFC0
FFC0
FFC0
E000
E000
E000
E000
E000
E000
E000
E000
E000
E000
E000
E000
ENDCHAR
STARTCHAR 0414
ENCODING 1044
SWIDTH 720 0
DWIDTH 15 0
BBX 14 18 0 -3
BITMAP
1FF8
1FF8
1FF8
1C38
1C38
1C38
1C38
3838
3838
3838
3838
7838
FFFC
FFFC
FFFC
C00C
C00C
C00C
ENDCHAR
STARTCHAR 0415
ENCODING 1045
SWIDTH 672 0
DWIDTH 14 0
BBX 11 15 2 0
BITMAP
FFE0
FFE0
FFE0
E000
E000
E000
FFC0
FFC0
FFC0
E000
E000
E000
FFE0
FFE0
FFE0
ENDCHAR
STARTCHAR 0416
ENCODING 1046
SWIDTH 912 0
DWIDTH 19 0
BBX 19 15 0 0
BITMAP
F0E1E0
F8E3E0
18E300
1CE700
0CE600
0EEE00
07FC00
0FFE00
1EEF00
1CE700
3CE780
38E380
78E3C0
70E1C0
F0E1E0
ENDCHAR
STARTCHAR 0417
ENCODING 1047
SWIDTH 624 0
DWIDTH 13 0
BBX 11 15 1 0
BITMAP
3F00
7FC0
FFC0
F1C0
61C0
01C0
0F00
0FC0
01E0
00E0
40E0
E1E0
FFE0
7FC0
3F00
ENDCHAR
STARTCHAR 0418
ENCODING 1048
SWIDTH 720 0
DWIDTH 15 0
BBX 12 15 2 0
BITMAP
C0F0
C0F0
C1F0
C3F0
C3F0
C770
C770
CE70
CC70
DC70
F870
F870
F070
E070
E070
ENDCHAR
STARTCHAR 0419
ENCODING 1049
SWIDTH 720 0
DWIDTH 15 0
BBX 12 19 2 0
BITMAP
3180
1F00
0E00
0000
C0F0
C0F0
C1F0
C3F0
C3F0
C770
C770
CE70
CC70
DC70
F870
F870
F070
E070
E070
ENDCHAR
STARTCHAR 041A
ENCODING 1050
SWIDTH 624 0
DWIDTH 13 0
BBX 10 15 2 0
BITMAP
E1C0
E3C0
E700
E700
E600
EE00
FC00
FE00
EE00
E700
E780
E380
E380
E3C0
E1C0
ENDCHAR
STARTCHAR 041B
ENCODING 1051
SWIDTH 720 0
DWIDTH 15 0
BBX 13 15 0 0
BITMAP
1FF8
1FF8
1FF8
1C38
1C38
1C38
1C38
1C38
1C38
1C38
1C38
3C38
F838
F838
F038
ENDCHAR
STARTCHAR 041C
ENCODING 1052
SWIDTH 864 0
DWIDTH 18 0
BBX 15 15 1 0
BITMAP
F83E
F83E
FC3E
FC3E
EC7E
EC7E
EE6E
EEEE
E6EE
E7EE
E7CE
E7CE
E3CE
E3CE
E38E
ENDCHAR
STARTCHAR 041D
ENCODING 1053
SWIDTH 720 0
DWIDTH 15 0
BBX 12 15 2 0
BITMAP
E070
E070
E070
E070
E070
E070
FFF0
FFF0
FFF0
E070
E070
E070
E070
E070
E070
ENDCHAR
STARTCHAR 041E
ENCODING 1054
SWIDTH 768 0
DWIDTH 16 0
BBX 14 15 1 0
BITMAP
0FC0
3FF0
7FF8
787C
F01C
E01C
E01C
E01C
E01C
E01C
F01C
787C
7FF8
3FF0
0FC0
ENDCHAR
STARTCHAR 041F
ENCODING 1055
SWIDTH 720 0
DWIDTH 15 0
BBX 12 15 2 0
BITMAP
FFF0
FFF0
FFF0
E0F0
E0F0
E0F0
E0F0
E0F0
E0F0
E0F0
E0F0
E0F0
E0F0
E0F0
E0F0
ENDCHAR
STARTCHAR 0420
ENCODING 1056
SWIDTH 672 0
DWIDTH 14 0
BBX 11 15 2 0
BITMAP
FF80
FFC0
FFE0
E1E0
E0E0
E1E0
FFE0
FFC0
FF80
E000
E000
E000
E000
E000
E000
ENDCHAR
STARTCHAR 0421
ENCODING 1057
SWIDTH 720 0
DWIDTH 15 0
BBX 13 15 1 0
BITMAP
0FC0
3FF0
3FF0
7878
F030
E000
E000
E000
E000
E000
F030
7878
7FF0
3FF0
0FC0
ENDCHAR
STARTCHAR 0422
ENCODING 1058
SWIDTH 624 0
DWIDTH 13 0
BBX 12 15 0 0
BITMAP
FFF0
FFF0
FFF0
0700
0700
0700
0700
0700
0700
0700
0700
0700
0700
0700
0700
ENDCHAR
STARTCHAR 0423
ENCODING 1059
SWIDTH 624 0
DWIDTH 13 0
BBX 13 15 0 0
BITMAP
F038
7070
7870
38E0
1CE0
1DE0
0FC0
0FC0
0780
0780
0700
0700
3E00
3E00
3C00
ENDCHAR
STARTCHAR 0424
ENCODING 1060
SWIDTH 864 0
DWIDTH 18 0
BBX 16 15 1 0
BITMAP
0380
0380
1FF8
3FFC
7FFE
F38F
E387
E387
E387
F38F
7FFE
3FFC
1FF8
0380
0380
ENDCHAR
STARTCHAR 0425
ENCODING 1061
SWIDTH 672 0
DWIDTH 14 0
BBX 14 15 0 0
BITMAP
7038
7878
3CF0
1CE0
1FE0
0FC0
0780
0780
0FC0
0FC0
1FE0
3CF0
3870
7878
F03C
ENDCHAR
STARTCHAR 0426
ENCODING 1062
SWIDTH 720 0
DWIDTH 15 0
BBX 13 18 2 -3
BITMAP
E0F0
E0F0
E0F0
E0F0
E0F0
E0F0
E0F0
E0F0
E0F0
E0F0
E0F0
E0F0
FFF8
FFF8
FFF8
0038
0038
0038
ENDCHAR
STARTCHAR 0427
ENCODING 1063
SWIDTH 720 0
DWIDTH 15 0
BBX 12 15 1 0
BITMAP
E070
E070
E070
E070
E070
E070
F070
7FF0
7FF0
1F70
0070
0070
0070
0070
0070
ENDCHAR
STARTCHAR 0428
ENCODING 1064
SWIDTH 1008 0
DWIDTH 21 0
BBX 18 15 2 0
BITMAP
E1C3C0
E1C3C0
E1C3C0
E1C3C0
E1C3C0
E1C3C0
E1C3C0
E1C3C0
E1C3C0
E1C3C0
E1C3C0
E1C3C0
FFFFC0
FFFFC0
FFFFC0
ENDCHAR
STARTCHAR 0429
ENCODING 1065
SWIDTH 1008 0
DWIDTH 21 0
BBX 19 18 2 -3
BITMAP
E1C3C0
E1C3C0
E1C3C0
E1C3C0
E1C3C0
E1C3C0
E1C3C0
E1C3C0
E1C3C0
E1C3C0
E1C3C0
E1C3C0
FFFFE0
FFFFE0
FFFFE0
0000E0
0000E0
0000E0
ENDCHAR
STARTCHAR 042A
ENCODING 1066
SWIDTH 864 0
DWIDTH 18 0
BBX 17 15 0 0
BITMAP
FF0000
FF0000
FF0000
070000
070000
070000
07FE00
07FF00
07FF80
070380
070380
070380
07FF80
07FF00
07FE00
ENDCHAR
STARTCHAR 042B
ENCODING 1067
SWIDTH 1008 0
DWIDTH 21 0
BBX 17 15 2 0
BITMAP
E00380
E00380
E00380
E00380
E00380
E00380
FFC380
FFE380
FFF380
E07380
E07380
E0F380
FFF380
FFE380
FFC380
ENDCHAR
STARTCHAR 042C
ENCODING 1068
SWIDTH 720 0
DWIDTH 15 0
BBX 12 15 2 0
BITMAP
E000
E000
E000
E000
E000
E000
FFC0
FFE0
FFF0
E0F0
E070
E0F0
FFF0
FFE0
FFC0
ENDCHAR
STARTCHAR 042D
ENCODING 1069
SWIDTH 720 0
DWIDTH 15 0
BBX 13 15 1 0
BITMAP
1F80
7FE0
7FF0
F0F0
6078
0038
07F8
07F8
07F8
0038
6078
F0F0
7FF0
7FE0
1F80
ENDCHAR
STARTCHAR 042E
ENCODING 1070
SWIDTH 1056 0
DWIDTH 22 0
BBX 19 15 2 0
BITMAP
E07E00
E1FF00
E3FF80
E3C3C0
E781C0
E701E0
FF00E0
FF00E0
FF01E0
E701E0
E781C0
E3C3C0
E3FF80
E1FF00
E07E00
ENDCHAR
STARTCHAR 042F
ENCODING 1071
SWIDTH 720 0
DWIDTH 15 0
BBX 14 15 0 0
BITMAP
1FFC
3FFC
3FFC
781C
701C
781C
3FFC
1FFC
07FC
0F1C
1E1C
3C1C
381C
781C
F01C
ENDCHAR
STARTCHAR 0430
ENCODING 1072
SWIDTH 576 0
DWIDTH 12 0
BBX 10 11 1 0
BITMAP
3F00
7F80
E380
0780
7F80
F980
E380
E380
E380
FF80
7DC0
ENDCHAR
STARTCHAR 0431
ENCODING 1073
SWIDTH 624 0
DWIDTH 13 0
BBX 11 15 1 0
BITMAP
1FE0
3FC0
6000
C000
CF00
FF80
F1C0
E0E0
E0E0
E0E0
E0E0
E0E0
71C0
3F80
1F00
ENDCHAR
STARTCHAR 0432
ENCODING 1074
SWIDTH 624 0
DWIDTH 13 0
BBX 10 11 2 0
BITMAP
FF00
FF80
C1C0
C1C0
FF80
FF80
C1C0
C1C0
C1C0
FFC0
FF80
ENDCHAR
STARTCHAR 0433
ENCODING 1075
SWIDTH 432 0
DWIDTH 9 0
BBX 8 11 1 0
BITMAP
FF
FF
E0
E0
E0
E0
E0
E0
E0
E0
E0
ENDCHAR
STARTCHAR 0434
ENCODING 1076
SWIDTH 624 0
DWIDTH 13 0
BBX 13 14 0 -3
BITMAP
1FF0
1FF0
1870
1870
1870
3870
3870
3870
7070
FFF8
FFF8
C018
C018
C018
ENDCHAR
STARTCHAR 0435
ENCODING 1077
SWIDTH 576 0
DWIDTH 12 0
BBX 10 11 1 0
BITMAP
3E00
7F80
E380
E1C0
FFC0
FFC0
E000
E1C0
F380
7F00
3E00
ENDCHAR
STARTCHAR 0436
ENCODING 1078
SWIDTH 720 0
DWIDTH 15 0
BBX 15 11 0 0
BITMAP
E38E
F39E
3BB8
1BB0
1FF0
1FF0
3BB8
3BB8
739C
739C
E38E
ENDCHAR
STARTCHAR 0437
ENCODING 1079
SWIDTH 480 0
DWIDTH 10 0
BBX 9 11 1 0
BITMAP
7E00
FF00
4700
0700
1E00
1F00
0700
0380
4780
FF00
7E00
ENDCHAR
STARTCHAR 0438
ENCODING 1080
SWIDTH 624 0
DWIDTH 13 0
BBX 10 11 1 0
BITMAP
E1C0
E1C0
E3C0
E3C0
E6C0
ECC0
ECC0
F8C0
F8C0
F0C0
E0C0
ENDCHAR
STARTCHAR 0439
ENCODING 1081
SWIDTH 624 0
DWIDTH 13 0
BBX 10 16 1 0
BITMAP
3180
1F00
0E00
0000
0000
E1C0
E1C0
E3C0
E3C0
E6C0
ECC0
ECC0
F8C0
F8C0
F0C0
E0C0
ENDCHAR
STARTCHAR 043A
ENCODING 1082
SWIDTH 528 0
DWIDTH 11 0
BBX 9 11 1 0
BITMAP
E380
E780
E600
EE00
FC00
FC00
EE00
E700
E700
E380
E380
ENDCHAR
STARTCHAR 043B
ENCODING 1083
SWIDTH 624 0
DWIDTH 13 0
BBX 12 11 0 0
BITMAP
3FF0
3FF0
3870
3870
3870
3870
3870
3870
3870
F870
F070
ENDCHAR
STARTCHAR 043C
ENCODING 1084
SWIDTH 768 0
DWIDTH 16 0
BBX 12 11 2 0
BITMAP
E0F0
F0F0
F0F0
F1F0
F9B0
D9B0
DBB0
DF30
CF30
CF30
CE30
ENDCHAR
STARTCHAR 043D
ENCODING 1085
SWIDTH 624 0
DWIDTH 13 0
BBX 10 11 1 0
BITMAP
E1C0
E1C0
E1C0
E1C0
FFC0
FFC0
E1C0
E1C0
E1C0
E1C0
E1C0
ENDCHAR
STARTCHAR 043E
ENCODING 1086
SWIDTH 624 0
DWIDTH 13 0
BBX 11 11 1 0
BITMAP
1F00
7F80
71C0
E0E0
E0E0
E0E0
E0E0
E0E0
71C0
7F80
1F00
ENDCHAR
STARTCHAR 043F
ENCODING 1087
SWIDTH 624 0
DWIDTH 13 0
BBX 10 11 1 0
BITMAP
FFC0
FFC0
E1C0
E1C0
E1C0
E1C0
E1C0
E1C0
E1C0
E1C0
E1C0
ENDCHAR
STARTCHAR 0440
ENCODING 1088
SWIDTH 624 0
DWIDTH 13 0
BBX 11 15 1 -4
BITMAP
EF80
FFC0
F1C0
F0E0
E0E0
E0E0
E0E0
F0E0
F1C0
FFC0
E780
E000
E000
E000
E000
ENDCHAR
STARTCHAR 0441
ENCODING 1089
SWIDTH 576 0
DWIDTH 12 0
BBX 10 11 1 0
BITMAP
1F00
7F80
7180
E1C0
E000
E000
E000
E1C0
71C0
7F80
1F00
ENDCHAR
STARTCHAR 0442
ENCODING 1090
SWIDTH 480 0
DWIDTH 10 0
BBX 10 11 0 0
BITMAP
FFC0
FFC0
0E00
0E00
0E00
0E00
0E00
0E00
0E00
0E00
0E00
ENDCHAR
STARTCHAR 0443
ENCODING 1091
SWIDTH 576 0
DWIDTH 12 0
BBX 11 15 0 -4
BITMAP
E0E0
70E0
70C0
71C0
39C0
3980
1B80
1F80
1F00
0F00
0F00
0E00
1E00
7C00
7800
ENDCHAR
STARTCHAR 0444
ENCODING 1092
SWIDTH 864 0
DWIDTH 18 0
BBX 17 19 1 -4
BITMAP
01C000
01C000
01C000
01C000
3DDC00
7FFE00
73E700
E1C700
E1C700
E1C380
E1C700
E3C700
F3E700
7FFE00
3DDC00
01C000
01C000
01C000
01C000
ENDCHAR
STARTCHAR 0445
ENCODING 1093
SWIDTH 576 0
DWIDTH 12 0
BBX 11 11 0 0
BITMAP
71E0
79C0
3B80
1F80
1F00
0F00
1F00
1F80
3BC0
71C0
F0E0
ENDCHAR
STARTCHAR 0446
ENCODING 1094
SWIDTH 624 0
DWIDTH 13 0
BBX 11 14 1 -3
BITMAP
E1C0
E1C0
E1C0
E1C0
E1C0
E1C0
E1C0
E1C0
E1C0
FFE0
FFE0
0060
0060
0060
ENDCHAR
STARTCHAR 0447
ENCODING 1095
SWIDTH 576 0
DWIDTH 12 0
BBX 10 11 1 0
BITMAP
E1C0
E1C0
E1C0
E1C0
F1C0
7FC0
3FC0
01C0
01C0
01C0
01C0
ENDCHAR
STARTCHAR 0448
ENCODING 1096
SWIDTH 864 0
DWIDTH 18 0
BBX 15 11 1 0
BITMAP
E38E
E38E
E38E
E38E
E38E
E38E
E38E
E38E
E38E
FFFE
FFFE
ENDCHAR
STARTCHAR 0449
ENCODING 1097
SWIDTH 864 0
DWIDTH 18 0
BBX 16 14 1 -3
BITMAP
E38E
E38E
E38E
E38E
E38E
E38E
E38E
E38E
E38E
FFFF
FFFF
0003
0003
0003
ENDCHAR
STARTCHAR 044A
ENCODING 1098
SWIDTH 720 0
DWIDTH 15 0
BBX 14 11 0 0
BITMAP
FE00
FE00
0E00
0E00
0E00
0FF8
0FFC
0E1C
0E1C
0FFC
0FF8
ENDCHAR
STARTCHAR 044B
ENCODING 1099
SWIDTH 864 0
DWIDTH 18 0
BBX 15 11 2 0
BITMAP
C00E
C00E
C00E
C00E
FF0E
FF8E
C1CE
C1CE
C1CE
FFCE
FF0E
ENDCHAR
STARTCHAR 044C
ENCODING 1100
SWIDTH 624 0
DWIDTH 13 0
BBX 10 11 2 0
BITMAP
C000
C000
C000
C000
FF00
FFC0
C1C0
C1C0
C1C0
FFC0
FF00
ENDCHAR
STARTCHAR 044D
ENCODING 1101
SWIDTH 576 0
DWIDTH 12 0
BBX 10 11 1 0
BITMAP
3E00
FF00
6380
01C0
0FC0
0FC0
01C0
03C0
6380
FF00
7E00
ENDCHAR
STARTCHAR 044E
ENCODING 1102
SWIDTH 864 0
DWIDTH 18 0
BBX 16 11 1 0
BITMAP
E0F8
E1FE
E38E
E387
FF87
FF87
E387
E387
E38E
E1FE
E0F8
ENDCHAR
STARTCHAR 044F
ENCODING 1103
SWIDTH 576 0
DWIDTH 12 0
BBX 11 11 0 0
BITMAP
3FE0
7FE0
70E0
70E0
70E0
3FE0
1FE0
3CE0
38E0
70E0
F0E0
ENDCHAR
STARTCHAR 0450
ENCODING 1104
SWIDTH 576 0
DWIDTH 12 0
BBX 10 16 1 0
BITMAP
3800
1800
0C00
0000
0000
3E00
7F80
E380
E1C0
FFC0
FFC0
E000
E1C0
F380
7F00
3E00
ENDCHAR
STARTCHAR 0451
ENCODING 1105
SWIDTH 576 0
DWIDTH 12 0
BBX 10 15 1 0
BITMAP
7700
7700
0000
0000
3E00
7F80
E380
E1C0
FFC0
FFC0
E000
E1C0
F380
7F00
3E00
ENDCHAR
STARTCHAR 0452
ENCODING 1106
SWIDTH 624 0
DWIDTH 13 0
BBX 11 19 0 -4
BITMAP
7000
FF00
FF00
7000
73C0
7FE0
78E0
78E0
7060
7060
7060
7060
7060
7060
7060
0060
00E0
03E0
03C0
ENDCHAR
STARTCHAR 0453
ENCODING 1107
SWIDTH 432 0
DWIDTH 9 0
BBX 8 16 1 0
BITMAP
1C
18
30
00
00
FF
FF
E0
E0
E0
E0
E0
E0
E0
E0
E0
ENDCHAR
STARTCHAR 0454
ENCODING 1108
SWIDTH 576 0
DWIDTH 12 0
BBX 10 11 1 0
BITMAP
1F00
7F80
E100
E000
FC00
FC00
E000
E000
F180
7FC0
3F00
ENDCHAR
STARTCHAR 0455
ENCODING 1109
SWIDTH 576 0
DWIDTH 12 0
BBX 10 11 1 0
BITMAP
3E00
FF80
E380
E000
FC00
7F00
0F80
01C0
E1C0
FF80
3F00
ENDCHAR
STARTCHAR 0456
ENCODING 1110
SWIDTH 288 0
DWIDTH 6 0
BBX 2 15 2 0
BITMAP
C0
C0
00
00
C0
C0
C0
C0
C0
C0
C0
C0
C0
C0
C0
ENDCHAR
STARTCHAR 0457
ENCODING 1111
SWIDTH 288 0
DWIDTH 6 0
BBX 7 15 -1 0
BITMAP
EE
EE
00
00
38
38
38
38
38
38
38
38
38
38
38
ENDCHAR
STARTCHAR 0458
ENCODING 1112
SWIDTH 288 0
DWIDTH 6 0
BBX 5 19 -1 -4
BITMAP
38
38
00
00
38
38
38
38
38
38
38
38
38
38
38
38
38
F8
F0
ENDCHAR
STARTCHAR 0459
ENCODING 1113
SWIDTH 960 0
DWIDTH 20 0
BBX 20 11 0 0
BITMAP
3FF000
3FF000
387000
387000
387FC0
387FE0
3870E0
387070
3870E0
F87FE0
F07FC0
ENDCHAR
STARTCHAR 045A
ENCODING 1114
SWIDTH 912 0
DWIDTH 19 0
BBX 17 11 1 0
BITMAP
E1C000
E1C000
E1C000
E1C000
FFFF00
FFFF80
E1C380
E1C380
E1C380
E1FF80
E1FF00
ENDCHAR
STARTCHAR 045B
ENCODING 1115
SWIDTH 624 0
DWIDTH 13 0
BBX 11 15 0 0
BITMAP
7000
FF00
FF00
7000
73C0
7FE0
78E0
78E0
7060
7060
7060
7060
7060
7060
7060
ENDCHAR
STARTCHAR 045C
ENCODING 1116
SWIDTH 528 0
DWIDTH 11 0
BBX 9 16 1 0
BITMAP
0E00
0C00
1800
0000
0000
E380
E780
E600
EE00
FC00
FC00
EE00
E700
E700
E380
E380
ENDCHAR
STARTCHAR 045D
ENCODING 1117
SWIDTH 624 0
DWIDTH 13 0
BBX 10 16 1 0
BITMAP
1C00
0C00
0600
0000
0000
E1C0
E1C0
E3C0
E3C0
E6C0
ECC0
ECC0
F8C0
F8C0
F0C0
E0C0
ENDCHAR
STARTCHAR 045E
ENCODING 1118
SWIDTH 576 0
DWIDTH 12 0
BBX 11 20 0 -4
BITMAP
3180
1F00
0E00
0000
0000
E0E0
70E0
70C0
71C0
39C0
3980
1B80
1F80
1F00
0F00
0F00
0E00
1E00
7C00
7800
ENDCHAR
STARTCHAR 045F
ENCODING 1119
SWIDTH 624 0
DWIDTH 13 0
BBX 10 14 1 -3
BITMAP
E1C0
E1C0
E1C0
E1C0
E1C0
E1C0
E1C0
E1C0
E1C0
FFC0
FFC0
0E00
0E00
0E00
ENDCHAR
STARTCHAR 0460
ENCODING 1120
SWIDTH 1296 0
DWIDTH 27 0
BBX 25 15 1 0
BITMAP
0FC1F800
1FE3FC00
3FC1FE00
78410F00
F0000700
E0000380
E0000380
E0000380
E01C0380
E01C0780
F01C0700
783E0F00
3FFFFE00
1FFFFC00
0FE3F000
ENDCHAR
STARTCHAR 0461
ENCODING 1121
SWIDTH 768 0
DWIDTH 16 0
BBX 16 11 0 0
BITMAP
E387
E387
E38E
738E
738E
33DC
3BDC
3FF8
1FF8
1E78
0E70
ENDCHAR
STARTCHAR 0462
ENCODING 1122
SWIDTH 864 0
DWIDTH 18 0
BBX 17 15 0 0
BITMAP
070000
070000
FFF000
FFF000
070000
070000
07FE00
07FF00
07FF80
070380
070380
070380
07FF80
07FF00
07FE00
ENDCHAR
STARTCHAR 0463
ENCODING 1123
SWIDTH 720 0
DWIDTH 15 0
BBX 14 15 0 0
BITMAP
1C00
1C00
1C00
1C00
FF80
FF80
1C00
1C00
1FF0
1FF8
1C1C
1C1C
1C1C
1FF8
1FF0
ENDCHAR
STARTCHAR 0464
ENCODING 1124
SWIDTH 960 0
DWIDTH 20 0
BBX 18 15 1 0
BITMAP
E07E00
E0FF80
E1FFC0
E3C3C0
E38180
E38000
FFF800
FFF800
FFF800
E38000
E38180
E3C3C0
E1FFC0
E0FF80
E07E00
ENDCHAR
STARTCHAR 0465
ENCODING 1125
SWIDTH 816 0
DWIDTH 17 0
BBX 14 11 2 0
BITMAP
C3F0
C7FC
CF10
CE00
FFC0
FFC0
CE00
CE00
C718
C7FC
C1F0
ENDCHAR
STARTCHAR 0466
ENCODING 1126
SWIDTH 672 0
DWIDTH 14 0
BBX 14 15 0 0
BITMAP
0780
0780
0FC0
0FC0
0FC0
1DE0
1CE0
1FE0
3FF0
3B70
3B70
7338
7338
7338
E31C
ENDCHAR
STARTCHAR 0467
ENCODING 1127
SWIDTH 576 0
DWIDTH 12 0
BBX 11 11 0 0
BITMAP
0E00
0F00
0F00
1F00
1F80
3B80
3FC0
3FC0
77C0
76E0
E6E0
ENDCHAR
STARTCHAR 0468
ENCODING 1128
SWIDTH 912 0
DWIDTH 19 0
BBX 18 15 1 0
BITMAP
E03800
E07C00
E07C00
E0FC00
E0EE00
E0EE00
E1CE00
FFFF00
FFFF00
E3B700
E3B380
E3B380
E733C0
E731C0
E731C0
ENDCHAR
STARTCHAR 0469
ENCODING 1129
SWIDTH 816 0
DWIDTH 17 0
BBX 14 11 2 0
BITMAP
C1C0
C1E0
C1E0
C3F0
C3F0
C370
FFF8
FFF8
CEFC
CEDC
DCDC
ENDCHAR
STARTCHAR 046A
ENCODING 1130
SWIDTH 816 0
DWIDTH 17 0
BBX 15 15 1 0
BITMAP
7FFC
7FFC
3FF8
1C70
1E70
0EE0
1FF0
7FFC
7FFC
F39E
E38E
E38E
E38E
E38E
E38E
ENDCHAR
STARTCHAR 046B
ENCODING 1131
SWIDTH 768 0
DWIDTH 16 0
BBX 14 11 1 0
BITMAP
3FF0
3FF0
1CE0
1CC0
0FC0
1FE0
7FF0
7738
E718
E71C
E71C
ENDCHAR
STARTCHAR 046C
ENCODING 1132
SWIDTH 1104 0
DWIDTH 23 0
BBX 21 15 1 0
BITMAP
E3FFF0
E1FFE0
E0FFC0
E0E1C0
E07380
E03B00
FFFFC0
FFFFE0
FFFFF0
E3CE70
E38E78
E38E38
E38E38
E38E38
E38E38
ENDCHAR
STARTCHAR 046D
ENCODING 1133
SWIDTH 1008 0
DWIDTH 21 0
BBX 17 11 2 0
BITMAP
C7FF00
C3FE00
C1CE00
C1DC00
C0DC00
FFFE00
FFFF00
C77380
CE7380
CE7380
CE7380
ENDCHAR
STARTCHAR 046E
ENCODING 1134
SWIDTH 624 0
DWIDTH 13 0
BBX 11 22 1 -4
BITMAP
31C0
1300
1E00
3F00
7FC0
FFC0
F1C0
61C0
01C0
0180
0F00
0FC0
01E0
00E0
01E0
3FE0
FFC0
FF00
E000
FFC0
FFE0
3FE0
ENDCHAR
STARTCHAR 046F
ENCODING 1135
SWIDTH 480 0
DWIDTH 10 0
BBX 9 18 1 -4
BITMAP
6380
2600
3C00
3C00
FF00
E700
0700
0700
1E00
1F00
0300
0380
7F00
FE00
E000
E700
FF80
7980
ENDCHAR
STARTCHAR 0470
ENCODING 1136
SWIDTH 816 0
DWIDTH 17 0
BBX 15 15 1 0
BITMAP
E38E
E38E
F38E
738E
738E
738E
7B8E
3B9E
3FFC
1FFC
0FF0
0380
0380
0380
0380
ENDCHAR
STARTCHAR 0471
ENCODING 1137
SWIDTH 768 0
DWIDTH 16 0
BBX 14 15 1 -4
BITMAP
E71C
E71C
771C
771C
771C
771C
771C
3718
3F38
3FF0
1FE0
0700
0700
0700
0700
ENDCHAR
STARTCHAR 0472
ENCODING 1138
SWIDTH 768 0
DWIDTH 16 0
BBX 14 15 1 0
BITMAP
0FC0
3FF0
7FF8
783C
F01C
E1FC
FFFC
FFFC
FE1C
E01C
F03C
787C
7FF8
3FF0
0FC0
ENDCHAR
STARTCHAR 0473
ENCODING 1139
SWIDTH 624 0
DWIDTH 13 0
BBX 11 11 1 0
BITMAP
1F00
7F80
71C0
E0E0
E7E0
FFE0
F8E0
E0E0
71C0
7F80
1F00
ENDCHAR
STARTCHAR 0474
ENCODING 1140
SWIDTH 816 0
DWIDTH 17 0
BBX 17 15 0 0
BITMAP
E01E00
701F00
703F80
703900
387800
387000
387000
1CE000
1CE000
1EE000
0FC000
0FC000
0FC000
078000
078000
ENDCHAR
STARTCHAR 0475
ENCODING 1141
SWIDTH 672 0
DWIDTH 14 0
BBX 13 11 0 0
BITMAP
E070
70F8
71C0
31C0
3980
3B80
1B80
1F00
0F00
0F00
0E00
ENDCHAR
STARTCHAR 0476
ENCODING 1142
SWIDTH 816 0
DWIDTH 17 0
BBX 17 19 0 0
BITMAP
3B8000
1D8000
0CC000
000000
E01E00
701F00
703F80
703900
387800
387000
387000
1CE000
1CE000
1EE000
0FC000
0FC000
0FC000
078000
078000
ENDCHAR
STARTCHAR 0477
ENCODING 1143
SWIDTH 672 0
DWIDTH 14 0
BBX 13 16 0 0
BITMAP
7700
3B00
1980
0000
0000
E070
70F8
71C0
31C0
3980
3B80
1B80
1F00
0F00
0F00
0E00
ENDCHAR
STARTCHAR 0478
ENCODING 1144
SWIDTH 1152 0
DWIDTH 24 0
BBX 22 19 1 -4
BITMAP
1F0000
3F8000
7FC000
71C000
F1FE1C
E0EE1C
E0EE38
E0E738
E0E730
E0E770
F1E3F0
71C3E0
7FC3E0
3F81E0
1F01C0
0001C0
000380
000F80
000F00
ENDCHAR
STARTCHAR 0479
ENCODING 1145
SWIDTH 960 0
DWIDTH 20 0
BBX 19 15 1 -4
BITMAP
3CE0E0
7E70E0
E771C0
E771C0
E73B80
E73B80
E71B80
E71F00
E71F00
7E0F00
3C0E00
000E00
001C00
007C00
007800
ENDCHAR
STARTCHAR 047A
ENCODING 1146
SWIDTH 816 0
DWIDTH 17 0
BBX 17 17 0 -1
BITMAP
01C000
07F000
1FFC00
3FFE00
7DDF00
700700
700780
F00380
E00380
F00380
700780
700700
7DDF00
3FFE00
1FFC00
07F000
01C000
ENDCHAR
STARTCHAR 047B
ENCODING 1147
SWIDTH 624 0
DWIDTH 13 0
BBX 13 13 0 -1
BITMAP
0700
1FC0
3FE0
7B70
7038
E038
E038
E038
7038
7B70
3FE0
1FC0
0700
ENDCHAR
STARTCHAR 047C
ENCODING 1148
SWIDTH 1296 0
DWIDTH 27 0
BBX 25 22 1 0
BITMAP
003E0000
007F8000
00E1F000
00D87000
00180000
00080000
00080000
0FC1F800
1FE3FC00
7FC1FE00
78410F00
F0000780
E0000380
E0000380
E0000380
E0000380
E0000780
F0080700
783E0F00
3FFFFE00
1FFFFC00
0FE3F000
ENDCHAR
STARTCHAR 047D
ENCODING 1149
SWIDTH 912 0
DWIDTH 19 0
BBX 17 19 1 0
BITMAP
03E000
07F800
0E1F00
0DC700
01C000
008000
008000
000000
180C00
780F00
700700
E00380
E00380
E00380
E00380
E00380
708700
7FFF00
1F7C00
ENDCHAR
STARTCHAR 047E
ENCODING 1150
SWIDTH 1296 0
DWIDTH 27 0
BBX 25 18 1 0
BITMAP
007F8000
00488000
00000000
0FC1F800
1FE3FC00
3FC1FE00
78410F00
F0000700
E0000380
E0000380
E0000380
E01C0380
E01C0780
F01C0700
783E0F00
3FFFFE00
1FFFFC00
0FE3F000
ENDCHAR
STARTCHAR 047F
ENCODING 1151
SWIDTH 768 0
DWIDTH 16 0
BBX 16 15 0 0
BITMAP
0FF0
0910
0000
0000
E387
E387
E38E
738E
738E
33DC
3BDC
3FF8
1FF8
1E78
0E70
ENDCHAR
STARTCHAR 0480
ENCODING 1152
SWIDTH 720 0
DWIDTH 15 0
BBX 13 19 1 -4
BITMAP
0FC0
3FE0
3FF0
7870
F038
E030
E000
E000
E000
E000
F000
7800
7F00
3F00
0F00
0700
0700
0700
0700
ENDCHAR
STARTCHAR 0481
ENCODING 1153
SWIDTH 576 0
DWIDTH 12 0
BBX 10 15 1 -4
BITMAP
1F00
7F80
71C0
E1C0
E000
E000
E000
E000
F000
7E00
3E00
0E00
0E00
0E00
0E00
ENDCHAR
STARTCHAR 0482
ENCODING 1154
SWIDTH 576 0
DWIDTH 12 0
BBX 12 15 0 0
BITMAP
0180
0180
0380
2300
3F00
7FC0
1FF0
47F0
FE30
FF80
3FE0
0FE0
0C40
0C00
1C00
ENDCHAR
STARTCHAR 0483
ENCODING 1155
SWIDTH 0 0
DWIDTH 0 0
BBX 6 3 -3 13
BITMAP
0C
FC
C0
ENDCHAR
STARTCHAR 0484
ENCODING 1156
SWIDTH 0 0
DWIDTH 0 0
BBX 6 3 -3 13
BITMAP
38
E4
C4
ENDCHAR
STARTCHAR 0485
ENCODING 1157
SWIDTH 0 0
DWIDTH 0 0
BBX 2 4 -1 11
BITMAP
C0
C0
80
40
ENDCHAR
STARTCHAR 0486
ENCODING 1158
SWIDTH 0 0
DWIDTH 0 0
BBX 2 4 -1 11
BITMAP
C0
C0
40
80
ENDCHAR
STARTCHAR 0487
ENCODING 1159
SWIDTH 0 0
DWIDTH 0 0
BBX 12 4 -6 14
BITMAP
1E00
7FC0
61F0
C070
ENDCHAR
STARTCHAR 0488
ENCODING 1160
SWIDTH 0 0
DWIDTH 0 0
BBX 20 21 -10 -4
BITMAP
00E000
009000
009000
3801C0
480120
480220
000000
000000
000000
7000E0
900090
900090
000000
000000
000000
3801C0
480120
480220
00E000
009000
009000
ENDCHAR
STARTCHAR 0489
ENCODING 1161
SWIDTH 0 0
DWIDTH 0 0
BBX 20 21 -10 -4
BITMAP
002000
004000
006000
2060C0
200180
180100
080000
000000
000000
0000E0
B000D0
700000
000000
000000
000100
080180
180080
306080
006000
004000
004000
ENDCHAR
STARTCHAR 048A
ENCODING 1162
SWIDTH 720 0
DWIDTH 15 0
BBX 13 22 2 -3
BITMAP
3180
1F00
0E00
0000
C0F0
C0F0
C1F0
C3F0
C3F0
C770
C770
CE70
CC70
DC70
F870
F870
F078
E078
E070
0030
0070
0060
ENDCHAR
STARTCHAR 048B
ENCODING 1163
SWIDTH 624 0
DWIDTH 13 0
BBX 12 19 1 -3
BITMAP
3180
1F00
0E00
0000
0000
E1C0
E1C0
E3C0
E7C0
E6C0
EEC0
FCC0
F8C0
F8C0
F0F0
F0E0
0060
00E0
00C0
ENDCHAR
STARTCHAR 048C
ENCODING 1164
SWIDTH 720 0
DWIDTH 15 0
BBX 14 15 0 0
BITMAP
3800
3800
FC00
FC00
3800
3800
3FF0
3FF8
3FFC
383C
381C
383C
3FFC
3FF8
3FF0
ENDCHAR
STARTCHAR 048D
ENCODING 1165
SWIDTH 624 0
DWIDTH 13 0
BBX 12 15 0 0
BITMAP
3000
FC00
FC00
3000
3000
3000
3000
3000
3FC0
3FF0
3070
3070
3070
3FF0
3FC0
ENDCHAR
STARTCHAR 048E
ENCODING 1166
SWIDTH 672 0
DWIDTH 14 0
BBX 11 15 2 0
BITMAP
FF80
FFC0
FFE0
E1E0
E2E0
E7E0
FFE0
FFC0
FFE0
E040
E000
E000
E000
E000
E000
ENDCHAR
STARTCHAR 048F
ENCODING 1167
SWIDTH 624 0
DWIDTH 13 0
BBX 11 15 1 -4
BITMAP
EF80
FFC0
F1C0
F0E0
E0E0
E0E0
E2E0
F7E0
F3C0
FFC0
EFE0
E020
E000
E000
E000
ENDCHAR
STARTCHAR 0490
ENCODING 1168
SWIDTH 480 0
DWIDTH 10 0
BBX 8 18 2 0
BITMAP
07
07
07
FF
FF
FF
E0
E0
E0
E0
E0
E0
E0
E0
E0
E0
E0
E0
ENDCHAR
STARTCHAR 0491
ENCODING 1169
SWIDTH 432 0
DWIDTH 9 0
BBX 8 14 1 0
BITMAP
07
07
07
FF
FF
E0
E0
E0
E0
E0
E0
E0
E0
E0
ENDCHAR
STARTCHAR 0492
ENCODING 1170
SWIDTH 576 0
DWIDTH 12 0
BBX 12 15 0 0
BITMAP
3FF0
3FF0
3800
3800
3800
3800
FF00
FF00
3800
3800
3800
3800
3800
3800
3800
ENDCHAR
STARTCHAR 0493
ENCODING 1171
SWIDTH 432 0
DWIDTH 9 0
BBX 9 11 0 0
BITMAP
7F80
7F80
7000
7000
FC00
FC00
7000
7000
7000
7000
7000
ENDCHAR
STARTCHAR 0494
ENCODING 1172
SWIDTH 720 0
DWIDTH 15 0
BBX 11 20 2 -5
BITMAP
FFC0
FFC0
FFC0
E000
E000
FF00
FFC0
FFE0
E1E0
E0E0
E0E0
E0E0
E0E0
E0E0
E0E0
00E0
E1E0
FFC0
7F80
3F00
ENDCHAR
STARTCHAR 0495
ENCODING 1173
SWIDTH 624 0
DWIDTH 13 0
BBX 11 15 1 -4
BITMAP
FF00
FF00
E000
E000
FF00
FFC0
E1C0
E0E0
E0E0
E0E0
E0E0
00E0
F1C0
7FC0
1F00
ENDCHAR
STARTCHAR 0496
ENCODING 1174
SWIDTH 912 0
DWIDTH 19 0
BBX 19 18 0 -3
BITMAP
F0E1E0
F8E3E0
FCE7E0
1CE700
1EEF00
0FFE00
07FC00
0FFE00
1EEF00
1CE700
3CE780
38E380
78E3E0
70E1E0
F0E1E0
0000E0
0000E0
0000E0
ENDCHAR
STARTCHAR 0497
ENCODING 1175
SWIDTH 720 0
DWIDTH 15 0
BBX 15 14 0 -3
BITMAP
E39E
F39E
3BB8
1BB0
1FF0
1FF0
3BB8
3BB8
739C
739E
E38E
0006
0006
0006
ENDCHAR
STARTCHAR 0498
ENCODING 1176
SWIDTH 624 0
DWIDTH 13 0
BBX 11 19 1 -4
BITMAP
3F00
7FC0
FFC0
F1C0
61C0
01C0
0F00
0FC0
01E0
00E0
40E0
E1E0
FFE0
7FC0
3F00
0600
0600
3E00
1C00
ENDCHAR
STARTCHAR 0499
ENCODING 1177
SWIDTH 480 0
DWIDTH 10 0
BBX 10 15 0 -4
BITMAP
1F00
7F80
6380
0380
0F00
0F80
0380
01C0
E3C0
7F80
3F00
0400
0400
3C00
3C00
ENDCHAR
STARTCHAR 049A
ENCODING 1178
SWIDTH 624 0
DWIDTH 13 0
BBX 11 18 2 -3
BITMAP
E1C0
E3C0
E7C0
E700
EF00
FE00
FC00
FE00
EF00
E700
E780
E380
E3E0
E3E0
E1E0
00E0
00E0
00E0
ENDCHAR
STARTCHAR 049B
ENCODING 1179
SWIDTH 528 0
DWIDTH 11 0
BBX 10 14 1 -3
BITMAP
E380
E780
E600
EE00
FC00
FC00
EE00
E700
E700
E3C0
E3C0
01C0
01C0
01C0
ENDCHAR
STARTCHAR 049C
ENCODING 1180
SWIDTH 624 0
DWIDTH 13 0
BBX 10 15 2 0
BITMAP
E1C0
E3C0
EFC0
EF00
EF00
FE00
FC00
FE00
EF00
EF00
EF80
EB80
EBC0
E3C0
E1C0
ENDCHAR
STARTCHAR 049D
ENCODING 1181
SWIDTH 528 0
DWIDTH 11 0
BBX 9 11 1 0
BITMAP
E380
EF80
EE00
EE00
FC00
FC00
EE00
EF00
EF00
EB80
E380
ENDCHAR
STARTCHAR 049E
ENCODING 1182
SWIDTH 624 0
DWIDTH 13 0
BBX 12 15 0 0
BITMAP
3870
38F0
FDC0
FDC0
3980
3B80
3F00
3F80
3B80
39C0
39E0
38E0
38E0
38F0
3870
ENDCHAR
STARTCHAR 049F
ENCODING 1183
SWIDTH 528 0
DWIDTH 11 0
BBX 10 15 0 0
BITMAP
7000
FC00
FC00
7000
71C0
73C0
7300
7700
7E00
7E00
7700
7380
7380
71C0
71C0
ENDCHAR
STARTCHAR 04A0
ENCODING 1184
SWIDTH 768 0
DWIDTH 16 0
BBX 16 15 0 0
BITMAP
FF0F
FF1F
FF18
0738
0730
0770
07E0
07F0
0778
0738
073C
071C
071E
070E
070F
ENDCHAR
STARTCHAR 04A1
ENCODING 1185
SWIDTH 624 0
DWIDTH 13 0
BBX 13 11 0 0
BITMAP
FE38
FE78
0EE0
0EC0
0FC0
0FC0
0EE0
0E60
0E70
0E70
0E38
ENDCHAR
STARTCHAR 04A2
ENCODING 1186
SWIDTH 720 0
DWIDTH 15 0
BBX 13 18 2 -3
BITMAP
E070
E070
E070
E070
E070
E070
FFF0
FFF0
FFF0
E070
E070
E070
E078
E078
E078
0038
0038
0038
ENDCHAR
STARTCHAR 04A3
ENCODING 1187
SWIDTH 624 0
DWIDTH 13 0
BBX 11 14 1 -3
BITMAP
E1C0
E1C0
E1C0
E1C0
FFC0
FFC0
E1C0
E1C0
E1C0
E1E0
E1E0
0060
0060
0060
ENDCHAR
STARTCHAR 04A4
ENCODING 1188
SWIDTH 864 0
DWIDTH 18 0
BBX 16 15 2 0
BITMAP
E07F
E07F
E07F
E070
E070
E070
FFF0
FFF0
FFF0
E070
E070
E070
E070
E070
E070
ENDCHAR
STARTCHAR 04A5
ENCODING 1189
SWIDTH 720 0
DWIDTH 15 0
BBX 14 11 1 0
BITMAP
E1FC
E1FC
E1C0
E1C0
FFC0
FFC0
E1C0
E1C0
E1C0
E1C0
E1C0
ENDCHAR
STARTCHAR 04A6
ENCODING 1190
SWIDTH 1152 0
DWIDTH 24 0
BBX 20 20 2 -5
BITMAP
FFF000
FFF000
FFF000
E0F000
E0F000
E0FF80
E0FFE0
E0FFE0
E0F0F0
E0F070
E0F070
E0F070
E0F070
E0F070
E0F070
000070
0070F0
007FE0
003FC0
001F80
ENDCHAR
STARTCHAR 04A7
ENCODING 1191
SWIDTH 912 0
DWIDTH 19 0
BBX 18 15 1 -4
BITMAP
FFC000
FFC000
E1C000
E1C000
E1FE00
E1FF80
E1C380
E1C1C0
E1C1C0
E1C1C0
E1C1C0
0001C0
01C380
00FF80
007E00
ENDCHAR
STARTCHAR 04A8
ENCODING 1192
SWIDTH 720 0
DWIDTH 15 0
BBX 14 15 1 0
BITMAP
1E00
3E00
7E00
F1E0
E3F0
E7F0
E770
E730
E730
E730
E770
F3E0
7FF8
3FFC
1FFC
ENDCHAR
STARTCHAR 04A9
ENCODING 1193
SWIDTH 576 0
DWIDTH 12 0
BBX 11 11 1 0
BITMAP
3C00
7800
E700
E780
CD80
CCC0
ECC0
ED80
F780
7FE0
3FE0
ENDCHAR
STARTCHAR 04AA
ENCODING 1194
SWIDTH 720 0
DWIDTH 15 0
BBX 13 19 1 -4
BITMAP
0FC0
3FE0
3FF0
7878
F030
E000
E000
E000
E000
E000
F030
7878
7FF0
3FE0
0FC0
0100
0180
0F00
0F00
ENDCHAR
STARTCHAR 04AB
ENCODING 1195
SWIDTH 576 0
DWIDTH 12 0
BBX 10 15 1 -4
BITMAP
1F00
7F80
71C0
E1C0
E000
E000
E000
E1C0
71C0
7F80
1F00
0600
0600
3E00
3C00
ENDCHAR
STARTCHAR 04AC
ENCODING 1196
SWIDTH 624 0
DWIDTH 13 0
BBX 12 18 0 -3
BITMAP
FFF0
FFF0
FFF0
0700
0700
0700
0700
0700
0700
0700
0700
0700
0780
0780
0780
0180
0180
0180
ENDCHAR
STARTCHAR 04AD
ENCODING 1197
SWIDTH 480 0
DWIDTH 10 0
BBX 10 14 0 -3
BITMAP
FFC0
FFC0
0E00
0E00
0E00
0E00
0E00
0E00
0E00
0F00
0F00
0700
0700
0700
ENDCHAR
STARTCHAR 04AE
ENCODING 1198
SWIDTH 576 0
DWIDTH 12 0
BBX 11 15 0 0
BITMAP
E0E0
70E0
71C0
39C0
3B80
1F80
1F00
0F00
0E00
0E00
0E00
0E00
0E00
0E00
0E00
ENDCHAR
STARTCHAR 04AF
ENCODING 1199
SWIDTH 576 0
DWIDTH 12 0
BBX 11 15 0 -4
BITMAP
E0E0
70E0
70E0
31C0
39C0
3980
1F80
1F80
1F00
0F00
0F00
0E00
0E00
0E00
0E00
ENDCHAR
STARTCHAR 04B0
ENCODING 1200
SWIDTH 576 0
DWIDTH 12 0
BBX 11 15 0 0
BITMAP
E0E0
70E0
71C0
39C0
3B80
1F80
7FE0
7FE0
7FE0
0E00
0E00
0E00
0E00
0E00
0E00
ENDCHAR
STARTCHAR 04B1
ENCODING 1201
SWIDTH 576 0
DWIDTH 12 0
BBX 11 15 0 -4
BITMAP
E0E0
70E0
70E0
31C0
39C0
3980
1F80
1F80
1F00
0F00
0F00
7FE0
7FE0
0E00
0E00
ENDCHAR
STARTCHAR 04B2
ENCODING 1202
SWIDTH 672 0
DWIDTH 14 0
BBX 14 18 0 -3
BITMAP
7038
7878
3CF0
1CE0
1FE0
0FC0
0780
0780
0FC0
0FE0
1FE0
3CF0
387C
787C
F03C
001C
001C
001C
ENDCHAR
STARTCHAR 04B3
ENCODING 1203
SWIDTH 576 0
DWIDTH 12 0
BBX 11 14 0 -3
BITMAP
71E0
79C0
3B80
1F80
1F00
0F00
1F00
1F80
3BC0
79E0
F0E0
0060
0060
0060
ENDCHAR
STARTCHAR 04B4
ENCODING 1204
SWIDTH 864 0
DWIDTH 18 0
BBX 17 18 0 -3
BITMAP
FFE700
FFE700
FFE700
0E0700
0E0700
0E0700
0E0700
0E0700
0E0700
0E0700
0E0700
0E0700
0FFF80
0FFF80
0FFF80
000180
000180
000180
ENDCHAR
STARTCHAR 04B5
ENCODING 1205
SWIDTH 672 0
DWIDTH 14 0
BBX 14 14 0 -3
BITMAP
FFB8
FFB8
1C38
1C38
1C38
1C38
1C38
1C38
1C38
1FFC
1FFC
000C
000C
000C
ENDCHAR
STARTCHAR 04B6
ENCODING 1206
SWIDTH 720 0
DWIDTH 15 0
BBX 13 18 1 -3
BITMAP
E070
E070
E070
E070
E070
E070
F070
7FF0
7FF0
1F70
0070
0070
0078
0078
0078
0018
0018
0018
ENDCHAR
STARTCHAR 04B7
ENCODING 1207
SWIDTH 576 0
DWIDTH 12 0
BBX 11 14 1 -3
BITMAP
E1C0
E1C0
E1C0
E1C0
F1C0
7FC0
3FC0
01C0
01C0
01E0
01E0
0060
0060
0060
ENDCHAR
STARTCHAR 04B8
ENCODING 1208
SWIDTH 720 0
DWIDTH 15 0
BBX 12 15 1 0
BITMAP
E070
E070
E070
E670
E670
E670
F670
7FF0
7FF0
1F70
0670
0670
0670
0070
0070
ENDCHAR
STARTCHAR 04B9
ENCODING 1209
SWIDTH 576 0
DWIDTH 12 0
BBX 10 11 1 0
BITMAP
E1C0
E1C0
EDC0
EDC0
FDC0
7FC0
3FC0
0DC0
0DC0
01C0
01C0
ENDCHAR
STARTCHAR 04BA
ENCODING 1210
SWIDTH 720 0
DWIDTH 15 0
BBX 11 15 2 0
BITMAP
E000
E000
E000
E000
E000
FF80
FFC0
FFE0
E0E0
E0E0
E0E0
E0E0
E0E0
E0E0
E0E0
ENDCHAR
STARTCHAR 04BB
ENCODING 1211
SWIDTH 624 0
DWIDTH 13 0
BBX 9 15 2 0
BITMAP
C000
C000
C000
C000
CF00
FF80
E380
E380
C180
C180
C180
C180
C180
C180
C180
ENDCHAR
STARTCHAR 04BC
ENCODING 1212
SWIDTH 864 0
DWIDTH 18 0
BBX 17 15 0 0
BITMAP
00F800
03FE00
07FF00
CF0F00
CE0780
CE0380
FFFF80
7FFF80
7FFF80
0E0000
0E0300
0F0780
07FF00
03FE00
00F800
ENDCHAR
STARTCHAR 04BD
ENCODING 1213
SWIDTH 672 0
DWIDTH 14 0
BBX 13 11 0 0
BITMAP
03E0
CFF0
CE38
DC38
FFF8
7FF8
1C00
1C38
0E38
07F0
03E0
ENDCHAR
STARTCHAR 04BE
ENCODING 1214
SWIDTH 864 0
DWIDTH 18 0
BBX 17 18 0 -3
BITMAP
00F800
03FE00
07FF00
CF0F00
CE0780
CE0380
FFFF80
FFFF80
7FFF80
0E0000
0E0300
0F0780
07FF00
03FE00
00FC00
003000
003000
003000
ENDCHAR
STARTCHAR 04BF
ENCODING 1215
SWIDTH 672 0
DWIDTH 14 0
BBX 13 14 0 -3
BITMAP
03E0
CFF0
CE38
DC38
FFF8
7FF8
1C00
1C38
0E38
07F0
03E0
0180
0180
0180
ENDCHAR
STARTCHAR 04C0
ENCODING 1216
SWIDTH 288 0
DWIDTH 6 0
BBX 3 15 1 0
BITMAP
E0
E0
E0
E0
E0
E0
E0
E0
E0
E0
E0
E0
E0
E0
E0
ENDCHAR
STARTCHAR 04C1
ENCODING 1217
SWIDTH 912 0
DWIDTH 19 0
BBX 19 19 0 0
BITMAP
031800
01F000
00E000
000000
F0E1E0
F8E3E0
18E300
1CE700
0CE600
0EEE00
07FC00
0FFE00
1EEF00
1CE700
3CE780
38E380
78E3C0
70E1C0
F0E1E0
ENDCHAR
STARTCHAR 04C2
ENCODING 1218
SWIDTH 720 0
DWIDTH 15 0
BBX 15 16 0 0
BITMAP
0C60
07C0
0380
0000
0000
E38E
F39E
3BB8
1BB0
1FF0
1FF0
3BB8
3BB8
739C
739C
E38E
ENDCHAR
STARTCHAR 04C3
ENCODING 1219
SWIDTH 720 0
DWIDTH 15 0
BBX 11 20 2 -5
BITMAP
E1C0
E3C0
E700
E700
E600
EE00
FF00
FFC0
E1E0
E0E0
E0E0
E0E0
E0E0
E0E0
E0E0
00E0
E1E0
FFC0
7FC0
3F00
ENDCHAR
STARTCHAR 04C4
ENCODING 1220
SWIDTH 624 0
DWIDTH 13 0
BBX 11 15 1 -4
BITMAP
E380
E780
E600
EE00
FF00
FFC0
E1E0
E0E0
E0E0
E0E0
E0E0
00E0
F1C0
7FC0
1F00
ENDCHAR
STARTCHAR 04C5
ENCODING 1221
SWIDTH 720 0
DWIDTH 15 0
BBX 15 18 0 -3
BITMAP
1FF8
1FF8
1FF8
1C38
1C38
1C38
1C38
1C38
1C38
1C38
1C38
3C38
F83E
F83C
F03C
001C
0018
0018
ENDCHAR
STARTCHAR 04C6
ENCODING 1222
SWIDTH 624 0
DWIDTH 13 0
BBX 13 14 0 -3
BITMAP
3FF0
3FF0
3870
3870
3870
3870
3870
3870
3870
F878
F078
0030
0030
0070
ENDCHAR
STARTCHAR 04C7
ENCODING 1223
SWIDTH 720 0
DWIDTH 15 0
BBX 12 20 2 -5
BITMAP
E070
E070
E070
E070
E070
E070
FFF0
FFF0
FFF0
E070
E070
E070
E070
E0E0
E0E0
00E0
E1E0
FFC0
7FC0
3F00
ENDCHAR
STARTCHAR 04C8
ENCODING 1224
SWIDTH 624 0
DWIDTH 13 0
BBX 10 15 1 -4
BITMAP
E1C0
E1C0
E1C0
E1C0
FFC0
FFC0
E1C0
E1C0
E1C0
E1C0
E1C0
01C0
F1C0
7F80
3F00
ENDCHAR
STARTCHAR 04C9
ENCODING 1225
SWIDTH 720 0
DWIDTH 15 0
BBX 13 18 2 -3
BITMAP
E070
E070
E070
E070
E070
E070
FFF0
FFF0
FFF0
E070
E070
E070
E078
E078
E070
0030
0070
0060
ENDCHAR
STARTCHAR 04CA
ENCODING 1226
SWIDTH 624 0
DWIDTH 13 0
BBX 12 14 1 -3
BITMAP
E1C0
E1C0
E1C0
E1C0
FFC0
FFC0
E1C0
E1C0
E1C0
E1F0
E1E0
0060
00C0
00C0
ENDCHAR
STARTCHAR 04CB
ENCODING 1227
SWIDTH 720 0
DWIDTH 15 0
BBX 12 18 1 -3
BITMAP
E070
E070
E070
E070
E070
E070
F070
7FF0
7FF0
1F70
0070
0070
00F0
00F0
00F0
00C0
00C0
00C0
ENDCHAR
STARTCHAR 04CC
ENCODING 1228
SWIDTH 576 0
DWIDTH 12 0
BBX 10 14 1 -3
BITMAP
E1C0
E1C0
E1C0
E1C0
F1C0
7FC0
3FC0
01C0
01C0
03C0
03C0
0300
0300
0300
ENDCHAR
STARTCHAR 04CD
ENCODING 1229
SWIDTH 864 0
DWIDTH 18 0
BBX 17 18 1 -3
BITMAP
F83E00
F83E00
FC3E00
FC3E00
EC7E00
EC7E00
EE6E00
EEEE00
E6EE00
E7EE00
E7CE00
E7CE00
E3CF80
E3CF00
E38F00
000700
000600
000E00
ENDCHAR
STARTCHAR 04CE
ENCODING 1230
SWIDTH 768 0
DWIDTH 16 0
BBX 13 14 2 -3
BITMAP
E0F0
F0F0
F0F0
F1F0
F9B0
D9B0
DBB0
DF30
CF30
CF38
CE38
0038
0030
0030
ENDCHAR
STARTCHAR 04CF
ENCODING 1231
SWIDTH 288 0
DWIDTH 6 0
BBX 2 15 2 0
BITMAP
C0
C0
C0
C0
C0
C0
C0
C0
C0
C0
C0
C0
C0
C0
C0
ENDCHAR
STARTCHAR 04D0
ENCODING 1232
SWIDTH 720 0
DWIDTH 15 0
BBX 15 19 0 0
BITMAP
0C60
07C0
0380
0000
0380
07C0
07C0
0EC0
0EE0
0EE0
1C70
1C70
1C70
3FF8
3FF8
7FFC
701C
701C
E00E
ENDCHAR
STARTCHAR 04D1
ENCODING 1233
SWIDTH 576 0
DWIDTH 12 0
BBX 10 16 1 0
BITMAP
6300
3E00
1C00
0000
0000
3F00
7F80
E380
0780
7F80
F980
E380
E380
E380
FF80
7DC0
ENDCHAR
STARTCHAR 04D2
ENCODING 1234
SWIDTH 720 0
DWIDTH 15 0
BBX 15 18 0 0
BITMAP
0EE0
0EE0
0000
0380
07C0
07C0
0EC0
0EE0
0EE0
1C70
1C70
1C70
3FF8
3FF8
7FFC
701C
701C
E00E
ENDCHAR
STARTCHAR 04D3
ENCODING 1235
SWIDTH 576 0
DWIDTH 12 0
BBX 10 15 1 0
BITMAP
7700
7700
0000
0000
3F00
7F80
E380
0780
7F80
F980
E380
E380
E380
FF80
7DC0
ENDCHAR
STARTCHAR 04D4
ENCODING 1236
SWIDTH 1008 0
DWIDTH 21 0
BBX 21 15 -1 0
BITMAP
01FFF8
03FFF8
03BFF8
073800
073800
063FF0
0E3FF0
0C3FF0
1FF800
1FF800
3FF800
383800
703FF8
703FF8
F03FF8
ENDCHAR
STARTCHAR 04D5
ENCODING 1237
SWIDTH 912 0
DWIDTH 19 0
BBX 17 11 1 0
BITMAP
3F7C00
7FFE00
E3C700
01C300
07FF80
7FFF80
F1C000
E1C300
E3C700
FFFE00
7C7C00
ENDCHAR
STARTCHAR 04D6
ENCODING 1238
SWIDTH 672 0
DWIDTH 14 0
BBX 11 19 2 0
BITMAP
3180
1F00
0E00
0000
FFE0
FFE0
FFE0
E000
E000
E000
FFC0
FFC0
FFC0
E000
E000
E000
FFE0
FFE0
FFE0
ENDCHAR
STARTCHAR 04D7
ENCODING 1239
SWIDTH 576 0
DWIDTH 12 0
BBX 10 16 1 0
BITMAP
6300
3E00
1C00
0000
0000
3E00
7F80
E380
E1C0
FFC0
FFC0
E000
E1C0
F380
7F00
3E00
ENDCHAR
STARTCHAR 04D8
ENCODING 1240
SWIDTH 720 0
DWIDTH 15 0
BBX 13 15 1 0
BITMAP
0F80
3FE0
7FF0
7078
7038
0038
FFF8
FFF8
FFF8
E038
F038
7878
7FF0
3FE0
0F80
ENDCHAR
STARTCHAR 04D9
ENCODING 1241
SWIDTH 576 0
DWIDTH 12 0
BBX 10 11 1 0
BITMAP
3E00
7F80
F380
E1C0
01C0
FFC0
FFC0
E1C0
E380
7F80
3E00
ENDCHAR
STARTCHAR 04DA
ENCODING 1242
SWIDTH 720 0
DWIDTH 15 0
BBX 13 18 1 0
BITMAP
1DC0
1DC0
0000
0F80
3FE0
7FF0
7078
7038
0038
FFF8
FFF8
FFF8
E038
F038
7878
7FF0
3FE0
0F80
ENDCHAR
STARTCHAR 04DB
ENCODING 1243
SWIDTH 576 0
DWIDTH 12 0
BBX 10 15 1 0
BITMAP
7700
7700
0000
0000
3E00
7F80
F380
E1C0
01C0
FFC0
FFC0
E1C0
E380
7F80
3E00
ENDCHAR
STARTCHAR 04DC
ENCODING 1244
SWIDTH 912 0
DWIDTH 19 0
BBX 19 18 0 0
BITMAP
03B800
03B800
000000
F0E1E0
F8E3E0
18E300
1CE700
0CE600
0EEE00
07FC00
0FFE00
1EEF00
1CE700
3CE780
38E380
78E3C0
70E1C0
F0E1E0
ENDCHAR
STARTCHAR 04DD
ENCODING 1245
SWIDTH 720 0
DWIDTH 15 0
BBX 15 15 0 0
BITMAP
0EE0
0EE0
0000
0000
E38E
F39E
3BB8
1BB0
1FF0
1FF0
3BB8
3BB8
739C
739C
E38E
ENDCHAR
STARTCHAR 04DE
ENCODING 1246
SWIDTH 624 0
DWIDTH 13 0
BBX 11 18 1 0
BITMAP
3B80
3B80
0000
3F00
7FC0
FFC0
F1C0
61C0
01C0
0F00
0FC0
01E0
00E0
40E0
E1E0
FFE0
7FC0
3F00
ENDCHAR
STARTCHAR 04DF
ENCODING 1247
SWIDTH 480 0
DWIDTH 10 0
BBX 9 15 1 0
BITMAP
EE00
EE00
0000
0000
7E00
FF00
4700
0700
1E00
1F00
0700
0380
4780
FF00
7E00
ENDCHAR
STARTCHAR 04E0
ENCODING 1248
SWIDTH 624 0
DWIDTH 13 0
BBX 11 15 1 0
BITMAP
FFE0
FFE0
FFE0
01C0
0380
0700
0F80
0FC0
01E0
00E0
40E0
E1E0
FFE0
7FC0
3F00
ENDCHAR
STARTCHAR 04E1
ENCODING 1249
SWIDTH 528 0
DWIDTH 11 0
BBX 11 15 0 -4
BITMAP
7FC0
7FC0
03C0
0780
0F00
0F80
0FC0
01C0
01E0
00E0
00E0
E1C0
71C0
7F80
1F00
ENDCHAR
STARTCHAR 04E2
ENCODING 1250
SWIDTH 720 0
DWIDTH 15 0
BBX 12 18 2 0
BITMAP
3F80
3F80
0000
C0F0
C0F0
C1F0
C3F0
C3F0
C770
C770
CE70
CC70
DC70
F870
F870
F070
E070
E070
ENDCHAR
STARTCHAR 04E3
ENCODING 1251
SWIDTH 624 0
DWIDTH 13 0
BBX 10 15 1 0
BITMAP
3F80
3F80
0000
0000
E1C0
E1C0
E3C0
E3C0
E6C0
ECC0
ECC0
F8C0
F8C0
F0C0
E0C0
ENDCHAR
STARTCHAR 04E4
ENCODING 1252
SWIDTH 720 0
DWIDTH 15 0
BBX 12 18 2 0
BITMAP
3B80
3B80
0000
C0F0
C0F0
C1F0
C3F0
C3F0
C770
C770
CE70
CC70
DC70
F870
F870
F070
E070
E070
ENDCHAR
STARTCHAR 04E5
ENCODING 1253
SWIDTH 624 0
DWIDTH 13 0
BBX 10 15 1 0
BITMAP
3B80
3B80
0000
0000
E1C0
E1C0
E3C0
E3C0
E6C0
ECC0
ECC0
F8C0
F8C0
F0C0
E0C0
ENDCHAR
STARTCHAR 04E6
ENCODING 1254
SWIDTH 768 0
DWIDTH 16 0
BBX 14 18 1 0
BITMAP
0EE0
0EE0
0000
0FC0
3FF0
7FF8
787C
F01C
E01C
E01C
E01C
E01C
E01C
F01C
787C
7FF8
3FF0
0FC0
ENDCHAR
STARTCHAR 04E7
ENCODING 1255
SWIDTH 624 0
DWIDTH 13 0
BBX 11 15 1 0
BITMAP
3B80
3B80
0000
0000
1F00
7F80
71C0
E0E0
E0E0
E0E0
E0E0
E0E0
71C0
7F80
1F00
ENDCHAR
STARTCHAR 04E8
ENCODING 1256
SWIDTH 768 0
DWIDTH 16 0
BBX 14 15 1 0
BITMAP
0FC0
3FF0
7FF8
783C
F01C
E01C
FFFC
FFFC
FFFC
E01C
F01C
787C
7FF8
3FF0
0FC0
ENDCHAR
STARTCHAR 04E9
ENCODING 1257
SWIDTH 624 0
DWIDTH 13 0
BBX 11 11 1 0
BITMAP
1F00
7F80
71C0
E0E0
FFE0
FFE0
E0E0
E0E0
71C0
7F80
1F00
ENDCHAR
STARTCHAR 04EA
ENCODING 1258
SWIDTH 768 0
DWIDTH 16 0
BBX 14 18 1 0
BITMAP
0EE0
0EE0
0000
0FC0
3FF0
7FF8
783C
F01C
E01C
FFFC
FFFC
FFFC
E01C
F01C
787C
7FF8
3FF0
0FC0
ENDCHAR
STARTCHAR 04EB
ENCODING 1259
SWIDTH 624 0
DWIDTH 13 0
BBX 11 15 1 0
BITMAP
3B80
3B80
0000
0000
1F00
7F80
71C0
E0E0
FFE0
FFE0
E0E0
E0E0
71C0
7F80
1F00
ENDCHAR
STARTCHAR 04EC
ENCODING 1260
SWIDTH 720 0
DWIDTH 15 0
BBX 13 18 1 0
BITMAP
3B80
3B80
0000
1F80
7FE0
7FF0
F0F0
6078
0038
07F8
07F8
07F8
0038
6078
F0F0
7FF0
7FE0
1F80
ENDCHAR
STARTCHAR 04ED
ENCODING 1261
SWIDTH 576 0
DWIDTH 12 0
BBX 10 15 1 0
BITMAP
7700
7700
0000
0000
3E00
FF00
6380
01C0
0FC0
0FC0
01C0
03C0
6380
FF00
7E00
ENDCHAR
STARTCHAR 04EE
ENCODING 1262
SWIDTH 624 0
DWIDTH 13 0
BBX 13 18 0 0
BITMAP
1FC0
1FC0
0000
F038
7070
7870
38E0
1CE0
1DE0
0FC0
0FC0
0780
0780
0700
0700
3E00
3E00
3C00
ENDCHAR
STARTCHAR 04EF
ENCODING 1263
SWIDTH 576 0
DWIDTH 12 0
BBX 11 19 0 -4
BITMAP
3F80
3F80
0000
0000
E0E0
70E0
70C0
71C0
39C0
3980
1B80
1F80
1F00
0F00
0F00
0E00
1E00
7C00
7800
ENDCHAR
STARTCHAR 04F0
ENCODING 1264
SWIDTH 624 0
DWIDTH 13 0
BBX 13 18 0 0
BITMAP
1DC0
1DC0
0000
F038
7070
7870
38E0
1CE0
1DE0
0FC0
0FC0
0780
0780
0700
0700
3E00
3E00
3C00
ENDCHAR
STARTCHAR 04F1
ENCODING 1265
SWIDTH 576 0
DWIDTH 12 0
BBX 11 19 0 -4
BITMAP
3B80
3B80
0000
0000
E0E0
70E0
70C0
71C0
39C0
3980
1B80
1F80
1F00
0F00
0F00
0E00
1E00
7C00
7800
ENDCHAR
STARTCHAR 04F2
ENCODING 1266
SWIDTH 624 0
DWIDTH 13 0
BBX 13 19 0 0
BITMAP
0EE0
0CC0
1980
0000
F038
7070
7870
38E0
1CE0
1DE0
0FC0
0FC0
0780
0780
0700
0700
3E00
3E00
3C00
ENDCHAR
STARTCHAR 04F3
ENCODING 1267
SWIDTH 576 0
DWIDTH 12 0
BBX 11 20 0 -4
BITMAP
0EE0
0CC0
1980
0000
0000
E0E0
70E0
70C0
71C0
39C0
3980
1B80
1F80
1F00
0F00
0F00
0E00
1E00
7C00
7800
ENDCHAR
STARTCHAR 04F4
ENCODING 1268
SWIDTH 720 0
DWIDTH 15 0
BBX 12 18 1 0
BITMAP
1DC0
1DC0
0000
E070
E070
E070
E070
E070
E070
F070
7FF0
7FF0
1F70
0070
0070
0070
0070
0070
ENDCHAR
STARTCHAR 04F5
ENCODING 1269
SWIDTH 576 0
DWIDTH 12 0
BBX 10 15 1 0
BITMAP
3B80
3B80
0000
0000
E1C0
E1C0
E1C0
E1C0
F1C0
7FC0
3FC0
01C0
01C0
01C0
01C0
ENDCHAR
STARTCHAR 04F6
ENCODING 1270
SWIDTH 576 0
DWIDTH 12 0
BBX 10 18 2 -3
BITMAP
FFC0
FFC0
FFC0
E000
E000
E000
E000
E000
E000
E000
E000
E000
F000
F000
F000
7000
7000
7000
ENDCHAR
STARTCHAR 04F7
ENCODING 1271
SWIDTH 432 0
DWIDTH 9 0
BBX 8 14 1 -3
BITMAP
FF
FF
E0
E0
E0
E0
E0
E0
E0
F0
F0
30
30
30
ENDCHAR
STARTCHAR 04F8
ENCODING 1272
SWIDTH 1008 0
DWIDTH 21 0
BBX 17 18 2 0
BITMAP
077000
077000
000000
E00380
E00380
E00380
E00380
E00380
E00380
FFC380
FFE380
FFF380
E07380
E07380
E0F380
FFF380
FFE380
FFC380
ENDCHAR
STARTCHAR 04F9
ENCODING 1273
SWIDTH 864 0
DWIDTH 18 0
BBX 15 15 2 0
BITMAP
1DC0
1DC0
0000
0000
C00E
C00E
C00E
C00E
FF0E
FF8E
C1CE
C1CE
C1CE
FFCE
FF0E
ENDCHAR
STARTCHAR 04FA
ENCODING 1274
SWIDTH 576 0
DWIDTH 12 0
BBX 12 19 0 -4
BITMAP
3FF0
3FF0
3FF0
3800
3800
3800
FF00
FF00
3800
3800
3800
3800
3C00
3C00
3C00
0C00
0C00
3800
7800
ENDCHAR
STARTCHAR 04FB
ENCODING 1275
SWIDTH 432 0
DWIDTH 9 0
BBX 9 15 0 -4
BITMAP
7F80
7F80
7000
7000
FE00
FE00
7000
7000
7000
7800
7800
1800
1800
7800
7000
ENDCHAR
STARTCHAR 04FC
ENCODING 1276
SWIDTH 672 0
DWIDTH 14 0
BBX 14 19 0 -4
BITMAP
7038
7878
3CF0
1CE0
1FE0
0FC0
0780
0780
0FC0
0FC0
1FE0
3CF0
3870
7878
F03C
001C
001C
007C
0078
ENDCHAR
STARTCHAR 04FD
ENCODING 1277
SWIDTH 576 0
DWIDTH 12 0
BBX 11 15 0 -4
BITMAP
71E0
79C0
3F80
1F80
1F00
0F00
1F00
1F80
3BC0
79C0
F0E0
00E0
0060
01E0
03C0
ENDCHAR
STARTCHAR 04FE
ENCODING 1278
SWIDTH 672 0
DWIDTH 14 0
BBX 14 15 0 0
BITMAP
7038
7878
3CF0
1CE0
0FE0
0FC0
3FF0
3FF0
0FC0
0FC0
1FE0
3CF0
3870
7878
F03C
ENDCHAR
STARTCHAR 04FF
ENCODING 1279
SWIDTH 576 0
DWIDTH 12 0
BBX 11 11 0 0
BITMAP
71E0
79C0
3F80
1F80
7FE0
7FE0
1F00
3F80
3BC0
79C0
F0E0
ENDCHAR
STARTCHAR 0500
ENCODING 1280
SWIDTH 720 0
DWIDTH 15 0
BBX 13 15 1 0
BITMAP
0078
0078
0078
0078
0078
0078
1FF8
7FF8
FFF8
F078
E078
F078
FFF8
7FF8
3FF8
ENDCHAR
STARTCHAR 0501
ENCODING 1281
SWIDTH 624 0
DWIDTH 13 0
BBX 11 15 1 0
BITMAP
00E0
00E0
00E0
00E0
3CE0
7FE0
F1E0
E1E0
E0E0
E0E0
E0E0
E1E0
F1E0
7FE0
3EE0
ENDCHAR
STARTCHAR 0502
ENCODING 1282
SWIDTH 1056 0
DWIDTH 22 0
BBX 19 15 1 0
BITMAP
007800
007800
007800
007800
007800
007800
1FF860
7FF860
FFF860
F07860
E078E0
F078E0
FFFFE0
7FFFC0
3F8F80
ENDCHAR
STARTCHAR 0503
ENCODING 1283
SWIDTH 960 0
DWIDTH 20 0
BBX 17 15 1 0
BITMAP
00E000
00E000
00E000
00E000
3EE000
7FE000
F1E000
E1E000
E0E180
E0E180
E0E180
E1E380
71E380
7F7F00
3E3E00
ENDCHAR
STARTCHAR 0504
ENCODING 1284
SWIDTH 960 0
DWIDTH 20 0
BBX 18 15 1 0
BITMAP
3F0000
7FC000
FFC000
F1C000
61C000
01C000
0F01C0
0FC1C0
01E1C0
00E1C0
00E1C0
00E1C0
00F380
007F80
003F00
ENDCHAR
STARTCHAR 0505
ENCODING 1285
SWIDTH 864 0
DWIDTH 18 0
BBX 16 11 1 0
BITMAP
3E00
FF00
C700
0700
1E07
1F07
0386
038E
038E
01FC
00F8
ENDCHAR
STARTCHAR 0506
ENCODING 1286
SWIDTH 672 0
DWIDTH 14 0
BBX 12 18 1 -3
BITMAP
3F00
7FC0
FFC0
F1C0
61C0
01C0
0F00
0FC0
01E0
00E0
00E0
00E0
00F0
00F0
00F0
0030
0030
0030
ENDCHAR
STARTCHAR 0507
ENCODING 1287
SWIDTH 528 0
DWIDTH 11 0
BBX 10 14 1 -3
BITMAP
3E00
FF00
C700
0700
1E00
1E00
0700
0380
0380
03C0
03C0
01C0
01C0
01C0
ENDCHAR
STARTCHAR 0508
ENCODING 1288
SWIDTH 1008 0
DWIDTH 21 0
BBX 20 15 0 0
BITMAP
1FF800
1FF800
1FF800
1C3800
1C3800
1C3800
1C3870
1C3870
1C3870
1C3870
1C3870
3C3870
F81C70
F81FE0
F00FC0
ENDCHAR
STARTCHAR 0509
ENCODING 1289
SWIDTH 960 0
DWIDTH 20 0
BBX 19 11 0 0
BITMAP
3FF000
3FF000
387000
387000
3870E0
3870E0
3870E0
3870E0
3839C0
F83FC0
F00F00
ENDCHAR
STARTCHAR 050A
ENCODING 1290
SWIDTH 1056 0
DWIDTH 22 0
BBX 18 15 2 0
BITMAP
E07000
E07000
E07000
E07000
E07000
E07000
FFF0C0
FFF0C0
FFF0C0
E070C0
E070C0
E071C0
E071C0
E07F80
E01F00
ENDCHAR
STARTCHAR 050B
ENCODING 1291
SWIDTH 912 0
DWIDTH 19 0
BBX 17 11 1 0
BITMAP
E1C000
E1C000
E1C000
E1C000
FFC380
FFC380
E1C380
E0C380
E0E380
E0FF00
E03E00
ENDCHAR
STARTCHAR 050C
ENCODING 1292
SWIDTH 768 0
DWIDTH 16 0
BBX 14 15 1 0
BITMAP
0FE0
1FF0
3FF8
783C
F01C
E000
E000
E0FC
E0FC
E0FC
F01C
7838
3FF8
1FF0
0FC0
ENDCHAR
STARTCHAR 050D
ENCODING 1293
SWIDTH 576 0
DWIDTH 12 0
BBX 11 11 1 0
BITMAP
1F00
7FC0
71E0
E000
E000
E3E0
E3C0
E0C0
71C0
7F80
1F00
ENDCHAR
STARTCHAR 050E
ENCODING 1294
SWIDTH 768 0
DWIDTH 16 0
BBX 15 15 0 0
BITMAP
FFF0
FFF0
FFF0
0700
0700
0700
070E
070E
070E
070E
070E
070E
079C
03FC
01F0
ENDCHAR
STARTCHAR 050F
ENCODING 1295
SWIDTH 720 0
DWIDTH 15 0
BBX 14 11 0 0
BITMAP
FFC0
FFC0
0E00
0E00
0E1C
0E18
0E18
0E38
0E38
07F0
03E0
ENDCHAR
STARTCHAR 0510
ENCODING 1296
SWIDTH 624 0
DWIDTH 13 0
BBX 12 15 1 0
BITMAP
1F80
7FC0
7FE0
70E0
70C0
3000
1E00
7E00
7000
E000
E040
F0F0
7FE0
7FC0
1F80
ENDCHAR
STARTCHAR 0511
ENCODING 1297
SWIDTH 480 0
DWIDTH 10 0
BBX 9 11 1 0
BITMAP
3E00
7F00
E380
E000
7800
7800
E000
E000
E380
FF80
3E00
ENDCHAR
STARTCHAR 0512
ENCODING 1298
SWIDTH 720 0
DWIDTH 15 0
BBX 13 19 0 -4
BITMAP
1FF8
1FF8
1FF8
1C38
1C38
1C38
1C38
1C38
1C38
1C38
1C38
1C38
3838
F838
F038
0038
0038
00F8
00F0
ENDCHAR
STARTCHAR 0513
ENCODING 1299
SWIDTH 624 0
DWIDTH 13 0
BBX 12 15 0 -4
BITMAP
3FF0
3FF0
3870
3870
3870
3870
3870
3870
3870
F870
F070
0070
0070
01F0
01E0
ENDCHAR
STARTCHAR 051A
ENCODING 1306
SWIDTH 768 0
DWIDTH 16 0
BBX 15 16 1 -1
BITMAP
0FC0
3FF0
7FF8
787C
F01C
E01C
E01C
E01C
E01C
E11C
F1FC
78FC
7FF8
3FFC
0FDE
0004
ENDCHAR
STARTCHAR 051B
ENCODING 1307
SWIDTH 624 0
DWIDTH 13 0
BBX 11 15 1 -4
BITMAP
3EE0
7FE0
71E0
E1E0
E0E0
E0E0
E0E0
E1E0
71E0
7FE0
3CE0
00E0
00E0
00E0
00E0
ENDCHAR
STARTCHAR 051C
ENCODING 1308
SWIDTH 960 0
DWIDTH 20 0
BBX 20 15 0 0
BITMAP
E0F070
F0F0E0
70F0E0
71F8E0
71F8E0
71B8C0
3B99C0
3B9DC0
3B9DC0
3B1D80
1F0F80
1F0F80
1F0F80
1E0780
0E0700
ENDCHAR
STARTCHAR 051D
ENCODING 1309
SWIDTH 768 0
DWIDTH 16 0
BBX 16 11 0 0
BITMAP
E1C7
63C7
73C7
73CE
73EE
376E
3F6C
3E7C
1E7C
1E38
1C38
ENDCHAR
STARTCHAR 0591
ENCODING 1425
SWIDTH 0 0
DWIDTH 0 0
BBX 4 3 -2 -4
BITMAP
40
F0
90
ENDCHAR
STARTCHAR 0592
ENCODING 1426
SWIDTH 0 0
DWIDTH 0 0
BBX 6 2 -3 13
BITMAP
30
C4
ENDCHAR
STARTCHAR 0593
ENCODING 1427
SWIDTH 0 0
DWIDTH 0 0
BBX 2 5 -1 14
BITMAP
40
80
40
80
40
ENDCHAR
STARTCHAR 0594
ENCODING 1428
SWIDTH 0 0
DWIDTH 0 0
BBX 2 3 -1 13
BITMAP
C0
00
C0
ENDCHAR
STARTCHAR 0595
ENCODING 1429
SWIDTH 0 0
DWIDTH 0 0
BBX 4 3 -2 13
BITMAP
B0
80
B0
ENDCHAR
STARTCHAR 0596
ENCODING 1430
SWIDTH 0 0
DWIDTH 0 0
BBX 4 4 -2 -5
BITMAP
80
80
40
30
ENDCHAR
STARTCHAR 0597
ENCODING 1431
SWIDTH 0 0
DWIDTH 0 0
BBX 2 3 -1 13
BITMAP
80
C0
80
ENDCHAR
STARTCHAR 0598
ENCODING 1432
SWIDTH 0 0
DWIDTH 0 0
BBX 6 3 -3 13
BITMAP
E4
B4
9C
ENDCHAR
STARTCHAR 0599
ENCODING 1433
SWIDTH 0 0
DWIDTH 0 0
BBX 3 4 -3 13
BITMAP
C0
60
20
20
ENDCHAR
STARTCHAR 059A
ENCODING 1434
SWIDTH 0 0
DWIDTH 0 0
BBX 2 3 0 -4
BITMAP
40
80
40
ENDCHAR
STARTCHAR 059B
ENCODING 1435
SWIDTH 0 0
DWIDTH 0 0
BBX 4 4 -2 -5
BITMAP
10
D0
20
C0
ENDCHAR
STARTCHAR 059C
ENCODING 1436
SWIDTH 0 0
DWIDTH 0 0
BBX 4 4 -2 13
BITMAP
30
40
80
80
ENDCHAR
STARTCHAR 059D
ENCODING 1437
SWIDTH 0 0
DWIDTH 0 0
BBX 3 4 0 13
BITMAP
60
C0
80
80
ENDCHAR
STARTCHAR 059E
ENCODING 1438
SWIDTH 0 0
DWIDTH 0 0
BBX 6 4 -3 13
BITMAP
6C
98
90
90
ENDCHAR
STARTCHAR 059F
ENCODING 1439
SWIDTH 0 0
DWIDTH 0 0
BBX 12 5 -6 13
BITMAP
E070
9090
9090
F0F0
0900
ENDCHAR
STARTCHAR 05A0
ENCODING 1440
SWIDTH 0 0
DWIDTH 0 0
BBX 5 5 0 13
BITMAP
38
48
48
78
80
ENDCHAR
STARTCHAR 05A1
ENCODING 1441
SWIDTH 0 0
DWIDTH 0 0
BBX 4 4 -2 13
BITMAP
90
90
E0
80
ENDCHAR
STARTCHAR 05A2
ENCODING 1442
SWIDTH 0 0
DWIDTH 0 0
BBX 4 3 -2 -4
BITMAP
90
F0
40
ENDCHAR
STARTCHAR 05A3
ENCODING 1443
SWIDTH 0 0
DWIDTH 0 0
BBX 2 3 -1 -4
BITMAP
40
40
C0
ENDCHAR
STARTCHAR 05A4
ENCODING 1444
SWIDTH 0 0
DWIDTH 0 0
BBX 3 3 -2 -4
BITMAP
20
C0
20
ENDCHAR
STARTCHAR 05A5
ENCODING 1445
SWIDTH 0 0
DWIDTH 0 0
BBX 4 4 -2 -5
BITMAP
10
10
20
C0
ENDCHAR
STARTCHAR 05A6
ENCODING 1446
SWIDTH 0 0
DWIDTH 0 0
BBX 6 4 -3 -5
BITMAP
24
24
64
D8
ENDCHAR
STARTCHAR 05A7
ENCODING 1447
SWIDTH 0 0
DWIDTH 0 0
BBX 2 4 -1 -5
BITMAP
C0
80
40
C0
ENDCHAR
STARTCHAR 05A8
ENCODING 1448
SWIDTH 0 0
DWIDTH 0 0
BBX 4 4 -2 13
BITMAP
C0
20
10
10
ENDCHAR
STARTCHAR 05A9
ENCODING 1449
SWIDTH 0 0
DWIDTH 0 0
BBX 5 5 -5 13
BITMAP
E0
90
90
F0
08
ENDCHAR
STARTCHAR 05AA
ENCODING 1450
SWIDTH 0 0
DWIDTH 0 0
BBX 4 3 -2 -4
BITMAP
90
F0
40
ENDCHAR
STARTCHAR 05AB
ENCODING 1451
SWIDTH 0 0
DWIDTH 0 0
BBX 3 3 -2 13
BITMAP
20
C0
20
ENDCHAR
STARTCHAR 05AC
ENCODING 1452
SWIDTH 0 0
DWIDTH 0 0
BBX 2 3 -1 13
BITMAP
40
40
C0
ENDCHAR
STARTCHAR 05AD
ENCODING 1453
SWIDTH 0 0
DWIDTH 0 0
BBX 3 4 0 -5
BITMAP
80
80
C0
60
ENDCHAR
STARTCHAR 05AE
ENCODING 1454
SWIDTH 0 0
DWIDTH 0 0
BBX 6 3 -6 13
BITMAP
E4
B4
9C
ENDCHAR
STARTCHAR 05AF
ENCODING 1455
SWIDTH 0 0
DWIDTH 0 0
BBX 2 3 -1 13
BITMAP
C0
C0
C0
ENDCHAR
STARTCHAR 05B0
ENCODING 1456
SWIDTH 0 0
DWIDTH 0 0
BBX 1 3 3 -4
BITMAP
80
00
80
ENDCHAR
STARTCHAR 05B1
ENCODING 1457
SWIDTH 0 0
DWIDTH 0 0
BBX 7 3 0 -4
BITMAP
D6
00
66
ENDCHAR
STARTCHAR 05B2
ENCODING 1458
SWIDTH 0 0
DWIDTH 0 0
BBX 5 3 1 -4
BITMAP
E8
00
08
ENDCHAR
STARTCHAR 05B3
ENCODING 1459
SWIDTH 0 0
DWIDTH 0 0
BBX 5 3 1 -4
BITMAP
E8
40
48
ENDCHAR
STARTCHAR 05B4
ENCODING 1460
SWIDTH 0 0
DWIDTH 0 0
BBX 1 1 3 -3
BITMAP
80
ENDCHAR
STARTCHAR 05B5
ENCODING 1461
SWIDTH 0 0
DWIDTH 0 0
BBX 5 1 1 -3
BITMAP
D8
ENDCHAR
STARTCHAR 05B6
ENCODING 1462
SWIDTH 0 0
DWIDTH 0 0
BBX 5 3 1 -4
BITMAP
D8
00
20
ENDCHAR
STARTCHAR 05B7
ENCODING 1463
SWIDTH 0 0
DWIDTH 0 0
BBX 5 1 1 -3
BITMAP
F8
ENDCHAR
STARTCHAR 05B8
ENCODING 1464
SWIDTH 0 0
DWIDTH 0 0
BBX 5 3 1 -4
BITMAP
F8
20
20
ENDCHAR
STARTCHAR 05B9
ENCODING 1465
SWIDTH 0 0
DWIDTH 0 0
BBX 1 1 3 13
BITMAP
80
ENDCHAR
STARTCHAR 05BA
ENCODING 1466
SWIDTH 0 0
DWIDTH 0 0
BBX 2 1 -3 13
BITMAP
C0
ENDCHAR
STARTCHAR 05BB
ENCODING 1467
SWIDTH 0 0
DWIDTH 0 0
BBX 7 3 0 -4
BITMAP
C0
10
06
ENDCHAR
STARTCHAR 05BC
ENCODING 1468
SWIDTH 0 0
DWIDTH 0 0
BBX 1 1 3 5
BITMAP
80
ENDCHAR
STARTCHAR 05BD
ENCODING 1469
SWIDTH 0 0
DWIDTH 0 0
BBX 1 3 3 -4
BITMAP
80
80
80
ENDCHAR
STARTCHAR 05BE
ENCODING 1470
SWIDTH 432 0
DWIDTH 9 0
BBX 7 2 1 9
BITMAP
FE
FE
ENDCHAR
STARTCHAR 05BF
ENCODING 1471
SWIDTH 0 0
DWIDTH 0 0
BBX 5 1 1 13
BITMAP
F8
ENDCHAR
STARTCHAR 05C0
ENCODING 1472
SWIDTH 288 0
DWIDTH 6 0
BBX 2 15 2 -2
BITMAP
C0
C0
C0
C0
C0
C0
C0
C0
C0
C0
C0
C0
C0
C0
C0
ENDCHAR
STARTCHAR 05C1
ENCODING 1473
SWIDTH 0 0
DWIDTH 0 0
BBX 2 1 8 13
BITMAP
C0
ENDCHAR
STARTCHAR 05C2
ENCODING 1474
SWIDTH 0 0
DWIDTH 0 0
BBX 2 1 -3 13
BITMAP
C0
ENDCHAR
STARTCHAR 05C3
ENCODING 1475
SWIDTH 336 0
DWIDTH 7 0
BBX 3 11 2 0
BITMAP
E0
E0
E0
00
00
00
00
00
E0
E0
E0
ENDCHAR
STARTCHAR 05C4
ENCODING 1476
SWIDTH 0 0
DWIDTH 0 0
BBX 1 1 3 13
BITMAP
80
ENDCHAR
STARTCHAR 05C5
ENCODING 1477
SWIDTH 0 0
DWIDTH 0 0
BBX 2 1 -1 -3
BITMAP
C0
ENDCHAR
STARTCHAR 05C6
ENCODING 1478
SWIDTH 384 0
DWIDTH 8 0
BBX 6 11 1 0
BITMAP
3C
7C
F0
E0
E0
E0
E0
E0
E0
FC
FC
ENDCHAR
STARTCHAR 05C7
ENCODING 1479
SWIDTH 0 0
DWIDTH 0 0
BBX 4 4 -2 -6
BITMAP
F0
60
60
60
ENDCHAR
STARTCHAR 05D0
ENCODING 1488
SWIDTH 576 0
DWIDTH 12 0
BBX 11 11 1 0
BITMAP
F0C0
71C0
39C0
3DC0
7F80
7F80
EF00
E780
E380
E1C0
E1E0
ENDCHAR
STARTCHAR 05D1
ENCODING 1489
SWIDTH 576 0
DWIDTH 12 0
BBX 11 11 1 0
BITMAP
FC00
FE00
0700
0700
0380
0380
0380
0380
0380
FFE0
FFE0
ENDCHAR
STARTCHAR 05D2
ENCODING 1490
SWIDTH 480 0
DWIDTH 10 0
BBX 9 11 0 0
BITMAP
3C00
3E00
0F00
0700
0700
0700
1F00
3F00
7700
7380
E380
ENDCHAR
STARTCHAR 05D3
ENCODING 1491
SWIDTH 576 0
DWIDTH 12 0
BBX 10 11 1 0
BITMAP
FFC0
FFC0
0700
0700
0700
0700
0700
0700
0700
0700
0700
ENDCHAR
STARTCHAR 05D4
ENCODING 1492
SWIDTH 624 0
DWIDTH 13 0
BBX 11 11 1 0
BITMAP
FF00
FF80
03C0
01C0
00E0
E0E0
E0E0
E0E0
E0E0
E0E0
E0E0
ENDCHAR
STARTCHAR 05D5
ENCODING 1493
SWIDTH 288 0
DWIDTH 6 0
BBX 3 11 1 0
BITMAP
E0
E0
E0
E0
E0
E0
E0
E0
E0
E0
E0
ENDCHAR
STARTCHAR 05D6
ENCODING 1494
SWIDTH 432 0
DWIDTH 9 0
BBX 7 11 1 0
BITMAP
FE
FE
38
30
30
30
30
30
38
38
38
ENDCHAR
STARTCHAR 05D7
ENCODING 1495
SWIDTH 624 0
DWIDTH 13 0
BBX 11 11 1 0
BITMAP
FF00
FF80
E1C0
E1C0
E0E0
E0E0
E0E0
E0E0
E0E0
E0E0
E0E0
ENDCHAR
STARTCHAR 05D8
ENCODING 1496
SWIDTH 624 0
DWIDTH 13 0
BBX 11 11 1 0
BITMAP
E780
E7C0
E4E0
E0E0
E0E0
E0E0
E0E0
60E0
71C0
3FC0
1F00
ENDCHAR
STARTCHAR 05D9
ENCODING 1497
SWIDTH 288 0
DWIDTH 6 0
BBX 3 6 1 5
BITMAP
E0
E0
E0
E0
E0
E0
ENDCHAR
STARTCHAR 05DA
ENCODING 1498
SWIDTH 528 0
DWIDTH 11 0
BBX 10 15 0 -4
BITMAP
FE00
7F80
0380
03C0
01C0
01C0
01C0
01C0
01C0
01C0
01C0
01C0
01C0
01C0
01C0
ENDCHAR
STARTCHAR 05DB
ENCODING 1499
SWIDTH 480 0
DWIDTH 10 0
BBX 8 11 1 0
BITMAP
F8
FE
0F
07
07
07
07
07
0F
FE
F8
ENDCHAR
STARTCHAR 05DC
ENCODING 1500
SWIDTH 480 0
DWIDTH 10 0
BBX 8 15 1 0
BITMAP
E0
E0
E0
E0
FF
FF
07
07
07
07
0F
0E
0E
0C
0C
ENDCHAR
STARTCHAR 05DD
ENCODING 1501
SWIDTH 624 0
DWIDTH 13 0
BBX 11 11 1 0
BITMAP
FF00
FF80
E1C0
E1C0
E0E0
E0E0
E0E0
E0E0
E0E0
FFE0
FFE0
ENDCHAR
STARTCHAR 05DE
ENCODING 1502
SWIDTH 624 0
DWIDTH 13 0
BBX 11 11 1 0
BITMAP
C780
FFC0
F9C0
78E0
70E0
70E0
70E0
70E0
70E0
E7E0
E7E0
ENDCHAR
STARTCHAR 05DF
ENCODING 1503
SWIDTH 288 0
DWIDTH 6 0
BBX 3 15 1 -4
BITMAP
E0
E0
E0
E0
E0
E0
E0
E0
E0
E0
E0
E0
E0
E0
E0
ENDCHAR
STARTCHAR 05E0
ENCODING 1504
SWIDTH 384 0
DWIDTH 8 0
BBX 6 11 1 0
BITMAP
F0
F8
3C
1C
1C
1C
1C
1C
1C
FC
FC
ENDCHAR
STARTCHAR 05E1
ENCODING 1505
SWIDTH 624 0
DWIDTH 13 0
BBX 11 11 1 0
BITMAP
1F00
7F80
71C0
E0E0
E0E0
E0E0
E0E0
E0E0
71C0
7F80
1F00
ENDCHAR
STARTCHAR 05E2
ENCODING 1506
SWIDTH 528 0
DWIDTH 11 0
BBX 10 13 0 -2
BITMAP
71C0
71C0
31C0
39C0
39C0
39C0
39C0
39C0
19C0
1B80
1F00
FC00
E000
ENDCHAR
STARTCHAR 05E3
ENCODING 1507
SWIDTH 576 0
DWIDTH 12 0
BBX 10 15 1 -4
BITMAP
FF00
FF80
E3C0
E1C0
E1C0
E1C0
F1C0
79C0
01C0
01C0
01C0
01C0
01C0
01C0
01C0
ENDCHAR
STARTCHAR 05E4
ENCODING 1508
SWIDTH 576 0
DWIDTH 12 0
BBX 10 11 1 0
BITMAP
7E00
FF80
E3C0
E1C0
E1C0
79C0
39C0
01C0
83C0
FF80
7E00
ENDCHAR
STARTCHAR 05E5
ENCODING 1509
SWIDTH 480 0
DWIDTH 10 0
BBX 10 15 0 -4
BITMAP
E1C0
7180
7180
3B80
3B80
1F80
1E00
1C00
1C00
1C00
1C00
1C00
1C00
1C00
1C00
ENDCHAR
STARTCHAR 05E6
ENCODING 1510
SWIDTH 528 0
DWIDTH 11 0
BBX 10 11 0 0
BITMAP
F1C0
71C0
39C0
3980
1F80
1F00
0E00
0700
0700
7F80
7F80
ENDCHAR
STARTCHAR 05E7
ENCODING 1511
SWIDTH 576 0
DWIDTH 12 0
BBX 10 15 1 -4
BITMAP
FFC0
FFC0
01C0
01C0
01C0
E3C0
E380
E780
E700
E700
E700
E000
E000
E000
E000
ENDCHAR
STARTCHAR 05E8
ENCODING 1512
SWIDTH 528 0
DWIDTH 11 0
BBX 10 11 0 0
BITMAP
FE00
7F80
0380
03C0
01C0
01C0
01C0
01C0
01C0
01C0
01C0
ENDCHAR
STARTCHAR 05E9
ENCODING 1513
SWIDTH 720 0
DWIDTH 15 0
BBX 13 11 1 0
BITMAP
E738
E738
E738
EF38
FE38
FC38
E030
7070
78F0
3FE0
0F80
ENDCHAR
STARTCHAR 05EA
ENCODING 1514
SWIDTH 672 0
DWIDTH 14 0
BBX 12 11 1 0
BITMAP
FF80
FFE0
38E0
3870
3870
3870
3870
3870
3870
F870
F070
ENDCHAR
STARTCHAR 05F0
ENCODING 1520
SWIDTH 528 0
DWIDTH 11 0
BBX 9 11 1 0
BITMAP
E380
E380
E380
E380
E380
E380
E380
E380
E380
E380
E380
ENDCHAR
STARTCHAR 05F1
ENCODING 1521
SWIDTH 528 0
DWIDTH 11 0
BBX 9 11 1 0
BITMAP
E380
E380
E380
E380
E380
E380
0380
0380
0380
0380
0380
ENDCHAR
STARTCHAR 05F2
ENCODING 1522
SWIDTH 528 0
DWIDTH 11 0
BBX 9 6 1 5
BITMAP
E380
E380
E380
E380
E380
E380
ENDCHAR
STARTCHAR 05F3
ENCODING 1523
SWIDTH 288 0
DWIDTH 6 0
BBX 4 4 1 7
BITMAP
70
60
E0
C0
ENDCHAR
STARTCHAR 05F4
ENCODING 1524
SWIDTH 528 0
DWIDTH 11 0
BBX 9 4 1 7
BITMAP
7380
6700
E600
C600
ENDCHAR
STARTCHAR 0600
ENCODING 1536
SWIDTH 768 0
DWIDTH 16 0
BBX 14 7 1 -4
BITMAP
0010
0018
0018
0010
FFFC
FFFC
FFFC
ENDCHAR
STARTCHAR 0601
ENCODING 1537
SWIDTH 1344 0
DWIDTH 28 0
BBX 26 6 1 -4
BITMAP
80200000
862007C0
8F21FFC0
FFFFFFC0
F3FFF880
E1DE0080
ENDCHAR
STARTCHAR 0602
ENCODING 1538
SWIDTH 768 0
DWIDTH 16 0
BBX 14 7 1 -4
BITMAP
7000
F000
8800
8800
FFFC
FFFC
7FFC
ENDCHAR
STARTCHAR 0603
ENCODING 1539
SWIDTH 816 0
DWIDTH 17 0
BBX 18 7 -1 -4
BITMAP
000380
040FC0
041FC0
0C7040
FFFFC0
FFFFC0
F3FFC0
ENDCHAR
STARTCHAR 060B
ENCODING 1547
SWIDTH 336 0
DWIDTH 7 0
BBX 8 20 -1 -3
BITMAP
08
0E
1C
04
00
0C
1E
1E
13
1B
1F
FF
FF
FF
00
18
18
18
18
18
ENDCHAR
STARTCHAR 060C
ENCODING 1548
SWIDTH 336 0
DWIDTH 7 0
BBX 3 6 2 3
BITMAP
40
80
80
E0
E0
E0
ENDCHAR
STARTCHAR 060D
ENCODING 1549
SWIDTH 240 0
DWIDTH 5 0
BBX 5 7 0 -1
BITMAP
18
38
78
60
40
40
80
ENDCHAR
STARTCHAR 060E
ENCODING 1550
SWIDTH 672 0
DWIDTH 14 0
BBX 15 7 -1 3
BITMAP
3800
7800
C800
8800
FFFE
7FFE
3FFE
ENDCHAR
STARTCHAR 060F
ENCODING 1551
SWIDTH 528 0
DWIDTH 11 0
BBX 11 16 0 -4
BITMAP
1E00
3F00
3000
6000
6180
7F80
3F80
3C00
7780
4FC0
5860
6020
7060
7FC0
BFC0
9F00
ENDCHAR
STARTCHAR 0610
ENCODING 1552
SWIDTH 0 0
DWIDTH 0 0
BBX 4 3 -2 16
BITMAP
B0
F0
80
ENDCHAR
STARTCHAR 0611
ENCODING 1553
SWIDTH 0 0
DWIDTH 0 0
BBX 4 4 -2 15
BITMAP
30
40
70
80
ENDCHAR
STARTCHAR 0612
ENCODING 1554
SWIDTH 0 0
DWIDTH 0 0
BBX 6 5 -3 14
BITMAP
04
F4
44
84
18
ENDCHAR
STARTCHAR 0613
ENCODING 1555
SWIDTH 0 0
DWIDTH 0 0
BBX 6 5 -3 14
BITMAP
20
BC
F4
84
18
ENDCHAR
STARTCHAR 0614
ENCODING 1556
SWIDTH 0 0
DWIDTH 0 0
BBX 6 3 -3 16
BITMAP
0C
34
F0
ENDCHAR
STARTCHAR 0615
ENCODING 1557
SWIDTH 0 0
DWIDTH 0 0
BBX 6 7 -3 11
BITMAP
40
60
20
20
3C
24
FC
ENDCHAR
STARTCHAR 061B
ENCODING 1563
SWIDTH 336 0
DWIDTH 7 0
BBX 3 10 2 3
BITMAP
40
80
80
C0
E0
E0
00
40
E0
40
ENDCHAR
STARTCHAR 061E
ENCODING 1566
SWIDTH 432 0
DWIDTH 9 0
BBX 7 8 1 2
BITMAP
20
30
30
14
4E
EE
E4
40
ENDCHAR
STARTCHAR 061F
ENCODING 1567
SWIDTH 336 0
DWIDTH 7 0
BBX 6 12 1 3
BITMAP
78
CC
DC
D8
E0
60
20
20
00
30
70
30
ENDCHAR
STARTCHAR 0621
ENCODING 1569
SWIDTH 480 0
DWIDTH 10 0
BBX 8 10 1 1
BITMAP
3C
3C
78
40
E3
7E
78
30
40
40
ENDCHAR
STARTCHAR 0622
ENCODING 1570
SWIDTH 240 0
DWIDTH 5 0
BBX 5 15 0 3
BITMAP
C8
30
00
20
20
60
20
20
30
30
30
30
30
20
20
ENDCHAR
STARTCHAR 0623
ENCODING 1571
SWIDTH 240 0
DWIDTH 5 0
BBX 3 16 1 3
BITMAP
40
80
E0
00
40
40
C0
40
40
60
60
60
60
60
40
40
ENDCHAR
STARTCHAR 0624
ENCODING 1572
SWIDTH 432 0
DWIDTH 9 0
BBX 9 16 0 -2
BITMAP
0800
1000
1800
0000
0300
0380
0780
0480
0780
0780
0380
0080
0180
8780
7F00
1E00
ENDCHAR
STARTCHAR 0625
ENCODING 1573
SWIDTH 240 0
DWIDTH 5 0
BBX 3 16 1 -1
BITMAP
40
40
C0
40
40
60
60
60
60
60
40
40
00
40
80
E0
ENDCHAR
STARTCHAR 0626
ENCODING 1574
SWIDTH 672 0
DWIDTH 14 0
BBX 10 13 2 -1
BITMAP
4000
8000
E1C0
03C0
4640
4400
87C0
87C0
8080
8180
8780
FE00
7800
ENDCHAR
STARTCHAR 0627
ENCODING 1575
SWIDTH 240 0
DWIDTH 5 0
BBX 3 12 1 3
BITMAP
40
40
C0
40
40
60
60
60
60
60
40
40
ENDCHAR
STARTCHAR 0628
ENCODING 1576
SWIDTH 672 0
DWIDTH 14 0
BBX 13 12 1 -2
BITMAP
8010
8010
8038
8018
FFF8
FFF8
7FF8
0000
0200
0380
0700
0100
ENDCHAR
STARTCHAR 0629
ENCODING 1577
SWIDTH 336 0
DWIDTH 7 0
BBX 5 13 1 3
BITMAP
10
F8
D0
40
00
60
70
78
98
88
F8
F8
F0
ENDCHAR
STARTCHAR 062A
ENCODING 1578
SWIDTH 672 0
DWIDTH 14 0
BBX 13 11 1 3
BITMAP
0100
0780
0D00
0400
8010
8010
8038
8018
FFF8
FFF8
7FF8
ENDCHAR
STARTCHAR 062B
ENCODING 1579
SWIDTH 672 0
DWIDTH 14 0
BBX 13 12 1 3
BITMAP
0400
0E00
0500
0F80
0D00
8410
8010
8038
8018
FFF8
FFF8
7FF8
ENDCHAR
STARTCHAR 062C
ENCODING 1580
SWIDTH 576 0
DWIDTH 12 0
BBX 11 15 1 -4
BITMAP
7FC0
FF80
FC00
9000
6000
4400
8F00
8E00
8200
8000
C000
F000
FFE0
7FC0
1F00
ENDCHAR
STARTCHAR 062D
ENCODING 1581
SWIDTH 576 0
DWIDTH 12 0
BBX 11 15 1 -4
BITMAP
7FC0
FF80
FC00
9000
6000
4000
8000
8000
8000
8000
C000
F000
FFE0
7FC0
1F00
ENDCHAR
STARTCHAR 062E
ENCODING 1582
SWIDTH 576 0
DWIDTH 12 0
BBX 11 20 1 -4
BITMAP
0800
1C00
1C00
0800
0000
7FC0
FF80
FC00
9000
6000
4000
8000
8000
8000
8000
C000
F000
FFE0
7FC0
1F00
ENDCHAR
STARTCHAR 062F
ENCODING 1583
SWIDTH 336 0
DWIDTH 7 0
BBX 6 10 1 3
BITMAP
10
18
1C
1C
0C
04
84
FC
FC
FC
ENDCHAR
STARTCHAR 0630
ENCODING 1584
SWIDTH 336 0
DWIDTH 7 0
BBX 6 16 1 3
BITMAP
20
70
70
20
00
00
10
18
1C
1C
0C
04
84
FC
FC
FC
ENDCHAR
STARTCHAR 0631
ENCODING 1585
SWIDTH 432 0
DWIDTH 9 0
BBX 9 12 0 -2
BITMAP
0100
0180
0180
0080
0080
0080
0080
0180
0380
8700
7E00
1C00
ENDCHAR
STARTCHAR 0632
ENCODING 1586
SWIDTH 432 0
DWIDTH 9 0
BBX 9 17 0 -2
BITMAP
0200
0780
0700
0100
0000
0100
0180
0180
0080
0080
0080
0080
0180
0380
8700
7E00
1C00
ENDCHAR
STARTCHAR 0633
ENCODING 1587
SWIDTH 912 0
DWIDTH 19 0
BBX 18 10 1 0
BITMAP
204240
40C2C0
804240
807FC0
807FC0
807DC0
C0C000
FFC000
FFC000
3F0000
ENDCHAR
STARTCHAR 0634
ENCODING 1588
SWIDTH 912 0
DWIDTH 19 0
BBX 18 17 1 -1
BITMAP
000400
000E00
000500
000780
000D00
000400
000000
204240
40C2C0
804240
807FC0
807FC0
807DC0
C0C000
FFC000
FFC000
3F0000
ENDCHAR
STARTCHAR 0635
ENCODING 1589
SWIDTH 1056 0
DWIDTH 22 0
BBX 21 12 1 -1
BITMAP
000070
0000F8
2043F8
40C708
804E08
807FF8
807FF8
807FF8
C0C000
FFC000
FFC000
3F0000
ENDCHAR
STARTCHAR 0636
ENCODING 1590
SWIDTH 1056 0
DWIDTH 22 0
BBX 21 17 1 -1
BITMAP
000400
000700
000F00
000200
000000
000070
0000F8
2043F8
40C708
804E08
807FF8
807FF8
807FF8
C0C000
FFC000
FFC000
3F0000
ENDCHAR
STARTCHAR 0637
ENCODING 1591
SWIDTH 528 0
DWIDTH 11 0
BBX 12 14 -1 3
BITMAP
1000
1C00
1C00
1800
0800
0800
08E0
0BF0
0FF0
0E30
1830
FFF0
FFF0
FFF0
ENDCHAR
STARTCHAR 0638
ENCODING 1592
SWIDTH 528 0
DWIDTH 11 0
BBX 12 14 -1 3
BITMAP
1000
1C80
1DC0
19C0
0880
0800
08E0
0BF0
0FF0
0E30
1830
FFF0
FFF0
FFF0
ENDCHAR
STARTCHAR 0639
ENCODING 1593
SWIDTH 528 0
DWIDTH 11 0
BBX 10 16 1 -4
BITMAP
3C00
7E00
6000
C000
C300
FF00
7F00
7800
E000
8000
8000
8000
E000
FFC0
7F80
3E00
ENDCHAR
STARTCHAR 063A
ENCODING 1594
SWIDTH 528 0
DWIDTH 11 0
BBX 10 21 1 -4
BITMAP
1000
3800
3800
1000
0000
3C00
7E00
6000
C000
C300
FF00
7F00
7800
E000
8000
8000
8000
E000
FFC0
7F80
3E00
ENDCHAR
STARTCHAR 0640
ENCODING 1600
SWIDTH 192 0
DWIDTH 4 0
BBX 5 3 -1 3
BITMAP
F8
F8
F8
ENDCHAR
STARTCHAR 0641
ENCODING 1601
SWIDTH 768 0
DWIDTH 16 0
BBX 16 14 0 3
BITMAP
000C
000E
001E
0004
0000
0006
400E
401F
401B
401B
E01F
7FFF
7FFF
3FFF
ENDCHAR
STARTCHAR 0642
ENCODING 1602
SWIDTH 624 0
DWIDTH 13 0
BBX 13 17 0 -3
BITMAP
0020
00B0
01F0
0080
0070
0070
00F8
2098
20F8
40F8
4078
4008
C018
E038
7FF0
7FF0
1FC0
ENDCHAR
STARTCHAR 0643
ENCODING 1603
SWIDTH 528 0
DWIDTH 11 0
BBX 11 13 0 3
BITMAP
0040
02E0
02E0
0460
0740
0760
4320
5E20
4020
C020
FFE0
7FE0
3FE0
ENDCHAR
STARTCHAR 0644
ENCODING 1604
SWIDTH 432 0
DWIDTH 9 0
BBX 9 17 0 -1
BITMAP
0100
0180
0380
0180
0100
0180
0080
0080
2080
4080
4080
4080
C080
C180
FF80
7F00
3E00
ENDCHAR
STARTCHAR 0645
ENCODING 1605
SWIDTH 384 0
DWIDTH 8 0
BBX 8 12 0 -4
BITMAP
18
3C
4E
07
7F
7F
C0
C0
40
40
40
40
ENDCHAR
STARTCHAR 0646
ENCODING 1606
SWIDTH 528 0
DWIDTH 11 0
BBX 10 15 1 -1
BITMAP
0800
0E00
1C00
0400
0000
2040
40C0
8040
8040
8040
8040
C0C0
FFC0
FF80
3F00
ENDCHAR
STARTCHAR 0647
ENCODING 1607
SWIDTH 336 0
DWIDTH 7 0
BBX 5 8 1 3
BITMAP
60
70
78
98
88
F8
F8
F0
ENDCHAR
STARTCHAR 0648
ENCODING 1608
SWIDTH 432 0
DWIDTH 9 0
BBX 9 12 0 -2
BITMAP
0300
0380
0780
0480
0780
0780
0380
0080
0180
8780
7F00
1E00
ENDCHAR
STARTCHAR 0649
ENCODING 1609
SWIDTH 672 0
DWIDTH 14 0
BBX 10 11 2 -1
BITMAP
01C0
03C0
4640
4400
87C0
87C0
8080
8180
8780
FE00
7800
ENDCHAR
STARTCHAR 064A
ENCODING 1610
SWIDTH 672 0
DWIDTH 14 0
BBX 10 14 2 -4
BITMAP
01C0
03C0
4640
4400
87C0
87C0
8080
8180
8780
FE00
7800
0000
1600
1A00
ENDCHAR
STARTCHAR 064B
ENCODING 1611
SWIDTH 0 0
DWIDTH 0 0
BBX 3 4 1 14
BITMAP
20
C0
20
C0
ENDCHAR
STARTCHAR 064C
ENCODING 1612
SWIDTH 0 0
DWIDTH 0 0
BBX 4 4 1 14
BITMAP
30
30
B0
40
ENDCHAR
STARTCHAR 064D
ENCODING 1613
SWIDTH 0 0
DWIDTH 0 0
BBX 3 4 1 -3
BITMAP
20
C0
20
C0
ENDCHAR
STARTCHAR 064E
ENCODING 1614
SWIDTH 0 0
DWIDTH 0 0
BBX 3 2 1 14
BITMAP
20
C0
ENDCHAR
STARTCHAR 064F
ENCODING 1615
SWIDTH 0 0
DWIDTH 0 0
BBX 2 4 2 14
BITMAP
40
C0
40
80
ENDCHAR
STARTCHAR 0650
ENCODING 1616
SWIDTH 0 0
DWIDTH 0 0
BBX 3 2 1 -1
BITMAP
20
C0
ENDCHAR
STARTCHAR 0651
ENCODING 1617
SWIDTH 0 0
DWIDTH 0 0
BBX 3 2 1 15
BITMAP
60
80
ENDCHAR
STARTCHAR 0652
ENCODING 1618
SWIDTH 0 0
DWIDTH 0 0
BBX 2 3 1 14
BITMAP
C0
C0
C0
ENDCHAR
STARTCHAR 0653
ENCODING 1619
SWIDTH 0 0
DWIDTH 0 0
BBX 5 2 0 16
BITMAP
C0
38
ENDCHAR
STARTCHAR 0654
ENCODING 1620
SWIDTH 0 0
DWIDTH 0 0
BBX 3 3 1 16
BITMAP
40
80
E0
ENDCHAR
STARTCHAR 0655
ENCODING 1621
SWIDTH 0 0
DWIDTH 0 0
BBX 3 3 1 -2
BITMAP
40
80
E0
ENDCHAR
STARTCHAR 0656
ENCODING 1622
SWIDTH 0 0
DWIDTH 0 0
BBX 2 4 -1 -3
BITMAP
80
80
40
40
ENDCHAR
STARTCHAR 0657
ENCODING 1623
SWIDTH 0 0
DWIDTH 0 0
BBX 3 4 -2 14
BITMAP
20
C0
40
C0
ENDCHAR
STARTCHAR 0658
ENCODING 1624
SWIDTH 0 0
DWIDTH 0 0
BBX 2 2 -1 15
BITMAP
C0
C0
ENDCHAR
STARTCHAR 0659
ENCODING 1625
SWIDTH 0 0
DWIDTH 0 0
BBX 4 1 -2 13
BITMAP
F0
ENDCHAR
STARTCHAR 065A
ENCODING 1626
SWIDTH 0 0
DWIDTH 0 0
BBX 4 2 -2 13
BITMAP
F0
60
ENDCHAR
STARTCHAR 065B
ENCODING 1627
SWIDTH 0 0
DWIDTH 0 0
BBX 4 2 -2 13
BITMAP
60
F0
ENDCHAR
STARTCHAR 065C
ENCODING 1628
SWIDTH 0 0
DWIDTH 0 0
BBX 2 3 -1 -1
BITMAP
C0
C0
C0
ENDCHAR
STARTCHAR 065D
ENCODING 1629
SWIDTH 0 0
DWIDTH 0 0
BBX 3 4 -2 14
BITMAP
C0
40
C0
20
ENDCHAR
STARTCHAR 065E
ENCODING 1630
SWIDTH 0 0
DWIDTH 0 0
BBX 4 4 -2 13
BITMAP
40
30
C0
20
ENDCHAR
ENDFONT
